  0
SECTION
  2
HEADER
  9
$ACADVER
  1
AC1024
  9
$ACADMAINTVER
 70
6
  9
$DWGCODEPAGE
  3
ANSI_1252
  9
$LASTSAVEDBY
  1
ezdxf
  9
$INSBASE
 10
0.0
 20
0.0
 30
0.0
  9
$EXTMIN
 10
1e+20
 20
1e+20
 30
1e+20
  9
$EXTMAX
 10
-1e+20
 20
-1e+20
 30
-1e+20
  9
$LIMMIN
 10
0.0
 20
0.0
  9
$LIMMAX
 10
420.0
 20
297.0
  9
$ORTHOMODE
 70
0
  9
$REGENMODE
 70
1
  9
$FILLMODE
 70
1
  9
$QTEXTMODE
 70
0
  9
$MIRRTEXT
 70
1
  9
$LTSCALE
 40
1.0
  9
$ATTMODE
 70
1
  9
$TEXTSIZE
 40
2.5
  9
$TRACEWID
 40
1.0
  9
$TEXTSTYLE
  7
Standard
  9
$CLAYER
  8
0
  9
$CELTYPE
  6
ByLayer
  9
$CECOLOR
 62
256
  9
$CELTSCALE
 40
1.0
  9
$DISPSILH
 70
0
  9
$DIMSCALE
 40
1.0
  9
$DIMASZ
 40
2.5
  9
$DIMEXO
 40
0.625
  9
$DIMDLI
 40
3.75
  9
$DIMRND
 40
0.0
  9
$DIMDLE
 40
0.0
  9
$DIMEXE
 40
1.25
  9
$DIMTP
 40
0.0
  9
$DIMTM
 40
0.0
  9
$DIMTXT
 40
2.5
  9
$DIMCEN
 40
2.5
  9
$DIMTSZ
 40
0.0
  9
$DIMTOL
 70
0
  9
$DIMLIM
 70
0
  9
$DIMTIH
 70
0
  9
$DIMTOH
 70
0
  9
$DIMSE1
 70
0
  9
$DIMSE2
 70
0
  9
$DIMTAD
 70
1
  9
$DIMZIN
 70
8
  9
$DIMBLK
  1

  9
$DIMASO
 70
1
  9
$DIMSHO
 70
1
  9
$DIMPOST
  1

  9
$DIMAPOST
  1

  9
$DIMALT
 70
0
  9
$DIMALTD
 70
3
  9
$DIMALTF
 40
0.03937007874
  9
$DIMLFAC
 40
1.0
  9
$DIMTOFL
 70
1
  9
$DIMTVP
 40
0.0
  9
$DIMTIX
 70
0
  9
$DIMSOXD
 70
0
  9
$DIMSAH
 70
0
  9
$DIMBLK1
  1

  9
$DIMBLK2
  1

  9
$DIMSTYLE
  2
ISO-25
  9
$DIMCLRD
 70
0
  9
$DIMCLRE
 70
0
  9
$DIMCLRT
 70
0
  9
$DIMTFAC
 40
1.0
  9
$DIMGAP
 40
0.625
  9
$DIMJUST
 70
0
  9
$DIMSD1
 70
0
  9
$DIMSD2
 70
0
  9
$DIMTOLJ
 70
0
  9
$DIMTZIN
 70
8
  9
$DIMALTZ
 70
0
  9
$DIMALTTZ
 70
0
  9
$DIMUPT
 70
0
  9
$DIMDEC
 70
2
  9
$DIMTDEC
 70
2
  9
$DIMALTU
 70
2
  9
$DIMALTTD
 70
3
  9
$DIMTXSTY
  7
Standard
  9
$DIMAUNIT
 70
0
  9
$DIMADEC
 70
0
  9
$DIMALTRND
 40
0.0
  9
$DIMAZIN
 70
0
  9
$DIMDSEP
 70
44
  9
$DIMATFIT
 70
3
  9
$DIMFRAC
 70
0
  9
$DIMLDRBLK
  1

  9
$DIMLUNIT
 70
2
  9
$DIMLWD
 70
-2
  9
$DIMLWE
 70
-2
  9
$DIMTMOVE
 70
0
  9
$DIMFXL
 40
1.0
  9
$DIMFXLON
 70
0
  9
$DIMJOGANG
 40
0.785398163397
  9
$DIMTFILL
 70
0
  9
$DIMTFILLCLR
 70
0
  9
$DIMARCSYM
 70
0
  9
$DIMLTYPE
  6

  9
$DIMLTEX1
  6

  9
$DIMLTEX2
  6

  9
$DIMTXTDIRECTION
 70
0
  9
$LUNITS
 70
2
  9
$LUPREC
 70
4
  9
$SKETCHINC
 40
1.0
  9
$FILLETRAD
 40
10.0
  9
$AUNITS
 70
0
  9
$AUPREC
 70
2
  9
$MENU
  1
.
  9
$ELEVATION
 40
0.0
  9
$PELEVATION
 40
0.0
  9
$THICKNESS
 40
0.0
  9
$LIMCHECK
 70
0
  9
$CHAMFERA
 40
0.0
  9
$CHAMFERB
 40
0.0
  9
$CHAMFERC
 40
0.0
  9
$CHAMFERD
 40
0.0
  9
$SKPOLY
 70
0
  9
$TDCREATE
 40
2461286.547673611
  9
$TDUCREATE
 40
2458532.153996898
  9
$TDUPDATE
 40
2461286.547673611
  9
$TDUUPDATE
 40
2458532.1544311
  9
$TDINDWG
 40
0.0
  9
$TDUSRTIMER
 40
0.0
  9
$USRTIMER
 70
1
  9
$ANGBASE
 50
0.0
  9
$ANGDIR
 70
0
  9
$PDMODE
 70
0
  9
$PDSIZE
 40
0.0
  9
$PLINEWID
 40
0.0
  9
$SPLFRAME
 70
0
  9
$SPLINETYPE
 70
6
  9
$SPLINESEGS
 70
8
  9
$HANDSEED
  5
CC
  9
$SURFTAB1
 70
6
  9
$SURFTAB2
 70
6
  9
$SURFTYPE
 70
6
  9
$SURFU
 70
6
  9
$SURFV
 70
6
  9
$UCSBASE
  2

  9
$UCSNAME
  2

  9
$UCSORG
 10
0.0
 20
0.0
 30
0.0
  9
$UCSXDIR
 10
1.0
 20
0.0
 30
0.0
  9
$UCSYDIR
 10
0.0
 20
1.0
 30
0.0
  9
$UCSORTHOREF
  2

  9
$UCSORTHOVIEW
 70
0
  9
$UCSORGTOP
 10
0.0
 20
0.0
 30
0.0
  9
$UCSORGBOTTOM
 10
0.0
 20
0.0
 30
0.0
  9
$UCSORGLEFT
 10
0.0
 20
0.0
 30
0.0
  9
$UCSORGRIGHT
 10
0.0
 20
0.0
 30
0.0
  9
$UCSORGFRONT
 10
0.0
 20
0.0
 30
0.0
  9
$UCSORGBACK
 10
0.0
 20
0.0
 30
0.0
  9
$PUCSBASE
  2

  9
$PUCSNAME
  2

  9
$PUCSORG
 10
0.0
 20
0.0
 30
0.0
  9
$PUCSXDIR
 10
1.0
 20
0.0
 30
0.0
  9
$PUCSYDIR
 10
0.0
 20
1.0
 30
0.0
  9
$PUCSORTHOREF
  2

  9
$PUCSORTHOVIEW
 70
0
  9
$PUCSORGTOP
 10
0.0
 20
0.0
 30
0.0
  9
$PUCSORGBOTTOM
 10
0.0
 20
0.0
 30
0.0
  9
$PUCSORGLEFT
 10
0.0
 20
0.0
 30
0.0
  9
$PUCSORGRIGHT
 10
0.0
 20
0.0
 30
0.0
  9
$PUCSORGFRONT
 10
0.0
 20
0.0
 30
0.0
  9
$PUCSORGBACK
 10
0.0
 20
0.0
 30
0.0
  9
$USERI1
 70
0
  9
$USERI2
 70
0
  9
$USERI3
 70
0
  9
$USERI4
 70
0
  9
$USERI5
 70
0
  9
$USERR1
 40
0.0
  9
$USERR2
 40
0.0
  9
$USERR3
 40
0.0
  9
$USERR4
 40
0.0
  9
$USERR5
 40
0.0
  9
$WORLDVIEW
 70
1
  9
$SHADEDGE
 70
3
  9
$SHADEDIF
 70
70
  9
$TILEMODE
 70
1
  9
$MAXACTVP
 70
64
  9
$PINSBASE
 10
0.0
 20
0.0
 30
0.0
  9
$PLIMCHECK
 70
0
  9
$PEXTMIN
 10
1e+20
 20
1e+20
 30
1e+20
  9
$PEXTMAX
 10
-1e+20
 20
-1e+20
 30
-1e+20
  9
$PLIMMIN
 10
0.0
 20
0.0
  9
$PLIMMAX
 10
420.0
 20
297.0
  9
$UNITMODE
 70
0
  9
$VISRETAIN
 70
1
  9
$PLINEGEN
 70
0
  9
$PSLTSCALE
 70
1
  9
$TREEDEPTH
 70
3020
  9
$CMLSTYLE
  2
Standard
  9
$CMLJUST
 70
0
  9
$CMLSCALE
 40
20.0
  9
$PROXYGRAPHICS
 70
1
  9
$MEASUREMENT
 70
1
  9
$CELWEIGHT
370
-1
  9
$ENDCAPS
280
0
  9
$JOINSTYLE
280
0
  9
$LWDISPLAY
290
0
  9
$INSUNITS
 70
4
  9
$HYPERLINKBASE
  1

  9
$STYLESHEET
  1

  9
$XEDIT
290
1
  9
$CEPSNTYPE
380
0
  9
$PSTYLEMODE
290
1
  9
$FINGERPRINTGUID
  2
{083352C5-E21D-428D-882A-6561BF7DA9F4}
  9
$VERSIONGUID
  2
{209202AE-A095-4A3B-8E75-F83F36D95A1C}
  9
$EXTNAMES
290
1
  9
$PSVPSCALE
 40
0.0
  9
$OLESTARTUP
290
0
  9
$SORTENTS
280
127
  9
$INDEXCTL
280
0
  9
$HIDETEXT
280
1
  9
$XCLIPFRAME
280
1
  9
$HALOGAP
280
0
  9
$OBSCOLOR
 70
257
  9
$OBSLTYPE
280
0
  9
$INTERSECTIONDISPLAY
280
0
  9
$INTERSECTIONCOLOR
 70
257
  9
$DIMASSOC
280
2
  9
$PROJECTNAME
  1

  9
$CAMERADISPLAY
290
0
  9
$LENSLENGTH
 40
50.0
  9
$CAMERAHEIGHT
 40
0.0
  9
$STEPSPERSEC
 40
24.0
  9
$STEPSIZE
 40
100.0
  9
$3DDWFPREC
 40
2.0
  9
$PSOLWIDTH
 40
0.005
  9
$PSOLHEIGHT
 40
0.08
  9
$LOFTANG1
 40
1.570796326795
  9
$LOFTANG2
 40
1.570796326795
  9
$LOFTMAG1
 40
0.0
  9
$LOFTMAG2
 40
0.0
  9
$LOFTPARAM
 70
7
  9
$LOFTNORMALS
280
1
  9
$LATITUDE
 40
37.795
  9
$LONGITUDE
 40
-122.394
  9
$NORTHDIRECTION
 40
0.0
  9
$TIMEZONE
 70
-8000
  9
$LIGHTGLYPHDISPLAY
280
1
  9
$TILEMODELIGHTSYNCH
280
1
  9
$CMATERIAL
347
20
  9
$SOLIDHIST
280
0
  9
$SHOWHIST
280
1
  9
$DWFFRAME
280
2
  9
$DGNFRAME
280
2
  9
$REALWORLDSCALE
290
1
  9
$INTERFERECOLOR
 62
256
  9
$CSHADOW
280
0
  9
$SHADOWPLANELOCATION
 40
0.0
  0
ENDSEC
  0
SECTION
  2
CLASSES
  0
CLASS
  1
ACDBDICTIONARYWDFLT
  2
AcDbDictionaryWithDefault
  3
ObjectDBX Classes
 90
0
 91
0
280
0
281
0
  0
CLASS
  1
SUN
  2
AcDbSun
  3
SCENEOE
 90
1153
 91
0
280
0
281
0
  0
CLASS
  1
VISUALSTYLE
  2
AcDbVisualStyle
  3
ObjectDBX Classes
 90
4095
 91
0
280
0
281
0
  0
CLASS
  1
MATERIAL
  2
AcDbMaterial
  3
ObjectDBX Classes
 90
1153
 91
0
280
0
281
0
  0
CLASS
  1
SCALE
  2
AcDbScale
  3
ObjectDBX Classes
 90
1153
 91
0
280
0
281
0
  0
CLASS
  1
TABLESTYLE
  2
AcDbTableStyle
  3
ObjectDBX Classes
 90
4095
 91
0
280
0
281
0
  0
CLASS
  1
MLEADERSTYLE
  2
AcDbMLeaderStyle
  3
ACDB_MLEADERSTYLE_CLASS
 90
4095
 91
0
280
0
281
0
  0
CLASS
  1
DICTIONARYVAR
  2
AcDbDictionaryVar
  3
ObjectDBX Classes
 90
0
 91
0
280
0
281
0
  0
CLASS
  1
CELLSTYLEMAP
  2
AcDbCellStyleMap
  3
ObjectDBX Classes
 90
1152
 91
0
280
0
281
0
  0
CLASS
  1
MENTALRAYRENDERSETTINGS
  2
AcDbMentalRayRenderSettings
  3
SCENEOE
 90
1024
 91
0
280
0
281
0
  0
CLASS
  1
ACDBDETAILVIEWSTYLE
  2
AcDbDetailViewStyle
  3
ObjectDBX Classes
 90
1025
 91
0
280
0
281
0
  0
CLASS
  1
ACDBSECTIONVIEWSTYLE
  2
AcDbSectionViewStyle
  3
ObjectDBX Classes
 90
1025
 91
0
280
0
281
0
  0
CLASS
  1
RASTERVARIABLES
  2
AcDbRasterVariables
  3
ISM
 90
0
 91
0
280
0
281
0
  0
CLASS
  1
LAYOUT
  2
AcDbLayout
  3
ObjectDBX Classes
 90
0
 91
0
280
0
281
0
  0
CLASS
  1
ACDBPLACEHOLDER
  2
AcDbPlaceHolder
  3
ObjectDBX Classes
 90
0
 91
0
280
0
281
0
  0
ENDSEC
  0
SECTION
  2
TABLES
  0
TABLE
  2
VPORT
  5
8
330
0
100
AcDbSymbolTable
 70
1
  0
VPORT
  5
23
330
8
100
AcDbSymbolTableRecord
100
AcDbViewportTableRecord
  2
*Active
 70
0
 10
0.0
 20
0.0
 11
1.0
 21
1.0
 12
0.0
 22
0.0
 13
0.0
 23
0.0
 14
0.5
 24
0.5
 15
0.5
 25
0.5
 16
0.0
 26
0.0
 36
1.0
 17
0.0
 27
0.0
 37
0.0
 40
1000.0
 41
1.34
 42
50.0
 43
0.0
 44
0.0
 50
0.0
 51
0.0
 71
0
 72
1000
 73
1
 74
3
 75
0
 76
0
 77
0
 78
0
281
0
 65
0
146
0.0
  0
ENDTAB
  0
TABLE
  2
LTYPE
  5
2
330
0
100
AcDbSymbolTable
 70
3
  0
LTYPE
  5
24
330
2
100
AcDbSymbolTableRecord
100
AcDbLinetypeTableRecord
  2
ByBlock
 70
0
  3

 72
65
 73
0
 40
0.0
  0
LTYPE
  5
25
330
2
100
AcDbSymbolTableRecord
100
AcDbLinetypeTableRecord
  2
ByLayer
 70
0
  3

 72
65
 73
0
 40
0.0
  0
LTYPE
  5
26
330
2
100
AcDbSymbolTableRecord
100
AcDbLinetypeTableRecord
  2
Continuous
 70
0
  3

 72
65
 73
0
 40
0.0
  0
ENDTAB
  0
TABLE
  2
LAYER
  5
1
330
0
100
AcDbSymbolTable
 70
5
  0
LAYER
  5
27
330
1
100
AcDbSymbolTableRecord
100
AcDbLayerTableRecord
  2
0
 70
0
 62
7
  6
Continuous
370
-3
390
13
347
21
  0
LAYER
  5
28
330
1
100
AcDbSymbolTableRecord
100
AcDbLayerTableRecord
  2
Defpoints
 70
0
 62
7
  6
Continuous
290
0
370
-3
390
13
347
21
  0
LAYER
  5
2F
330
1
100
AcDbSymbolTableRecord
100
AcDbLayerTableRecord
  2
CUT
 70
0
 62
1
  6
Continuous
370
-3
390
13
347
21
  0
LAYER
  5
30
330
1
100
AcDbSymbolTableRecord
100
AcDbLayerTableRecord
  2
HOLES
 70
0
 62
5
  6
Continuous
370
-3
390
13
347
21
  0
LAYER
  5
31
330
1
100
AcDbSymbolTableRecord
100
AcDbLayerTableRecord
  2
ENGRAVE
 70
0
 62
3
  6
Continuous
370
-3
390
13
347
21
  0
ENDTAB
  0
TABLE
  2
STYLE
  5
5
330
0
100
AcDbSymbolTable
 70
1
  0
STYLE
  5
29
330
5
100
AcDbSymbolTableRecord
100
AcDbTextStyleTableRecord
  2
Standard
 70
0
 40
0.0
 41
1.0
 50
0.0
 71
0
 42
2.5
  3
txt
  4

  0
ENDTAB
  0
TABLE
  2
VIEW
  5
7
330
0
100
AcDbSymbolTable
 70
0
  0
ENDTAB
  0
TABLE
  2
UCS
  5
6
330
0
100
AcDbSymbolTable
 70
0
  0
ENDTAB
  0
TABLE
  2
APPID
  5
3
330
0
100
AcDbSymbolTable
 70
3
  0
APPID
  5
2A
330
3
100
AcDbSymbolTableRecord
100
AcDbRegAppTableRecord
  2
ACAD
 70
0
  0
APPID
  5
C9
330
3
100
AcDbSymbolTableRecord
100
AcDbRegAppTableRecord
  2
HATCHBACKGROUNDCOLOR
 70
0
  0
APPID
  5
CA
330
3
100
AcDbSymbolTableRecord
100
AcDbRegAppTableRecord
  2
EZDXF
 70
0
  0
ENDTAB
  0
TABLE
  2
DIMSTYLE
  5
4
330
0
100
AcDbSymbolTable
 70
1
100
AcDbDimStyleTable
  0
DIMSTYLE
105
2B
330
4
100
AcDbSymbolTableRecord
100
AcDbDimStyleTableRecord
  2
Standard
 70
0
 40
1.0
 41
2.5
 42
0.625
 43
3.75
 44
1.25
 45
0.0
 46
0.0
 47
0.0
 48
0.0
 49
2.5
140
2.5
141
2.5
142
0.0
143
0.03937007874
144
1.0
145
0.0
146
1.0
147
0.625
148
0.0
 69
0
 70
0
 71
0
 72
0
 73
0
 74
0
 75
0
 76
0
 77
1
 78
8
 79
3
170
0
171
3
172
1
173
0
174
0
175
0
176
0
177
0
178
0
179
2
271
2
272
2
273
2
274
3
275
0
276
0
277
2
278
44
279
0
280
0
281
0
282
0
283
0
284
8
285
0
286
0
288
0
289
3
290
0
371
-2
372
-2
  0
ENDTAB
  0
TABLE
  2
BLOCK_RECORD
  5
9
330
0
100
AcDbSymbolTable
 70
2
  0
BLOCK_RECORD
  5
17
330
9
100
AcDbSymbolTableRecord
100
AcDbBlockTableRecord
  2
*Model_Space
340
1A
 70
0
280
1
281
0
  0
BLOCK_RECORD
  5
1B
330
9
100
AcDbSymbolTableRecord
100
AcDbBlockTableRecord
  2
*Paper_Space
340
1E
 70
0
280
1
281
0
  0
ENDTAB
  0
ENDSEC
  0
SECTION
  2
BLOCKS
  0
BLOCK
  5
18
330
17
100
AcDbEntity
  8
0
100
AcDbBlockBegin
  2
*Model_Space
 70
0
 10
0.0
 20
0.0
 30
0.0
  3
*Model_Space
  1

  0
ENDBLK
  5
19
330
17
100
AcDbEntity
  8
0
100
AcDbBlockEnd
  0
BLOCK
  5
1C
330
1B
100
AcDbEntity
  8
0
100
AcDbBlockBegin
  2
*Paper_Space
 70
0
 10
0.0
 20
0.0
 30
0.0
  3
*Paper_Space
  1

  0
ENDBLK
  5
1D
330
1B
100
AcDbEntity
  8
0
100
AcDbBlockEnd
  0
ENDSEC
  0
SECTION
  2
ENTITIES
  0
LWPOLYLINE
  5
32
330
17
100
AcDbEntity
  8
CUT
100
AcDbPolyline
 90
5
 70
1
 10
0.0
 20
78.0
 10
90.0
 20
78.0
 10
90.0
 20
0.0
 10
0.0
 20
0.0
 10
0.0
 20
78.0
  0
LWPOLYLINE
  5
33
330
17
100
AcDbEntity
  8
HOLES
100
AcDbPolyline
 90
5
 70
1
 10
6.15
 20
4.0
 10
9.0
 20
4.0
 10
9.0
 20
12.0
 10
6.15
 20
12.0
 10
6.15
 20
4.0
  0
LWPOLYLINE
  5
34
330
17
100
AcDbEntity
  8
HOLES
100
AcDbPolyline
 90
5
 70
1
 10
5.85
 20
12.0
 10
3.0
 20
12.0
 10
3.0
 20
4.0
 10
5.85
 20
4.0
 10
5.85
 20
12.0
  0
LWPOLYLINE
  5
35
330
17
100
AcDbEntity
  8
HOLES
100
AcDbPolyline
 90
5
 70
1
 10
18.2
 20
4.0
 10
21.0
 20
4.0
 10
21.0
 20
12.0
 10
18.2
 20
12.0
 10
18.2
 20
4.0
  0
LWPOLYLINE
  5
36
330
17
100
AcDbEntity
  8
HOLES
100
AcDbPolyline
 90
5
 70
1
 10
17.8
 20
12.0
 10
15.0
 20
12.0
 10
15.0
 20
4.0
 10
17.8
 20
4.0
 10
17.8
 20
12.0
  0
LWPOLYLINE
  5
37
330
17
100
AcDbEntity
  8
HOLES
100
AcDbPolyline
 90
5
 70
1
 10
30.25
 20
4.0
 10
33.0
 20
4.0
 10
33.0
 20
12.0
 10
30.25
 20
12.0
 10
30.25
 20
4.0
  0
LWPOLYLINE
  5
38
330
17
100
AcDbEntity
  8
HOLES
100
AcDbPolyline
 90
5
 70
1
 10
29.75
 20
12.0
 10
27.0
 20
12.0
 10
27.0
 20
4.0
 10
29.75
 20
4.0
 10
29.75
 20
12.0
  0
LWPOLYLINE
  5
39
330
17
100
AcDbEntity
  8
HOLES
100
AcDbPolyline
 90
5
 70
1
 10
41.7
 20
12.0
 10
39.0
 20
12.0
 10
39.0
 20
4.0
 10
41.7
 20
4.0
 10
41.7
 20
12.0
  0
LWPOLYLINE
  5
3A
330
17
100
AcDbEntity
  8
HOLES
100
AcDbPolyline
 90
5
 70
1
 10
42.3
 20
4.0
 10
45.0
 20
4.0
 10
45.0
 20
12.0
 10
42.3
 20
12.0
 10
42.3
 20
4.0
  0
LWPOLYLINE
  5
3B
330
17
100
AcDbEntity
  8
HOLES
100
AcDbPolyline
 90
13
 70
1
 10
6.3
 20
35.0
 10
5.5
 20
35.0
 10
5.5
 20
37.0
 10
7.5
 20
37.0
 10
7.5
 20
35.0
 10
6.7
 20
35.0
 10
6.7
 20
32.0
 10
10.0
 20
32.0
 10
10.0
 20
40.0
 10
3.0
 20
40.0
 10
3.0
 20
32.0
 10
6.3
 20
32.0
 10
6.3
 20
35.0
  0
LWPOLYLINE
  5
3C
330
17
100
AcDbEntity
  8
HOLES
100
AcDbPolyline
 90
13
 70
1
 10
17.5
 20
37.0
 10
19.5
 20
37.0
 10
19.5
 20
35.0
 10
18.75
 20
35.0
 10
18.75
 20
32.0
 10
22.0
 20
32.0
 10
22.0
 20
40.0
 10
15.0
 20
40.0
 10
15.0
 20
32.0
 10
18.25
 20
32.0
 10
18.25
 20
35.0
 10
17.5
 20
35.0
 10
17.5
 20
37.0
  0
LWPOLYLINE
  5
3D
330
17
100
AcDbEntity
  8
HOLES
100
AcDbPolyline
 90
13
 70
1
 10
29.5
 20
37.0
 10
31.5
 20
37.0
 10
31.5
 20
35.0
 10
30.8
 20
35.0
 10
30.8
 20
32.0
 10
34.0
 20
32.0
 10
34.0
 20
40.0
 10
27.0
 20
40.0
 10
27.0
 20
32.0
 10
30.2
 20
32.0
 10
30.2
 20
35.0
 10
29.5
 20
35.0
 10
29.5
 20
37.0
  0
LWPOLYLINE
  5
3E
330
17
100
AcDbEntity
  8
HOLES
100
AcDbPolyline
 90
5
 70
1
 10
57.0
 20
4.0
 10
57.0
 20
12.0
 10
54.35
 20
12.0
 10
54.35
 20
4.0
 10
57.0
 20
4.0
  0
LWPOLYLINE
  5
3F
330
17
100
AcDbEntity
  8
HOLES
100
AcDbPolyline
 90
5
 70
1
 10
51.0
 20
12.0
 10
51.0
 20
4.0
 10
53.65
 20
4.0
 10
53.65
 20
12.0
 10
51.0
 20
12.0
  0
LWPOLYLINE
  5
40
330
17
100
AcDbEntity
  8
HOLES
100
AcDbPolyline
 90
5
 70
1
 10
69.0
 20
4.0
 10
69.0
 20
12.0
 10
66.4
 20
12.0
 10
66.4
 20
4.0
 10
69.0
 20
4.0
  0
LWPOLYLINE
  5
41
330
17
100
AcDbEntity
  8
HOLES
100
AcDbPolyline
 90
5
 70
1
 10
63.0
 20
12.0
 10
63.0
 20
4.0
 10
65.6
 20
4.0
 10
65.6
 20
12.0
 10
63.0
 20
12.0
  0
LWPOLYLINE
  5
42
330
17
100
AcDbEntity
  8
HOLES
100
AcDbPolyline
 90
5
 70
1
 10
81.0
 20
4.0
 10
81.0
 20
12.0
 10
78.5
 20
12.0
 10
78.5
 20
4.0
 10
81.0
 20
4.0
  0
LWPOLYLINE
  5
43
330
17
100
AcDbEntity
  8
HOLES
100
AcDbPolyline
 90
5
 70
1
 10
75.0
 20
12.0
 10
75.0
 20
4.0
 10
77.5
 20
4.0
 10
77.5
 20
12.0
 10
75.0
 20
12.0
  0
LWPOLYLINE
  5
44
330
17
100
AcDbEntity
  8
HOLES
100
AcDbPolyline
 90
13
 70
1
 10
46.0
 20
32.0
 10
46.0
 20
40.0
 10
39.0
 20
40.0
 10
39.0
 20
32.0
 10
42.1
 20
32.0
 10
42.1
 20
35.0
 10
41.5
 20
35.0
 10
41.5
 20
37.0
 10
43.5
 20
37.0
 10
43.5
 20
35.0
 10
42.9
 20
35.0
 10
42.9
 20
32.0
 10
46.0
 20
32.0
  0
LWPOLYLINE
  5
45
330
17
100
AcDbEntity
  8
HOLES
100
AcDbPolyline
 90
13
 70
1
 10
58.0
 20
32.0
 10
58.0
 20
40.0
 10
51.0
 20
40.0
 10
51.0
 20
32.0
 10
54.0
 20
32.0
 10
54.0
 20
35.0
 10
53.5
 20
35.0
 10
53.5
 20
37.0
 10
55.5
 20
37.0
 10
55.5
 20
35.0
 10
55.0
 20
35.0
 10
55.0
 20
32.0
 10
58.0
 20
32.0
  0
LWPOLYLINE
  5
46
330
17
100
AcDbEntity
  8
HOLES
100
AcDbPolyline
 90
13
 70
1
 10
65.5
 20
37.0
 10
67.5
 20
37.0
 10
67.5
 20
35.0
 10
67.1
 20
35.0
 10
67.1
 20
32.0
 10
70.0
 20
32.0
 10
70.0
 20
40.0
 10
63.0
 20
40.0
 10
63.0
 20
32.0
 10
65.9
 20
32.0
 10
65.9
 20
35.0
 10
65.5
 20
35.0
 10
65.5
 20
37.0
  0
LWPOLYLINE
  5
47
330
17
100
AcDbEntity
  8
HOLES
100
AcDbPolyline
 90
5
 70
1
 10
5.875
 20
26.0
 10
5.875
 20
18.0
 10
6.125
 20
18.0
 10
6.125
 20
26.0
 10
5.875
 20
26.0
  0
LWPOLYLINE
  5
48
330
17
100
AcDbEntity
  8
HOLES
100
AcDbPolyline
 90
5
 70
1
 10
18.15
 20
26.0
 10
17.85
 20
26.0
 10
17.85
 20
18.0
 10
18.15
 20
18.0
 10
18.15
 20
26.0
  0
LWPOLYLINE
  5
49
330
17
100
AcDbEntity
  8
HOLES
100
AcDbPolyline
 90
5
 70
1
 10
30.2
 20
26.0
 10
29.8
 20
26.0
 10
29.8
 20
18.0
 10
30.2
 20
18.0
 10
30.2
 20
26.0
  0
LWPOLYLINE
  5
4A
330
17
100
AcDbEntity
  8
HOLES
100
AcDbPolyline
 90
5
 70
1
 10
41.75
 20
26.0
 10
41.75
 20
18.0
 10
42.25
 20
18.0
 10
42.25
 20
26.0
 10
41.75
 20
26.0
  0
LWPOLYLINE
  5
4B
330
17
100
AcDbEntity
  8
HOLES
100
AcDbPolyline
 90
65
 70
1
 10
6.149277709000829
 20
49.01470257104943
 10
6.1471177920604845
 20
49.02926354830242
 10
6.143541050359831
 20
49.04354270158817
 10
6.138581929876693
 20
49.057402514854765
 10
6.132288189652253
 20
49.0707095105239
 10
6.124720441845382
 20
49.08333553495294
 10
6.1159515680044105
 20
49.09515899262455
 10
6.106066017177982
 20
49.10606601717798
 10
6.095158992624547
 20
49.11595156800441
 10
6.0833355349529405
 20
49.12472044184538
 10
6.0707095105238995
 20
49.13228818965225
 10
6.057402514854764
 20
49.13858192987669
 10
6.043542701588169
 20
49.14354105035983
 10
6.029263548302419
 20
49.147117792060484
 10
6.014702571049434
 20
49.14927770900083
 10
6.0
 20
49.15
 10
5.985297428950566
 20
49.14927770900083
 10
5.97073645169758
 20
49.147117792060484
 10
5.956457298411831
 20
49.14354105035983
 10
5.942597485145236
 20
49.13858192987669
 10
5.9292904894761005
 20
49.13228818965225
 10
5.9166644650470595
 20
49.12472044184538
 10
5.904841007375453
 20
49.11595156800441
 10
5.893933982822018
 20
49.10606601717798
 10
5.8840484319955895
 20
49.09515899262455
 10
5.875279558154618
 20
49.08333553495294
 10
5.867711810347747
 20
49.0707095105239
 10
5.861418070123307
 20
49.057402514854765
 10
5.856458949640169
 20
49.04354270158817
 10
5.8528822079395155
 20
49.02926354830242
 10
5.850722290999171
 20
49.01470257104943
 10
5.85
 20
49.0
 10
5.850722290999171
 20
48.98529742895057
 10
5.8528822079395155
 20
48.97073645169758
 10
5.856458949640169
 20
48.95645729841183
 10
5.861418070123307
 20
48.942597485145235
 10
5.867711810347747
 20
48.9292904894761
 10
5.875279558154618
 20
48.91666446504706
 10
5.8840484319955895
 20
48.90484100737545
 10
5.893933982822018
 20
48.89393398282202
 10
5.904841007375453
 20
48.88404843199559
 10
5.9166644650470595
 20
48.87527955815462
 10
5.9292904894761005
 20
48.86771181034775
 10
5.942597485145236
 20
48.86141807012331
 10
5.956457298411831
 20
48.85645894964017
 10
5.970736451697581
 20
48.852882207939516
 10
5.985297428950566
 20
48.85072229099917
 10
6.0
 20
48.85
 10
6.014702571049434
 20
48.85072229099917
 10
6.029263548302419
 20
48.852882207939516
 10
6.043542701588169
 20
48.85645894964017
 10
6.057402514854764
 20
48.86141807012331
 10
6.0707095105238995
 20
48.86771181034775
 10
6.0833355349529405
 20
48.87527955815462
 10
6.095158992624547
 20
48.88404843199559
 10
6.106066017177982
 20
48.89393398282202
 10
6.1159515680044105
 20
48.90484100737545
 10
6.124720441845382
 20
48.91666446504706
 10
6.132288189652253
 20
48.9292904894761
 10
6.138581929876693
 20
48.942597485145235
 10
6.143541050359831
 20
48.95645729841183
 10
6.1471177920604845
 20
48.97073645169758
 10
6.149277709000829
 20
48.98529742895057
 10
6.15
 20
49.0
 10
6.149277709000829
 20
49.01470257104943
  0
LWPOLYLINE
  5
4C
330
17
100
AcDbEntity
  8
HOLES
100
AcDbPolyline
 90
65
 70
1
 10
18.199036945334438
 20
49.01960342806591
 10
18.196157056080647
 20
49.03901806440322
 10
18.19138806714644
 20
49.05805693545089
 10
18.184775906502257
 20
49.07653668647302
 10
18.17638425286967
 20
49.0942793473652
 10
18.166293922460508
 20
49.11111404660392
 10
18.154602090672547
 20
49.12687865683273
 10
18.14142135623731
 20
49.14142135623731
 10
18.12687865683273
 20
49.15460209067255
 10
18.11111404660392
 20
49.16629392246051
 10
18.094279347365198
 20
49.176384252869674
 10
18.07653668647302
 20
49.18477590650226
 10
18.058056935450892
 20
49.19138806714644
 10
18.039018064403226
 20
49.196157056080644
 10
18.019603428065913
 20
49.19903694533444
 10
18.0
 20
49.2
 10
17.980396571934087
 20
49.19903694533444
 10
17.960981935596774
 20
49.196157056080644
 10
17.941943064549108
 20
49.19138806714644
 10
17.92346331352698
 20
49.18477590650226
 10
17.905720652634802
 20
49.176384252869674
 10
17.88888595339608
 20
49.16629392246051
 10
17.87312134316727
 20
49.15460209067255
 10
17.85857864376269
 20
49.14142135623731
 10
17.845397909327453
 20
49.12687865683273
 10
17.833706077539492
 20
49.11111404660392
 10
17.82361574713033
 20
49.0942793473652
 10
17.815224093497743
 20
49.07653668647302
 10
17.80861193285356
 20
49.05805693545089
 10
17.803842943919353
 20
49.03901806440322
 10
17.800963054665562
 20
49.01960342806591
 10
17.8
 20
49.0
 10
17.800963054665562
 20
48.98039657193409
 10
17.803842943919353
 20
48.96098193559678
 10
17.80861193285356
 20
48.94194306454911
 10
17.815224093497743
 20
48.92346331352698
 10
17.82361574713033
 20
48.9057206526348
 10
17.833706077539492
 20
48.88888595339608
 10
17.845397909327453
 20
48.87312134316727
 10
17.85857864376269
 20
48.85857864376269
 10
17.87312134316727
 20
48.84539790932745
 10
17.88888595339608
 20
48.83370607753949
 10
17.905720652634802
 20
48.823615747130326
 10
17.92346331352698
 20
48.81522409349774
 10
17.941943064549108
 20
48.80861193285356
 10
17.960981935596774
 20
48.803842943919356
 10
17.980396571934087
 20
48.80096305466556
 10
18.0
 20
48.8
 10
18.019603428065913
 20
48.80096305466556
 10
18.039018064403226
 20
48.803842943919356
 10
18.058056935450892
 20
48.80861193285356
 10
18.07653668647302
 20
48.81522409349774
 10
18.094279347365198
 20
48.823615747130326
 10
18.11111404660392
 20
48.83370607753949
 10
18.12687865683273
 20
48.84539790932745
 10
18.14142135623731
 20
48.85857864376269
 10
18.154602090672547
 20
48.87312134316727
 10
18.166293922460508
 20
48.88888595339608
 10
18.17638425286967
 20
48.9057206526348
 10
18.184775906502257
 20
48.92346331352698
 10
18.19138806714644
 20
48.94194306454911
 10
18.196157056080647
 20
48.96098193559678
 10
18.199036945334438
 20
48.98039657193409
 10
18.2
 20
49.0
 10
18.199036945334438
 20
49.01960342806591
  0
LWPOLYLINE
  5
4D
330
17
100
AcDbEntity
  8
HOLES
100
AcDbPolyline
 90
65
 70
1
 10
30.245196320100806
 20
49.048772580504036
 10
30.239235083933053
 20
49.07257116931362
 10
30.230969883127823
 20
49.095670858091275
 10
30.220480316087087
 20
49.1178491842065
 10
30.207867403075635
 20
49.1388925582549
 10
30.193252613340682
 20
49.15859832104091
 10
30.17677669529664
 20
49.17677669529664
 10
30.158598321040913
 20
49.19325261334068
 10
30.138892558254902
 20
49.20786740307564
 10
30.1178491842065
 20
49.22048031608709
 10
30.09567085809127
 20
49.23096988312782
 10
30.072571169313616
 20
49.23923508393305
 10
30.048772580504032
 20
49.24519632010081
 10
30.02450428508239
 20
49.24879618166805
 10
30.0
 20
49.25
 10
29.97549571491761
 20
49.24879618166805
 10
29.951227419495968
 20
49.24519632010081
 10
29.927428830686384
 20
49.23923508393305
 10
29.90432914190873
 20
49.23096988312782
 10
29.8821508157935
 20
49.22048031608709
 10
29.861107441745098
 20
49.20786740307564
 10
29.841401678959087
 20
49.19325261334068
 10
29.82322330470336
 20
49.17677669529664
 10
29.806747386659314
 20
49.15859832104091
 10
29.792132596924365
 20
49.1388925582549
 10
29.779519683912913
 20
49.1178491842065
 10
29.769030116872177
 20
49.095670858091275
 10
29.760764916066947
 20
49.07257116931362
 10
29.754803679899194
 20
49.048772580504036
 10
29.751203818331952
 20
49.02450428508239
 10
29.75
 20
49.0
 10
29.751203818331952
 20
48.97549571491761
 10
29.754803679899194
 20
48.951227419495964
 10
29.760764916066947
 20
48.92742883068638
 10
29.769030116872177
 20
48.904329141908725
 10
29.779519683912913
 20
48.8821508157935
 10
29.792132596924365
 20
48.8611074417451
 10
29.806747386659314
 20
48.84140167895909
 10
29.82322330470336
 20
48.82322330470336
 10
29.841401678959087
 20
48.80674738665932
 10
29.861107441745098
 20
48.79213259692436
 10
29.8821508157935
 20
48.77951968391291
 10
29.90432914190873
 20
48.76903011687218
 10
29.927428830686384
 20
48.76076491606695
 10
29.951227419495968
 20
48.75480367989919
 10
29.97549571491761
 20
48.75120381833195
 10
30.0
 20
48.75
 10
30.02450428508239
 20
48.75120381833195
 10
30.048772580504032
 20
48.75480367989919
 10
30.072571169313616
 20
48.76076491606695
 10
30.09567085809127
 20
48.76903011687218
 10
30.1178491842065
 20
48.77951968391291
 10
30.138892558254902
 20
48.79213259692436
 10
30.158598321040913
 20
48.80674738665932
 10
30.17677669529664
 20
48.82322330470336
 10
30.193252613340686
 20
48.84140167895909
 10
30.207867403075635
 20
48.8611074417451
 10
30.220480316087087
 20
48.8821508157935
 10
30.230969883127823
 20
48.904329141908725
 10
30.239235083933053
 20
48.92742883068638
 10
30.245196320100806
 20
48.951227419495964
 10
30.248796181668048
 20
48.97549571491761
 10
30.25
 20
49.0
 10
30.248796181668048
 20
49.02450428508239
 10
30.245196320100806
 20
49.048772580504036
  0
LWPOLYLINE
  5
4E
330
17
100
AcDbEntity
  8
HOLES
100
AcDbPolyline
 90
5
 70
1
 10
54.3
 20
26.0
 10
53.7
 20
26.0
 10
53.7
 20
18.0
 10
54.3
 20
18.0
 10
54.3
 20
26.0
  0
LWPOLYLINE
  5
4F
330
17
100
AcDbEntity
  8
HOLES
100
AcDbPolyline
 90
5
 70
1
 10
65.6
 20
26.0
 10
65.6
 20
18.0
 10
66.4
 20
18.0
 10
66.4
 20
26.0
 10
65.6
 20
26.0
  0
LWPOLYLINE
  5
50
330
17
100
AcDbEntity
  8
HOLES
100
AcDbPolyline
 90
65
 70
1
 10
42.29855541800166
 20
49.02940514209887
 10
42.29423558412097
 20
49.05852709660484
 10
42.287082100719665
 20
49.08708540317634
 10
42.27716385975339
 20
49.11480502970953
 10
42.26457637930451
 20
49.1414190210478
 10
42.24944088369077
 20
49.16667106990588
 10
42.23190313600882
 20
49.190317985249095
 10
42.21213203435597
 20
49.21213203435597
 10
42.190317985249095
 20
49.231903136008825
 10
42.16667106990588
 20
49.24944088369077
 10
42.1414190210478
 20
49.26457637930451
 10
42.11480502970953
 20
49.27716385975339
 10
42.08708540317634
 20
49.287082100719665
 10
42.05852709660484
 20
49.29423558412097
 10
42.02940514209887
 20
49.29855541800166
 10
42.0
 20
49.3
 10
41.97059485790113
 20
49.29855541800166
 10
41.94147290339516
 20
49.29423558412097
 10
41.91291459682366
 20
49.287082100719665
 10
41.88519497029047
 20
49.27716385975339
 10
41.8585809789522
 20
49.26457637930451
 10
41.83332893009412
 20
49.24944088369077
 10
41.809682014750905
 20
49.23190313600882
 10
41.78786796564403
 20
49.21213203435597
 10
41.768096863991175
 20
49.190317985249095
 10
41.75055911630923
 20
49.16667106990588
 10
41.73542362069549
 20
49.1414190210478
 10
41.72283614024661
 20
49.11480502970953
 10
41.712917899280335
 20
49.08708540317634
 10
41.70576441587903
 20
49.05852709660484
 10
41.70144458199834
 20
49.02940514209887
 10
41.7
 20
49.0
 10
41.70144458199834
 20
48.97059485790113
 10
41.70576441587903
 20
48.94147290339516
 10
41.712917899280335
 20
48.91291459682366
 10
41.72283614024661
 20
48.88519497029047
 10
41.73542362069549
 20
48.8585809789522
 10
41.75055911630923
 20
48.83332893009412
 10
41.768096863991175
 20
48.809682014750905
 10
41.78786796564403
 20
48.78786796564403
 10
41.809682014750905
 20
48.768096863991175
 10
41.83332893009412
 20
48.75055911630923
 10
41.8585809789522
 20
48.73542362069549
 10
41.88519497029047
 20
48.72283614024661
 10
41.91291459682366
 20
48.712917899280335
 10
41.94147290339516
 20
48.70576441587903
 10
41.97059485790113
 20
48.70144458199834
 10
42.0
 20
48.7
 10
42.02940514209887
 20
48.70144458199834
 10
42.05852709660484
 20
48.70576441587903
 10
42.08708540317634
 20
48.712917899280335
 10
42.11480502970953
 20
48.72283614024661
 10
42.1414190210478
 20
48.73542362069549
 10
42.16667106990588
 20
48.75055911630923
 10
42.190317985249095
 20
48.768096863991175
 10
42.21213203435597
 20
48.78786796564403
 10
42.231903136008825
 20
48.809682014750905
 10
42.24944088369077
 20
48.83332893009412
 10
42.26457637930451
 20
48.8585809789522
 10
42.27716385975339
 20
48.88519497029047
 10
42.287082100719665
 20
48.91291459682366
 10
42.29423558412097
 20
48.94147290339516
 10
42.29855541800166
 20
48.97059485790113
 10
42.3
 20
49.0
 10
42.29855541800166
 20
49.02940514209887
  0
LWPOLYLINE
  5
51
330
17
100
AcDbEntity
  8
HOLES
100
AcDbPolyline
 90
65
 70
1
 10
54.398073890668876
 20
49.03920685613183
 10
54.392314112161294
 20
49.07803612880645
 10
54.38277613429288
 20
49.116113870901785
 10
54.36955181300451
 20
49.15307337294604
 10
54.35276850573934
 20
49.188558694730396
 10
54.332587844921015
 20
49.22222809320784
 10
54.309204181345095
 20
49.25375731366546
 10
54.28284271247462
 20
49.28284271247462
 10
54.25375731366546
 20
49.309204181345095
 10
54.22222809320784
 20
49.332587844921015
 10
54.188558694730396
 20
49.35276850573934
 10
54.15307337294604
 20
49.36955181300451
 10
54.116113870901785
 20
49.38277613429288
 10
54.07803612880645
 20
49.392314112161294
 10
54.03920685613183
 20
49.398073890668876
 10
54.0
 20
49.4
 10
53.96079314386817
 20
49.398073890668876
 10
53.92196387119355
 20
49.392314112161294
 10
53.883886129098215
 20
49.38277613429288
 10
53.84692662705396
 20
49.36955181300451
 10
53.811441305269604
 20
49.35276850573934
 10
53.77777190679216
 20
49.332587844921015
 10
53.74624268633454
 20
49.309204181345095
 10
53.71715728752538
 20
49.28284271247462
 10
53.690795818654905
 20
49.25375731366546
 10
53.667412155078985
 20
49.22222809320784
 10
53.64723149426066
 20
49.188558694730396
 10
53.63044818699549
 20
49.15307337294604
 10
53.61722386570712
 20
49.116113870901785
 10
53.607685887838706
 20
49.07803612880645
 10
53.601926109331124
 20
49.03920685613183
 10
53.6
 20
49.0
 10
53.601926109331124
 20
48.96079314386817
 10
53.607685887838706
 20
48.92196387119355
 10
53.61722386570712
 20
48.883886129098215
 10
53.63044818699549
 20
48.84692662705396
 10
53.64723149426066
 20
48.811441305269604
 10
53.667412155078985
 20
48.77777190679216
 10
53.690795818654905
 20
48.74624268633454
 10
53.71715728752538
 20
48.71715728752538
 10
53.74624268633454
 20
48.690795818654905
 10
53.77777190679216
 20
48.667412155078985
 10
53.811441305269604
 20
48.64723149426066
 10
53.84692662705396
 20
48.63044818699549
 10
53.883886129098215
 20
48.61722386570712
 10
53.92196387119355
 20
48.607685887838706
 10
53.96079314386817
 20
48.601926109331124
 10
54.0
 20
48.6
 10
54.03920685613183
 20
48.601926109331124
 10
54.07803612880645
 20
48.607685887838706
 10
54.116113870901785
 20
48.61722386570712
 10
54.15307337294604
 20
48.63044818699549
 10
54.188558694730396
 20
48.64723149426066
 10
54.22222809320784
 20
48.667412155078985
 10
54.25375731366546
 20
48.690795818654905
 10
54.28284271247462
 20
48.71715728752538
 10
54.309204181345095
 20
48.74624268633454
 10
54.332587844921015
 20
48.77777190679216
 10
54.35276850573934
 20
48.811441305269604
 10
54.36955181300451
 20
48.84692662705396
 10
54.38277613429288
 20
48.883886129098215
 10
54.392314112161294
 20
48.92196387119355
 10
54.398073890668876
 20
48.96079314386817
 10
54.4
 20
49.0
 10
54.398073890668876
 20
49.03920685613183
  0
LWPOLYLINE
  5
52
330
17
100
AcDbEntity
  8
HOLES
100
AcDbPolyline
 90
65
 70
1
 10
66.4975923633361
 20
49.04900857016478
 10
66.49039264020162
 20
49.097545161008064
 10
66.4784701678661
 20
49.14514233862723
 10
66.46193976625564
 20
49.19134171618254
 10
66.44096063217418
 20
49.235698368413
 10
66.41573480615128
 20
49.277785116509804
 10
66.38650522668136
 20
49.317196642081825
 10
66.35355339059328
 20
49.35355339059328
 10
66.31719664208183
 20
49.386505226681365
 10
66.2777851165098
 20
49.41573480615127
 10
66.235698368413
 20
49.440960632174175
 10
66.19134171618255
 20
49.46193976625565
 10
66.14514233862724
 20
49.47847016786611
 10
66.09754516100807
 20
49.49039264020161
 10
66.04900857016479
 20
49.497592363336096
 10
66.0
 20
49.5
 10
65.95099142983521
 20
49.497592363336096
 10
65.90245483899193
 20
49.49039264020161
 10
65.85485766137276
 20
49.47847016786611
 10
65.80865828381745
 20
49.46193976625565
 10
65.764301631587
 20
49.440960632174175
 10
65.7222148834902
 20
49.41573480615127
 10
65.68280335791817
 20
49.386505226681365
 10
65.64644660940672
 20
49.35355339059328
 10
65.61349477331864
 20
49.317196642081825
 10
65.58426519384872
 20
49.277785116509804
 10
65.55903936782582
 20
49.235698368413
 10
65.53806023374436
 20
49.19134171618254
 10
65.5215298321339
 20
49.14514233862723
 10
65.50960735979838
 20
49.097545161008064
 10
65.5024076366639
 20
49.04900857016478
 10
65.5
 20
49.0
 10
65.5024076366639
 20
48.95099142983522
 10
65.50960735979838
 20
48.902454838991936
 10
65.5215298321339
 20
48.85485766137277
 10
65.53806023374436
 20
48.80865828381746
 10
65.55903936782582
 20
48.764301631587
 10
65.58426519384872
 20
48.722214883490196
 10
65.61349477331864
 20
48.682803357918175
 10
65.64644660940672
 20
48.64644660940672
 10
65.68280335791817
 20
48.61349477331863
 10
65.7222148834902
 20
48.58426519384873
 10
65.764301631587
 20
48.559039367825825
 10
65.80865828381745
 20
48.53806023374435
 10
65.85485766137276
 20
48.52152983213389
 10
65.90245483899193
 20
48.50960735979839
 10
65.95099142983521
 20
48.502407636663904
 10
66.0
 20
48.5
 10
66.04900857016479
 20
48.502407636663904
 10
66.09754516100807
 20
48.50960735979839
 10
66.14514233862724
 20
48.52152983213389
 10
66.19134171618255
 20
48.53806023374435
 10
66.235698368413
 20
48.559039367825825
 10
66.2777851165098
 20
48.58426519384873
 10
66.31719664208183
 20
48.61349477331863
 10
66.35355339059328
 20
48.64644660940672
 10
66.38650522668136
 20
48.682803357918175
 10
66.41573480615128
 20
48.722214883490196
 10
66.44096063217418
 20
48.764301631587
 10
66.46193976625564
 20
48.80865828381746
 10
66.4784701678661
 20
48.85485766137277
 10
66.49039264020162
 20
48.902454838991936
 10
66.4975923633361
 20
48.95099142983522
 10
66.5
 20
49.0
 10
66.4975923633361
 20
49.04900857016478
  0
LWPOLYLINE
  5
53
330
17
100
AcDbEntity
  8
ENGRAVE
100
AcDbPolyline
 90
5
 70
1
 10
3.25
 20
12.6
 10
3.25
 20
13.799999999999999
 10
3.0
 20
13.799999999999999
 10
3.0
 20
12.6
 10
3.25
 20
12.6
  0
LWPOLYLINE
  5
54
330
17
100
AcDbEntity
  8
ENGRAVE
100
AcDbPolyline
 90
5
 70
1
 10
15.25
 20
12.6
 10
15.25
 20
13.799999999999999
 10
15.0
 20
13.799999999999999
 10
15.0
 20
12.6
 10
15.25
 20
12.6
  0
LWPOLYLINE
  5
55
330
17
100
AcDbEntity
  8
ENGRAVE
100
AcDbPolyline
 90
5
 70
1
 10
15.85
 20
12.6
 10
15.85
 20
13.799999999999999
 10
15.6
 20
13.799999999999999
 10
15.6
 20
12.6
 10
15.85
 20
12.6
  0
LWPOLYLINE
  5
56
330
17
100
AcDbEntity
  8
ENGRAVE
100
AcDbPolyline
 90
5
 70
1
 10
27.25
 20
12.6
 10
27.25
 20
13.799999999999999
 10
27.0
 20
13.799999999999999
 10
27.0
 20
12.6
 10
27.25
 20
12.6
  0
LWPOLYLINE
  5
57
330
17
100
AcDbEntity
  8
ENGRAVE
100
AcDbPolyline
 90
5
 70
1
 10
27.85
 20
12.6
 10
27.85
 20
13.799999999999999
 10
27.6
 20
13.799999999999999
 10
27.6
 20
12.6
 10
27.85
 20
12.6
  0
LWPOLYLINE
  5
58
330
17
100
AcDbEntity
  8
ENGRAVE
100
AcDbPolyline
 90
5
 70
1
 10
28.45
 20
12.6
 10
28.45
 20
13.799999999999999
 10
28.2
 20
13.799999999999999
 10
28.2
 20
12.6
 10
28.45
 20
12.6
  0
LWPOLYLINE
  5
59
330
17
100
AcDbEntity
  8
ENGRAVE
100
AcDbPolyline
 90
5
 70
1
 10
39.25
 20
12.6
 10
39.25
 20
13.799999999999999
 10
39.0
 20
13.799999999999999
 10
39.0
 20
12.6
 10
39.25
 20
12.6
  0
LWPOLYLINE
  5
5A
330
17
100
AcDbEntity
  8
ENGRAVE
100
AcDbPolyline
 90
5
 70
1
 10
39.85
 20
12.6
 10
39.85
 20
13.799999999999999
 10
39.6
 20
13.799999999999999
 10
39.6
 20
12.6
 10
39.85
 20
12.6
  0
LWPOLYLINE
  5
5B
330
17
100
AcDbEntity
  8
ENGRAVE
100
AcDbPolyline
 90
5
 70
1
 10
40.45
 20
12.6
 10
40.45
 20
13.799999999999999
 10
40.2
 20
13.799999999999999
 10
40.2
 20
12.6
 10
40.45
 20
12.6
  0
LWPOLYLINE
  5
5C
330
17
100
AcDbEntity
  8
ENGRAVE
100
AcDbPolyline
 90
5
 70
1
 10
41.05
 20
12.6
 10
41.05
 20
13.799999999999999
 10
40.8
 20
13.799999999999999
 10
40.8
 20
12.6
 10
41.05
 20
12.6
  0
LWPOLYLINE
  5
5D
330
17
100
AcDbEntity
  8
ENGRAVE
100
AcDbPolyline
 90
5
 70
1
 10
51.25
 20
12.6
 10
51.25
 20
13.799999999999999
 10
51.0
 20
13.799999999999999
 10
51.0
 20
12.6
 10
51.25
 20
12.6
  0
LWPOLYLINE
  5
5E
330
17
100
AcDbEntity
  8
ENGRAVE
100
AcDbPolyline
 90
5
 70
1
 10
51.85
 20
12.6
 10
51.85
 20
13.799999999999999
 10
51.6
 20
13.799999999999999
 10
51.6
 20
12.6
 10
51.85
 20
12.6
  0
LWPOLYLINE
  5
5F
330
17
100
AcDbEntity
  8
ENGRAVE
100
AcDbPolyline
 90
5
 70
1
 10
52.45
 20
12.6
 10
52.45
 20
13.799999999999999
 10
52.2
 20
13.799999999999999
 10
52.2
 20
12.6
 10
52.45
 20
12.6
  0
LWPOLYLINE
  5
60
330
17
100
AcDbEntity
  8
ENGRAVE
100
AcDbPolyline
 90
5
 70
1
 10
53.05
 20
12.6
 10
53.05
 20
13.799999999999999
 10
52.8
 20
13.799999999999999
 10
52.8
 20
12.6
 10
53.05
 20
12.6
  0
LWPOLYLINE
  5
61
330
17
100
AcDbEntity
  8
ENGRAVE
100
AcDbPolyline
 90
5
 70
1
 10
53.65
 20
12.6
 10
53.65
 20
13.799999999999999
 10
53.4
 20
13.799999999999999
 10
53.4
 20
12.6
 10
53.65
 20
12.6
  0
LWPOLYLINE
  5
62
330
17
100
AcDbEntity
  8
ENGRAVE
100
AcDbPolyline
 90
5
 70
1
 10
63.25
 20
12.6
 10
63.25
 20
13.799999999999999
 10
63.0
 20
13.799999999999999
 10
63.0
 20
12.6
 10
63.25
 20
12.6
  0
LWPOLYLINE
  5
63
330
17
100
AcDbEntity
  8
ENGRAVE
100
AcDbPolyline
 90
5
 70
1
 10
63.85
 20
12.6
 10
63.85
 20
13.799999999999999
 10
63.6
 20
13.799999999999999
 10
63.6
 20
12.6
 10
63.85
 20
12.6
  0
LWPOLYLINE
  5
64
330
17
100
AcDbEntity
  8
ENGRAVE
100
AcDbPolyline
 90
5
 70
1
 10
64.45
 20
12.6
 10
64.45
 20
13.799999999999999
 10
64.2
 20
13.799999999999999
 10
64.2
 20
12.6
 10
64.45
 20
12.6
  0
LWPOLYLINE
  5
65
330
17
100
AcDbEntity
  8
ENGRAVE
100
AcDbPolyline
 90
5
 70
1
 10
65.05
 20
12.6
 10
65.05
 20
13.799999999999999
 10
64.8
 20
13.799999999999999
 10
64.8
 20
12.6
 10
65.05
 20
12.6
  0
LWPOLYLINE
  5
66
330
17
100
AcDbEntity
  8
ENGRAVE
100
AcDbPolyline
 90
5
 70
1
 10
65.65
 20
12.6
 10
65.65
 20
13.799999999999999
 10
65.4
 20
13.799999999999999
 10
65.4
 20
12.6
 10
65.65
 20
12.6
  0
LWPOLYLINE
  5
67
330
17
100
AcDbEntity
  8
ENGRAVE
100
AcDbPolyline
 90
5
 70
1
 10
66.25
 20
12.6
 10
66.25
 20
13.799999999999999
 10
66.0
 20
13.799999999999999
 10
66.0
 20
12.6
 10
66.25
 20
12.6
  0
LWPOLYLINE
  5
68
330
17
100
AcDbEntity
  8
ENGRAVE
100
AcDbPolyline
 90
5
 70
1
 10
75.25
 20
12.6
 10
75.25
 20
13.799999999999999
 10
75.0
 20
13.799999999999999
 10
75.0
 20
12.6
 10
75.25
 20
12.6
  0
LWPOLYLINE
  5
69
330
17
100
AcDbEntity
  8
ENGRAVE
100
AcDbPolyline
 90
5
 70
1
 10
75.85
 20
12.6
 10
75.85
 20
13.799999999999999
 10
75.6
 20
13.799999999999999
 10
75.6
 20
12.6
 10
75.85
 20
12.6
  0
LWPOLYLINE
  5
6A
330
17
100
AcDbEntity
  8
ENGRAVE
100
AcDbPolyline
 90
5
 70
1
 10
76.45
 20
12.6
 10
76.45
 20
13.799999999999999
 10
76.2
 20
13.799999999999999
 10
76.2
 20
12.6
 10
76.45
 20
12.6
  0
LWPOLYLINE
  5
6B
330
17
100
AcDbEntity
  8
ENGRAVE
100
AcDbPolyline
 90
5
 70
1
 10
77.05
 20
12.6
 10
77.05
 20
13.799999999999999
 10
76.8
 20
13.799999999999999
 10
76.8
 20
12.6
 10
77.05
 20
12.6
  0
LWPOLYLINE
  5
6C
330
17
100
AcDbEntity
  8
ENGRAVE
100
AcDbPolyline
 90
5
 70
1
 10
77.65
 20
12.6
 10
77.65
 20
13.799999999999999
 10
77.4
 20
13.799999999999999
 10
77.4
 20
12.6
 10
77.65
 20
12.6
  0
LWPOLYLINE
  5
6D
330
17
100
AcDbEntity
  8
ENGRAVE
100
AcDbPolyline
 90
5
 70
1
 10
78.25
 20
12.6
 10
78.25
 20
13.799999999999999
 10
78.0
 20
13.799999999999999
 10
78.0
 20
12.6
 10
78.25
 20
12.6
  0
LWPOLYLINE
  5
6E
330
17
100
AcDbEntity
  8
ENGRAVE
100
AcDbPolyline
 90
5
 70
1
 10
78.85
 20
12.6
 10
78.85
 20
13.799999999999999
 10
78.6
 20
13.799999999999999
 10
78.6
 20
12.6
 10
78.85
 20
12.6
  0
LWPOLYLINE
  5
6F
330
17
100
AcDbEntity
  8
ENGRAVE
100
AcDbPolyline
 90
5
 70
1
 10
3.25
 20
26.6
 10
3.25
 20
27.8
 10
3.0
 20
27.8
 10
3.0
 20
26.6
 10
3.25
 20
26.6
  0
LWPOLYLINE
  5
70
330
17
100
AcDbEntity
  8
ENGRAVE
100
AcDbPolyline
 90
5
 70
1
 10
15.25
 20
26.6
 10
15.25
 20
27.8
 10
15.0
 20
27.8
 10
15.0
 20
26.6
 10
15.25
 20
26.6
  0
LWPOLYLINE
  5
71
330
17
100
AcDbEntity
  8
ENGRAVE
100
AcDbPolyline
 90
5
 70
1
 10
15.85
 20
26.6
 10
15.85
 20
27.8
 10
15.6
 20
27.8
 10
15.6
 20
26.6
 10
15.85
 20
26.6
  0
LWPOLYLINE
  5
72
330
17
100
AcDbEntity
  8
ENGRAVE
100
AcDbPolyline
 90
5
 70
1
 10
27.25
 20
26.6
 10
27.25
 20
27.8
 10
27.0
 20
27.8
 10
27.0
 20
26.6
 10
27.25
 20
26.6
  0
LWPOLYLINE
  5
73
330
17
100
AcDbEntity
  8
ENGRAVE
100
AcDbPolyline
 90
5
 70
1
 10
27.85
 20
26.6
 10
27.85
 20
27.8
 10
27.6
 20
27.8
 10
27.6
 20
26.6
 10
27.85
 20
26.6
  0
LWPOLYLINE
  5
74
330
17
100
AcDbEntity
  8
ENGRAVE
100
AcDbPolyline
 90
5
 70
1
 10
28.45
 20
26.6
 10
28.45
 20
27.8
 10
28.2
 20
27.8
 10
28.2
 20
26.6
 10
28.45
 20
26.6
  0
LWPOLYLINE
  5
75
330
17
100
AcDbEntity
  8
ENGRAVE
100
AcDbPolyline
 90
5
 70
1
 10
39.25
 20
26.6
 10
39.25
 20
27.8
 10
39.0
 20
27.8
 10
39.0
 20
26.6
 10
39.25
 20
26.6
  0
LWPOLYLINE
  5
76
330
17
100
AcDbEntity
  8
ENGRAVE
100
AcDbPolyline
 90
5
 70
1
 10
39.85
 20
26.6
 10
39.85
 20
27.8
 10
39.6
 20
27.8
 10
39.6
 20
26.6
 10
39.85
 20
26.6
  0
LWPOLYLINE
  5
77
330
17
100
AcDbEntity
  8
ENGRAVE
100
AcDbPolyline
 90
5
 70
1
 10
40.45
 20
26.6
 10
40.45
 20
27.8
 10
40.2
 20
27.8
 10
40.2
 20
26.6
 10
40.45
 20
26.6
  0
LWPOLYLINE
  5
78
330
17
100
AcDbEntity
  8
ENGRAVE
100
AcDbPolyline
 90
5
 70
1
 10
41.05
 20
26.6
 10
41.05
 20
27.8
 10
40.8
 20
27.8
 10
40.8
 20
26.6
 10
41.05
 20
26.6
  0
LWPOLYLINE
  5
79
330
17
100
AcDbEntity
  8
ENGRAVE
100
AcDbPolyline
 90
5
 70
1
 10
51.25
 20
26.6
 10
51.25
 20
27.8
 10
51.0
 20
27.8
 10
51.0
 20
26.6
 10
51.25
 20
26.6
  0
LWPOLYLINE
  5
7A
330
17
100
AcDbEntity
  8
ENGRAVE
100
AcDbPolyline
 90
5
 70
1
 10
51.85
 20
26.6
 10
51.85
 20
27.8
 10
51.6
 20
27.8
 10
51.6
 20
26.6
 10
51.85
 20
26.6
  0
LWPOLYLINE
  5
7B
330
17
100
AcDbEntity
  8
ENGRAVE
100
AcDbPolyline
 90
5
 70
1
 10
52.45
 20
26.6
 10
52.45
 20
27.8
 10
52.2
 20
27.8
 10
52.2
 20
26.6
 10
52.45
 20
26.6
  0
LWPOLYLINE
  5
7C
330
17
100
AcDbEntity
  8
ENGRAVE
100
AcDbPolyline
 90
5
 70
1
 10
53.05
 20
26.6
 10
53.05
 20
27.8
 10
52.8
 20
27.8
 10
52.8
 20
26.6
 10
53.05
 20
26.6
  0
LWPOLYLINE
  5
7D
330
17
100
AcDbEntity
  8
ENGRAVE
100
AcDbPolyline
 90
5
 70
1
 10
53.65
 20
26.6
 10
53.65
 20
27.8
 10
53.4
 20
27.8
 10
53.4
 20
26.6
 10
53.65
 20
26.6
  0
LWPOLYLINE
  5
7E
330
17
100
AcDbEntity
  8
ENGRAVE
100
AcDbPolyline
 90
5
 70
1
 10
63.25
 20
26.6
 10
63.25
 20
27.8
 10
63.0
 20
27.8
 10
63.0
 20
26.6
 10
63.25
 20
26.6
  0
LWPOLYLINE
  5
7F
330
17
100
AcDbEntity
  8
ENGRAVE
100
AcDbPolyline
 90
5
 70
1
 10
63.85
 20
26.6
 10
63.85
 20
27.8
 10
63.6
 20
27.8
 10
63.6
 20
26.6
 10
63.85
 20
26.6
  0
LWPOLYLINE
  5
80
330
17
100
AcDbEntity
  8
ENGRAVE
100
AcDbPolyline
 90
5
 70
1
 10
64.45
 20
26.6
 10
64.45
 20
27.8
 10
64.2
 20
27.8
 10
64.2
 20
26.6
 10
64.45
 20
26.6
  0
LWPOLYLINE
  5
81
330
17
100
AcDbEntity
  8
ENGRAVE
100
AcDbPolyline
 90
5
 70
1
 10
65.05
 20
26.6
 10
65.05
 20
27.8
 10
64.8
 20
27.8
 10
64.8
 20
26.6
 10
65.05
 20
26.6
  0
LWPOLYLINE
  5
82
330
17
100
AcDbEntity
  8
ENGRAVE
100
AcDbPolyline
 90
5
 70
1
 10
65.65
 20
26.6
 10
65.65
 20
27.8
 10
65.4
 20
27.8
 10
65.4
 20
26.6
 10
65.65
 20
26.6
  0
LWPOLYLINE
  5
83
330
17
100
AcDbEntity
  8
ENGRAVE
100
AcDbPolyline
 90
5
 70
1
 10
66.25
 20
26.6
 10
66.25
 20
27.8
 10
66.0
 20
27.8
 10
66.0
 20
26.6
 10
66.25
 20
26.6
  0
LWPOLYLINE
  5
84
330
17
100
AcDbEntity
  8
ENGRAVE
100
AcDbPolyline
 90
5
 70
1
 10
3.25
 20
40.6
 10
3.25
 20
41.800000000000004
 10
3.0
 20
41.800000000000004
 10
3.0
 20
40.6
 10
3.25
 20
40.6
  0
LWPOLYLINE
  5
85
330
17
100
AcDbEntity
  8
ENGRAVE
100
AcDbPolyline
 90
5
 70
1
 10
15.25
 20
40.6
 10
15.25
 20
41.800000000000004
 10
15.0
 20
41.800000000000004
 10
15.0
 20
40.6
 10
15.25
 20
40.6
  0
LWPOLYLINE
  5
86
330
17
100
AcDbEntity
  8
ENGRAVE
100
AcDbPolyline
 90
5
 70
1
 10
15.85
 20
40.6
 10
15.85
 20
41.800000000000004
 10
15.6
 20
41.800000000000004
 10
15.6
 20
40.6
 10
15.85
 20
40.6
  0
LWPOLYLINE
  5
87
330
17
100
AcDbEntity
  8
ENGRAVE
100
AcDbPolyline
 90
5
 70
1
 10
27.25
 20
40.6
 10
27.25
 20
41.800000000000004
 10
27.0
 20
41.800000000000004
 10
27.0
 20
40.6
 10
27.25
 20
40.6
  0
LWPOLYLINE
  5
88
330
17
100
AcDbEntity
  8
ENGRAVE
100
AcDbPolyline
 90
5
 70
1
 10
27.85
 20
40.6
 10
27.85
 20
41.800000000000004
 10
27.6
 20
41.800000000000004
 10
27.6
 20
40.6
 10
27.85
 20
40.6
  0
LWPOLYLINE
  5
89
330
17
100
AcDbEntity
  8
ENGRAVE
100
AcDbPolyline
 90
5
 70
1
 10
28.45
 20
40.6
 10
28.45
 20
41.800000000000004
 10
28.2
 20
41.800000000000004
 10
28.2
 20
40.6
 10
28.45
 20
40.6
  0
LWPOLYLINE
  5
8A
330
17
100
AcDbEntity
  8
ENGRAVE
100
AcDbPolyline
 90
5
 70
1
 10
39.25
 20
40.6
 10
39.25
 20
41.800000000000004
 10
39.0
 20
41.800000000000004
 10
39.0
 20
40.6
 10
39.25
 20
40.6
  0
LWPOLYLINE
  5
8B
330
17
100
AcDbEntity
  8
ENGRAVE
100
AcDbPolyline
 90
5
 70
1
 10
39.85
 20
40.6
 10
39.85
 20
41.800000000000004
 10
39.6
 20
41.800000000000004
 10
39.6
 20
40.6
 10
39.85
 20
40.6
  0
LWPOLYLINE
  5
8C
330
17
100
AcDbEntity
  8
ENGRAVE
100
AcDbPolyline
 90
5
 70
1
 10
40.45
 20
40.6
 10
40.45
 20
41.800000000000004
 10
40.2
 20
41.800000000000004
 10
40.2
 20
40.6
 10
40.45
 20
40.6
  0
LWPOLYLINE
  5
8D
330
17
100
AcDbEntity
  8
ENGRAVE
100
AcDbPolyline
 90
5
 70
1
 10
41.05
 20
40.6
 10
41.05
 20
41.800000000000004
 10
40.8
 20
41.800000000000004
 10
40.8
 20
40.6
 10
41.05
 20
40.6
  0
LWPOLYLINE
  5
8E
330
17
100
AcDbEntity
  8
ENGRAVE
100
AcDbPolyline
 90
5
 70
1
 10
51.25
 20
40.6
 10
51.25
 20
41.800000000000004
 10
51.0
 20
41.800000000000004
 10
51.0
 20
40.6
 10
51.25
 20
40.6
  0
LWPOLYLINE
  5
8F
330
17
100
AcDbEntity
  8
ENGRAVE
100
AcDbPolyline
 90
5
 70
1
 10
51.85
 20
40.6
 10
51.85
 20
41.800000000000004
 10
51.6
 20
41.800000000000004
 10
51.6
 20
40.6
 10
51.85
 20
40.6
  0
LWPOLYLINE
  5
90
330
17
100
AcDbEntity
  8
ENGRAVE
100
AcDbPolyline
 90
5
 70
1
 10
52.45
 20
40.6
 10
52.45
 20
41.800000000000004
 10
52.2
 20
41.800000000000004
 10
52.2
 20
40.6
 10
52.45
 20
40.6
  0
LWPOLYLINE
  5
91
330
17
100
AcDbEntity
  8
ENGRAVE
100
AcDbPolyline
 90
5
 70
1
 10
53.05
 20
40.6
 10
53.05
 20
41.800000000000004
 10
52.8
 20
41.800000000000004
 10
52.8
 20
40.6
 10
53.05
 20
40.6
  0
LWPOLYLINE
  5
92
330
17
100
AcDbEntity
  8
ENGRAVE
100
AcDbPolyline
 90
5
 70
1
 10
53.65
 20
40.6
 10
53.65
 20
41.800000000000004
 10
53.4
 20
41.800000000000004
 10
53.4
 20
40.6
 10
53.65
 20
40.6
  0
LWPOLYLINE
  5
93
330
17
100
AcDbEntity
  8
ENGRAVE
100
AcDbPolyline
 90
5
 70
1
 10
63.25
 20
40.6
 10
63.25
 20
41.800000000000004
 10
63.0
 20
41.800000000000004
 10
63.0
 20
40.6
 10
63.25
 20
40.6
  0
LWPOLYLINE
  5
94
330
17
100
AcDbEntity
  8
ENGRAVE
100
AcDbPolyline
 90
5
 70
1
 10
63.85
 20
40.6
 10
63.85
 20
41.800000000000004
 10
63.6
 20
41.800000000000004
 10
63.6
 20
40.6
 10
63.85
 20
40.6
  0
LWPOLYLINE
  5
95
330
17
100
AcDbEntity
  8
ENGRAVE
100
AcDbPolyline
 90
5
 70
1
 10
64.45
 20
40.6
 10
64.45
 20
41.800000000000004
 10
64.2
 20
41.800000000000004
 10
64.2
 20
40.6
 10
64.45
 20
40.6
  0
LWPOLYLINE
  5
96
330
17
100
AcDbEntity
  8
ENGRAVE
100
AcDbPolyline
 90
5
 70
1
 10
65.05
 20
40.6
 10
65.05
 20
41.800000000000004
 10
64.8
 20
41.800000000000004
 10
64.8
 20
40.6
 10
65.05
 20
40.6
  0
LWPOLYLINE
  5
97
330
17
100
AcDbEntity
  8
ENGRAVE
100
AcDbPolyline
 90
5
 70
1
 10
65.65
 20
40.6
 10
65.65
 20
41.800000000000004
 10
65.4
 20
41.800000000000004
 10
65.4
 20
40.6
 10
65.65
 20
40.6
  0
LWPOLYLINE
  5
98
330
17
100
AcDbEntity
  8
ENGRAVE
100
AcDbPolyline
 90
5
 70
1
 10
66.25
 20
40.6
 10
66.25
 20
41.800000000000004
 10
66.0
 20
41.800000000000004
 10
66.0
 20
40.6
 10
66.25
 20
40.6
  0
LWPOLYLINE
  5
99
330
17
100
AcDbEntity
  8
ENGRAVE
100
AcDbPolyline
 90
5
 70
1
 10
3.25
 20
54.6
 10
3.25
 20
55.800000000000004
 10
3.0
 20
55.800000000000004
 10
3.0
 20
54.6
 10
3.25
 20
54.6
  0
LWPOLYLINE
  5
9A
330
17
100
AcDbEntity
  8
ENGRAVE
100
AcDbPolyline
 90
5
 70
1
 10
15.25
 20
54.6
 10
15.25
 20
55.800000000000004
 10
15.0
 20
55.800000000000004
 10
15.0
 20
54.6
 10
15.25
 20
54.6
  0
LWPOLYLINE
  5
9B
330
17
100
AcDbEntity
  8
ENGRAVE
100
AcDbPolyline
 90
5
 70
1
 10
15.85
 20
54.6
 10
15.85
 20
55.800000000000004
 10
15.6
 20
55.800000000000004
 10
15.6
 20
54.6
 10
15.85
 20
54.6
  0
LWPOLYLINE
  5
9C
330
17
100
AcDbEntity
  8
ENGRAVE
100
AcDbPolyline
 90
5
 70
1
 10
27.25
 20
54.6
 10
27.25
 20
55.800000000000004
 10
27.0
 20
55.800000000000004
 10
27.0
 20
54.6
 10
27.25
 20
54.6
  0
LWPOLYLINE
  5
9D
330
17
100
AcDbEntity
  8
ENGRAVE
100
AcDbPolyline
 90
5
 70
1
 10
27.85
 20
54.6
 10
27.85
 20
55.800000000000004
 10
27.6
 20
55.800000000000004
 10
27.6
 20
54.6
 10
27.85
 20
54.6
  0
LWPOLYLINE
  5
9E
330
17
100
AcDbEntity
  8
ENGRAVE
100
AcDbPolyline
 90
5
 70
1
 10
28.45
 20
54.6
 10
28.45
 20
55.800000000000004
 10
28.2
 20
55.800000000000004
 10
28.2
 20
54.6
 10
28.45
 20
54.6
  0
LWPOLYLINE
  5
9F
330
17
100
AcDbEntity
  8
ENGRAVE
100
AcDbPolyline
 90
5
 70
1
 10
39.25
 20
54.6
 10
39.25
 20
55.800000000000004
 10
39.0
 20
55.800000000000004
 10
39.0
 20
54.6
 10
39.25
 20
54.6
  0
LWPOLYLINE
  5
A0
330
17
100
AcDbEntity
  8
ENGRAVE
100
AcDbPolyline
 90
5
 70
1
 10
39.85
 20
54.6
 10
39.85
 20
55.800000000000004
 10
39.6
 20
55.800000000000004
 10
39.6
 20
54.6
 10
39.85
 20
54.6
  0
LWPOLYLINE
  5
A1
330
17
100
AcDbEntity
  8
ENGRAVE
100
AcDbPolyline
 90
5
 70
1
 10
40.45
 20
54.6
 10
40.45
 20
55.800000000000004
 10
40.2
 20
55.800000000000004
 10
40.2
 20
54.6
 10
40.45
 20
54.6
  0
LWPOLYLINE
  5
A2
330
17
100
AcDbEntity
  8
ENGRAVE
100
AcDbPolyline
 90
5
 70
1
 10
41.05
 20
54.6
 10
41.05
 20
55.800000000000004
 10
40.8
 20
55.800000000000004
 10
40.8
 20
54.6
 10
41.05
 20
54.6
  0
LWPOLYLINE
  5
A3
330
17
100
AcDbEntity
  8
ENGRAVE
100
AcDbPolyline
 90
5
 70
1
 10
51.25
 20
54.6
 10
51.25
 20
55.800000000000004
 10
51.0
 20
55.800000000000004
 10
51.0
 20
54.6
 10
51.25
 20
54.6
  0
LWPOLYLINE
  5
A4
330
17
100
AcDbEntity
  8
ENGRAVE
100
AcDbPolyline
 90
5
 70
1
 10
51.85
 20
54.6
 10
51.85
 20
55.800000000000004
 10
51.6
 20
55.800000000000004
 10
51.6
 20
54.6
 10
51.85
 20
54.6
  0
LWPOLYLINE
  5
A5
330
17
100
AcDbEntity
  8
ENGRAVE
100
AcDbPolyline
 90
5
 70
1
 10
52.45
 20
54.6
 10
52.45
 20
55.800000000000004
 10
52.2
 20
55.800000000000004
 10
52.2
 20
54.6
 10
52.45
 20
54.6
  0
LWPOLYLINE
  5
A6
330
17
100
AcDbEntity
  8
ENGRAVE
100
AcDbPolyline
 90
5
 70
1
 10
53.05
 20
54.6
 10
53.05
 20
55.800000000000004
 10
52.8
 20
55.800000000000004
 10
52.8
 20
54.6
 10
53.05
 20
54.6
  0
LWPOLYLINE
  5
A7
330
17
100
AcDbEntity
  8
ENGRAVE
100
AcDbPolyline
 90
5
 70
1
 10
53.65
 20
54.6
 10
53.65
 20
55.800000000000004
 10
53.4
 20
55.800000000000004
 10
53.4
 20
54.6
 10
53.65
 20
54.6
  0
LWPOLYLINE
  5
A8
330
17
100
AcDbEntity
  8
ENGRAVE
100
AcDbPolyline
 90
5
 70
1
 10
63.25
 20
54.6
 10
63.25
 20
55.800000000000004
 10
63.0
 20
55.800000000000004
 10
63.0
 20
54.6
 10
63.25
 20
54.6
  0
LWPOLYLINE
  5
A9
330
17
100
AcDbEntity
  8
ENGRAVE
100
AcDbPolyline
 90
5
 70
1
 10
63.85
 20
54.6
 10
63.85
 20
55.800000000000004
 10
63.6
 20
55.800000000000004
 10
63.6
 20
54.6
 10
63.85
 20
54.6
  0
LWPOLYLINE
  5
AA
330
17
100
AcDbEntity
  8
ENGRAVE
100
AcDbPolyline
 90
5
 70
1
 10
64.45
 20
54.6
 10
64.45
 20
55.800000000000004
 10
64.2
 20
55.800000000000004
 10
64.2
 20
54.6
 10
64.45
 20
54.6
  0
LWPOLYLINE
  5
AB
330
17
100
AcDbEntity
  8
ENGRAVE
100
AcDbPolyline
 90
5
 70
1
 10
65.05
 20
54.6
 10
65.05
 20
55.800000000000004
 10
64.8
 20
55.800000000000004
 10
64.8
 20
54.6
 10
65.05
 20
54.6
  0
LWPOLYLINE
  5
AC
330
17
100
AcDbEntity
  8
ENGRAVE
100
AcDbPolyline
 90
5
 70
1
 10
65.65
 20
54.6
 10
65.65
 20
55.800000000000004
 10
65.4
 20
55.800000000000004
 10
65.4
 20
54.6
 10
65.65
 20
54.6
  0
LWPOLYLINE
  5
AD
330
17
100
AcDbEntity
  8
ENGRAVE
100
AcDbPolyline
 90
5
 70
1
 10
66.25
 20
54.6
 10
66.25
 20
55.800000000000004
 10
66.0
 20
55.800000000000004
 10
66.0
 20
54.6
 10
66.25
 20
54.6
  0
LWPOLYLINE
  5
AE
330
17
100
AcDbEntity
  8
ENGRAVE
100
AcDbPolyline
 90
5
 70
1
 10
9.0
 20
62.0
 10
9.0
 20
62.1
 10
3.0
 20
62.1
 10
3.0
 20
62.0
 10
9.0
 20
62.0
  0
LWPOLYLINE
  5
AF
330
17
100
AcDbEntity
  8
ENGRAVE
100
AcDbPolyline
 90
5
 70
1
 10
3.25
 20
68.6
 10
3.25
 20
69.8
 10
3.0
 20
69.8
 10
3.0
 20
68.6
 10
3.25
 20
68.6
  0
LWPOLYLINE
  5
B0
330
17
100
AcDbEntity
  8
ENGRAVE
100
AcDbPolyline
 90
5
 70
1
 10
21.0
 20
62.0
 10
21.0
 20
62.15
 10
15.0
 20
62.15
 10
15.0
 20
62.0
 10
21.0
 20
62.0
  0
LWPOLYLINE
  5
B1
330
17
100
AcDbEntity
  8
ENGRAVE
100
AcDbPolyline
 90
5
 70
1
 10
15.25
 20
68.6
 10
15.25
 20
69.8
 10
15.0
 20
69.8
 10
15.0
 20
68.6
 10
15.25
 20
68.6
  0
LWPOLYLINE
  5
B2
330
17
100
AcDbEntity
  8
ENGRAVE
100
AcDbPolyline
 90
5
 70
1
 10
15.85
 20
68.6
 10
15.85
 20
69.8
 10
15.6
 20
69.8
 10
15.6
 20
68.6
 10
15.85
 20
68.6
  0
LWPOLYLINE
  5
B3
330
17
100
AcDbEntity
  8
ENGRAVE
100
AcDbPolyline
 90
5
 70
1
 10
33.0
 20
62.0
 10
33.0
 20
62.2
 10
27.0
 20
62.2
 10
27.0
 20
62.0
 10
33.0
 20
62.0
  0
LWPOLYLINE
  5
B4
330
17
100
AcDbEntity
  8
ENGRAVE
100
AcDbPolyline
 90
5
 70
1
 10
27.25
 20
68.6
 10
27.25
 20
69.8
 10
27.0
 20
69.8
 10
27.0
 20
68.6
 10
27.25
 20
68.6
  0
LWPOLYLINE
  5
B5
330
17
100
AcDbEntity
  8
ENGRAVE
100
AcDbPolyline
 90
5
 70
1
 10
27.85
 20
68.6
 10
27.85
 20
69.8
 10
27.6
 20
69.8
 10
27.6
 20
68.6
 10
27.85
 20
68.6
  0
LWPOLYLINE
  5
B6
330
17
100
AcDbEntity
  8
ENGRAVE
100
AcDbPolyline
 90
5
 70
1
 10
28.45
 20
68.6
 10
28.45
 20
69.8
 10
28.2
 20
69.8
 10
28.2
 20
68.6
 10
28.45
 20
68.6
  0
LWPOLYLINE
  5
B7
330
17
100
AcDbEntity
  8
ENGRAVE
100
AcDbPolyline
 90
5
 70
1
 10
45.0
 20
62.0
 10
45.0
 20
62.3
 10
39.0
 20
62.3
 10
39.0
 20
62.0
 10
45.0
 20
62.0
  0
LWPOLYLINE
  5
B8
330
17
100
AcDbEntity
  8
ENGRAVE
100
AcDbPolyline
 90
5
 70
1
 10
39.25
 20
68.6
 10
39.25
 20
69.8
 10
39.0
 20
69.8
 10
39.0
 20
68.6
 10
39.25
 20
68.6
  0
LWPOLYLINE
  5
B9
330
17
100
AcDbEntity
  8
ENGRAVE
100
AcDbPolyline
 90
5
 70
1
 10
39.85
 20
68.6
 10
39.85
 20
69.8
 10
39.6
 20
69.8
 10
39.6
 20
68.6
 10
39.85
 20
68.6
  0
LWPOLYLINE
  5
BA
330
17
100
AcDbEntity
  8
ENGRAVE
100
AcDbPolyline
 90
5
 70
1
 10
40.45
 20
68.6
 10
40.45
 20
69.8
 10
40.2
 20
69.8
 10
40.2
 20
68.6
 10
40.45
 20
68.6
  0
LWPOLYLINE
  5
BB
330
17
100
AcDbEntity
  8
ENGRAVE
100
AcDbPolyline
 90
5
 70
1
 10
41.05
 20
68.6
 10
41.05
 20
69.8
 10
40.8
 20
69.8
 10
40.8
 20
68.6
 10
41.05
 20
68.6
  0
LWPOLYLINE
  5
BC
330
17
100
AcDbEntity
  8
ENGRAVE
100
AcDbPolyline
 90
5
 70
1
 10
57.0
 20
62.0
 10
57.0
 20
62.4
 10
51.0
 20
62.4
 10
51.0
 20
62.0
 10
57.0
 20
62.0
  0
LWPOLYLINE
  5
BD
330
17
100
AcDbEntity
  8
ENGRAVE
100
AcDbPolyline
 90
5
 70
1
 10
51.25
 20
68.6
 10
51.25
 20
69.8
 10
51.0
 20
69.8
 10
51.0
 20
68.6
 10
51.25
 20
68.6
  0
LWPOLYLINE
  5
BE
330
17
100
AcDbEntity
  8
ENGRAVE
100
AcDbPolyline
 90
5
 70
1
 10
51.85
 20
68.6
 10
51.85
 20
69.8
 10
51.6
 20
69.8
 10
51.6
 20
68.6
 10
51.85
 20
68.6
  0
LWPOLYLINE
  5
BF
330
17
100
AcDbEntity
  8
ENGRAVE
100
AcDbPolyline
 90
5
 70
1
 10
52.45
 20
68.6
 10
52.45
 20
69.8
 10
52.2
 20
69.8
 10
52.2
 20
68.6
 10
52.45
 20
68.6
  0
LWPOLYLINE
  5
C0
330
17
100
AcDbEntity
  8
ENGRAVE
100
AcDbPolyline
 90
5
 70
1
 10
53.05
 20
68.6
 10
53.05
 20
69.8
 10
52.8
 20
69.8
 10
52.8
 20
68.6
 10
53.05
 20
68.6
  0
LWPOLYLINE
  5
C1
330
17
100
AcDbEntity
  8
ENGRAVE
100
AcDbPolyline
 90
5
 70
1
 10
53.65
 20
68.6
 10
53.65
 20
69.8
 10
53.4
 20
69.8
 10
53.4
 20
68.6
 10
53.65
 20
68.6
  0
LWPOLYLINE
  5
C2
330
17
100
AcDbEntity
  8
ENGRAVE
100
AcDbPolyline
 90
5
 70
1
 10
69.0
 20
62.0
 10
69.0
 20
62.6
 10
63.0
 20
62.6
 10
63.0
 20
62.0
 10
69.0
 20
62.0
  0
LWPOLYLINE
  5
C3
330
17
100
AcDbEntity
  8
ENGRAVE
100
AcDbPolyline
 90
5
 70
1
 10
63.25
 20
68.6
 10
63.25
 20
69.8
 10
63.0
 20
69.8
 10
63.0
 20
68.6
 10
63.25
 20
68.6
  0
LWPOLYLINE
  5
C4
330
17
100
AcDbEntity
  8
ENGRAVE
100
AcDbPolyline
 90
5
 70
1
 10
63.85
 20
68.6
 10
63.85
 20
69.8
 10
63.6
 20
69.8
 10
63.6
 20
68.6
 10
63.85
 20
68.6
  0
LWPOLYLINE
  5
C5
330
17
100
AcDbEntity
  8
ENGRAVE
100
AcDbPolyline
 90
5
 70
1
 10
64.45
 20
68.6
 10
64.45
 20
69.8
 10
64.2
 20
69.8
 10
64.2
 20
68.6
 10
64.45
 20
68.6
  0
LWPOLYLINE
  5
C6
330
17
100
AcDbEntity
  8
ENGRAVE
100
AcDbPolyline
 90
5
 70
1
 10
65.05
 20
68.6
 10
65.05
 20
69.8
 10
64.8
 20
69.8
 10
64.8
 20
68.6
 10
65.05
 20
68.6
  0
LWPOLYLINE
  5
C7
330
17
100
AcDbEntity
  8
ENGRAVE
100
AcDbPolyline
 90
5
 70
1
 10
65.65
 20
68.6
 10
65.65
 20
69.8
 10
65.4
 20
69.8
 10
65.4
 20
68.6
 10
65.65
 20
68.6
  0
LWPOLYLINE
  5
C8
330
17
100
AcDbEntity
  8
ENGRAVE
100
AcDbPolyline
 90
5
 70
1
 10
66.25
 20
68.6
 10
66.25
 20
69.8
 10
66.0
 20
69.8
 10
66.0
 20
68.6
 10
66.25
 20
68.6
  0
ENDSEC
  0
SECTION
  2
OBJECTS
  0
DICTIONARY
  5
A
330
0
100
AcDbDictionary
280
0
281
1
  3
ACAD_COLOR
350
B
  3
ACAD_GROUP
350
C
  3
ACAD_LAYOUT
350
D
  3
ACAD_MATERIAL
350
E
  3
ACAD_MLEADERSTYLE
350
F
  3
ACAD_MLINESTYLE
350
10
  3
ACAD_PLOTSETTINGS
350
11
  3
ACAD_PLOTSTYLENAME
350
12
  3
ACAD_SCALELIST
350
14
  3
ACAD_TABLESTYLE
350
15
  3
ACAD_VISUALSTYLE
350
16
  3
EZDXF_META
350
2D
  0
DICTIONARY
  5
B
330
A
100
AcDbDictionary
280
0
281
1
  0
DICTIONARY
  5
C
330
A
100
AcDbDictionary
280
0
281
1
  0
DICTIONARY
  5
D
330
A
100
AcDbDictionary
280
0
281
1
  3
Model
350
1A
  3
Layout1
350
1E
  0
DICTIONARY
  5
E
330
A
100
AcDbDictionary
280
0
281
1
  3
ByBlock
350
1F
  3
ByLayer
350
20
  3
Global
350
21
  0
DICTIONARY
  5
F
330
A
100
AcDbDictionary
280
0
281
1
  3
Standard
350
2C
  0
DICTIONARY
  5
10
330
A
100
AcDbDictionary
280
0
281
1
  3
Standard
350
22
  0
DICTIONARY
  5
11
330
A
100
AcDbDictionary
280
0
281
1
  0
ACDBDICTIONARYWDFLT
  5
12
330
A
100
AcDbDictionary
280
0
281
1
  3
Normal
350
13
100
AcDbDictionaryWithDefault
340
13
  0
ACDBPLACEHOLDER
  5
13
330
12
  0
DICTIONARY
  5
14
330
A
100
AcDbDictionary
280
0
281
1
  0
DICTIONARY
  5
15
330
A
100
AcDbDictionary
280
0
281
1
  0
DICTIONARY
  5
16
330
A
100
AcDbDictionary
280
0
281
1
  0
LAYOUT
  5
1A
330
D
100
AcDbPlotSettings
  1

  4
A3
  6

 40
7.5
 41
20.0
 42
7.5
 43
20.0
 44
420.0
 45
297.0
 46
0.0
 47
0.0
 48
0.0
 49
0.0
140
0.0
141
0.0
142
1.0
143
1.0
 70
1024
 72
1
 73
0
 74
5
  7

 75
16
 76
0
 77
2
 78
300
147
1.0
148
0.0
149
0.0
100
AcDbLayout
  1
Model
 70
1
 71
0
 10
0.0
 20
0.0
 11
420.0
 21
297.0
 12
0.0
 22
0.0
 32
0.0
 14
1e+20
 24
1e+20
 34
1e+20
 15
-1e+20
 25
-1e+20
 35
-1e+20
146
0.0
 13
0.0
 23
0.0
 33
0.0
 16
1.0
 26
0.0
 36
0.0
 17
0.0
 27
1.0
 37
0.0
 76
1
330
17
  0
LAYOUT
  5
1E
330
D
100
AcDbPlotSettings
  1

  4
A3
  6

 40
7.5
 41
20.0
 42
7.5
 43
20.0
 44
420.0
 45
297.0
 46
0.0
 47
0.0
 48
0.0
 49
0.0
140
0.0
141
0.0
142
1.0
143
1.0
 70
0
 72
1
 73
0
 74
5
  7

 75
16
 76
0
 77
2
 78
300
147
1.0
148
0.0
149
0.0
100
AcDbLayout
  1
Layout1
 70
1
 71
1
 10
0.0
 20
0.0
 11
420.0
 21
297.0
 12
0.0
 22
0.0
 32
0.0
 14
1e+20
 24
1e+20
 34
1e+20
 15
-1e+20
 25
-1e+20
 35
-1e+20
146
0.0
 13
0.0
 23
0.0
 33
0.0
 16
1.0
 26
0.0
 36
0.0
 17
0.0
 27
1.0
 37
0.0
 76
1
330
1B
  0
MATERIAL
  5
1F
102
{ACAD_REACTORS
330
E
102
}
330
E
100
AcDbMaterial
  1
ByBlock
  2

 70
0
 40
1.0
 71
1
 41
1.0
 91
-1023410177
 42
1.0
 72
1
  3

 73
1
 74
1
 75
1
 44
0.5
 73
0
 45
1.0
 46
1.0
 77
1
  4

 78
1
 79
1
170
1
 48
1.0
171
1
  6

172
1
173
1
174
1
140
1.0
141
1.0
175
1
  7

176
1
177
1
178
1
143
1.0
179
1
  8

270
1
271
1
272
1
145
1.0
146
1.0
273
1
  9

274
1
275
1
276
1
 42
1.0
 72
1
  3

 73
1
 74
1
 75
1
 94
63
  0
MATERIAL
  5
20
102
{ACAD_REACTORS
330
E
102
}
330
E
100
AcDbMaterial
  1
ByLayer
  2

 70
0
 40
1.0
 71
1
 41
1.0
 91
-1023410177
 42
1.0
 72
1
  3

 73
1
 74
1
 75
1
 44
0.5
 73
0
 45
1.0
 46
1.0
 77
1
  4

 78
1
 79
1
170
1
 48
1.0
171
1
  6

172
1
173
1
174
1
140
1.0
141
1.0
175
1
  7

176
1
177
1
178
1
143
1.0
179
1
  8

270
1
271
1
272
1
145
1.0
146
1.0
273
1
  9

274
1
275
1
276
1
 42
1.0
 72
1
  3

 73
1
 74
1
 75
1
 94
63
  0
MATERIAL
  5
21
102
{ACAD_REACTORS
330
E
102
}
330
E
100
AcDbMaterial
  1
Global
  2

 70
0
 40
1.0
 71
1
 41
1.0
 91
-1023410177
 42
1.0
 72
1
  3

 73
1
 74
1
 75
1
 44
0.5
 73
0
 45
1.0
 46
1.0
 77
1
  4

 78
1
 79
1
170
1
 48
1.0
171
1
  6

172
1
173
1
174
1
140
1.0
141
1.0
175
1
  7

176
1
177
1
178
1
143
1.0
179
1
  8

270
1
271
1
272
1
145
1.0
146
1.0
273
1
  9

274
1
275
1
276
1
 42
1.0
 72
1
  3

 73
1
 74
1
 75
1
 94
63
  0
MLINESTYLE
  5
22
102
{ACAD_REACTORS
330
10
102
}
330
10
100
AcDbMlineStyle
  2
Standard
 70
0
  3

 62
256
 51
90.0
 52
90.0
 71
2
 49
0.5
 62
256
  6
BYLAYER
 49
-0.5
 62
256
  6
BYLAYER
  0
MLEADERSTYLE
  5
2C
102
{ACAD_REACTORS
330
F
102
}
330
F
100
AcDbMLeaderStyle
179
2
170
2
171
1
172
0
 90
2
 40
0.0
 41
0.0
173
1
 91
-1056964608
 92
-2
290
1
 42
2.0
291
1
 43
8.0
  3
Standard
 44
4.0
300

342
29
174
1
175
1
176
0
178
1
 93
-1056964608
 45
4.0
292
0
297
0
 46
4.0
 94
-1056964608
 47
1.0
 49
1.0
140
1.0
294
1
141
0.0
177
0
142
1.0
295
0
296
0
143
3.75
271
0
272
9
273
9
  0
DICTIONARY
  5
2D
330
A
100
AcDbDictionary
281
1
  3
CREATED_BY_EZDXF
350
2E
  3
WRITTEN_BY_EZDXF
350
CB
  0
DICTIONARYVAR
  5
2E
330
2D
100
DictionaryVariables
280
0
  1
1.3.3 @ 2026-09-02T13:08:39.506729+00:00
  0
DICTIONARYVAR
  5
CB
330
2D
100
DictionaryVariables
280
0
  1
1.3.3 @ 2026-09-02T13:08:39.525904+00:00
  0
ENDSEC
  0
EOF
