<svg xmlns="http://www.w3.org/2000/svg" viewBox="-2.3152000000000004 -2.3152000000000004 33.5704 16.3304" width="420" height="300"><rect x="-2.3152000000000004" y="-2.3152000000000004" width="33.5704" height="16.3304" fill="#fff"/><path d="M -1.5499,9.1216 L -1.55,9.1186 L -1.55,7.9334 L -1.5499,7.9304 L -1.5492,7.9268 L -1.5456,7.9261 L -1.5426,7.926 L -0.4549,7.926 L -0.4451,7.9255 L -0.4406,7.9251 L -0.4214,7.9213 L -0.4033,7.9137 L -0.387,7.9029 L -0.3731,7.889 L -0.3622,7.8727 L -0.3547,7.8546 L -0.3509,7.8354 L -0.3505,7.8309 L -0.35,7.8211 L -0.35,6.35 L -0.3519,6.3305 L -0.3576,6.3117 L -0.3669,6.2944 L -0.3793,6.2793 L -0.3944,6.2669 L -0.4117,6.2576 L -0.4305,6.2519 L -0.45,6.25 L -0.5409,6.25 L -0.5597,6.2518 L -0.5779,6.2571 L -0.5947,6.2657 L -0.6096,6.2773 L -0.622,6.2916 L -0.6316,6.3079 L -0.6379,6.3257 L -0.6745,6.4717 L -0.6759,6.4764 L -0.7453,6.6705 L -0.7472,6.675 L -0.8353,6.8613 L -0.8376,6.8656 L -0.9436,7.0424 L -0.9463,7.0464 L -1.0691,7.212 L -1.0722,7.2158 L -1.2106,7.3685 L -1.214,7.3719 L -1.3667,7.5103 L -1.3705,7.5134 L -1.5361,7.6362 L -1.5401,7.6389 L -1.7169,7.7449 L -1.7212,7.7472 L -1.9075,7.8353 L -1.912,7.8372 L -2.1061,7.9066 L -2.1108,7.908 L -2.3107,7.9581 L -2.3155,7.959 L -2.5193,7.9893 L -2.5242,7.9898 L -2.73,7.9999 L -2.735,7.9999 L -2.9408,7.9898 L -2.9457,7.9893 L -3.1495,7.959 L -3.1543,7.9581 L -3.3542,7.908 L -3.3589,7.9066 L -3.553,7.8372 L -3.5575,7.8353 L -3.7438,7.7472 L -3.7481,7.7449 L -3.9249,7.6389 L -3.9289,7.6362 L -4.0945,7.5134 L -4.0983,7.5103 L -4.251,7.3719 L -4.2544,7.3685 L -4.3928,7.2158 L -4.3959,7.212 L -4.5187,7.0464 L -4.5214,7.0424 L -4.6274,6.8656 L -4.6297,6.8613 L -4.7178,6.675 L -4.7197,6.6705 L -4.7891,6.4764 L -4.7905,6.4717 L -4.8406,6.2718 L -4.8415,6.267 L -4.8718,6.0632 L -4.8723,6.0583 L -4.8824,5.8524 L -4.8824,5.8475 L -4.8723,5.6417 L -4.8718,5.6368 L -4.8415,5.433 L -4.8406,5.4282 L -4.7905,5.2283 L -4.7891,5.2236 L -4.7197,5.0295 L -4.7178,5.025 L -4.6297,4.8387 L -4.6274,4.8344 L -4.5214,4.6576 L -4.5187,4.6535 L -4.3959,4.488 L -4.3928,4.4842 L -4.2544,4.3315 L -4.251,4.3281 L -4.0983,4.1897 L -4.0945,4.1866 L -3.9289,4.0638 L -3.9249,4.0611 L -3.7481,3.9551 L -3.7438,3.9528 L -3.5575,3.8647 L -3.553,3.8628 L -3.3589,3.7934 L -3.3542,3.792 L -3.1543,3.7419 L -3.1495,3.7409 L -2.9457,3.7107 L -2.9408,3.7102 L -2.735,3.7001 L -2.73,3.7001 L -2.5242,3.7102 L -2.5193,3.7107 L -2.3155,3.7409 L -2.3107,3.7419 L -2.1108,3.792 L -2.1061,3.7934 L -1.912,3.8628 L -1.9075,3.8647 L -1.7212,3.9528 L -1.7169,3.9551 L -1.5401,4.0611 L -1.5361,4.0638 L -1.3705,4.1866 L -1.3667,4.1897 L -1.214,4.3281 L -1.2106,4.3315 L -1.0722,4.4842 L -1.0691,4.488 L -0.9463,4.6535 L -0.9436,4.6576 L -0.8376,4.8344 L -0.8353,4.8387 L -0.7472,5.025 L -0.7453,5.0295 L -0.6759,5.2236 L -0.6745,5.2283 L -0.6379,5.3743 L -0.6316,5.3921 L -0.622,5.4084 L -0.6096,5.4227 L -0.5947,5.4343 L -0.5779,5.4429 L -0.5597,5.4482 L -0.5409,5.45 L -0.4411,5.45 L -0.422,5.4482 L -0.4037,5.4427 L -0.3867,5.4339 L -0.3717,5.4221 L -0.3593,5.4075 L -0.3498,5.3909 L -0.3437,5.3728 L -0.3411,5.3538 L -0.3403,5.3315 L -0.3402,5.3308 L -0.3398,5.3218 L -0.3397,5.3211 L -0.3279,5.143 L -0.3279,5.1423 L -0.3271,5.1326 L -0.327,5.1318 L -0.3105,4.9604 L -0.3104,4.9596 L -0.3092,4.9493 L -0.3091,4.9485 L -0.2879,4.7837 L -0.2878,4.7829 L -0.2861,4.7718 L -0.286,4.7709 L -0.26,4.6129 L -0.2599,4.612 L -0.2577,4.6001 L -0.2575,4.5992 L -0.2269,4.4478 L -0.2267,4.4468 L -0.2239,4.4342 L -0.2236,4.4333 L -0.1883,4.2884 L -0.1881,4.2879 L -0.188,4.2874 L -0.1879,4.2869 L -0.1844,4.274 L -0.1843,4.2735 L -0.1841,4.273 L -0.184,4.2724 L -0.1441,4.1349 L -0.1439,4.1344 L -0.1438,4.1338 L -0.1436,4.1333 L -0.1393,4.1196 L -0.1391,4.1191 L -0.139,4.1185 L -0.1388,4.118 L -0.0942,3.9872 L -0.094,3.9866 L -0.0938,3.986 L -0.0936,3.9854 L -0.0883,3.9711 L -0.0881,3.9705 L -0.0879,3.9699 L -0.0877,3.9694 L -0.0385,3.8452 L -0.0383,3.8446 L -0.038,3.844 L -0.0378,3.8434 L -0.0314,3.8284 L -0.0311,3.8278 L -0.0309,3.8272 L -0.0306,3.8266 L 0.0232,3.7091 L 0.0235,3.7085 L 0.0237,3.7079 L 0.024,3.7073 L 0.0314,3.6923 L 0.0317,3.6917 L 0.032,3.6911 L 0.0323,3.6905 L 0.0908,3.579 L 0.0911,3.5784 L 0.0914,3.5778 L 0.0918,3.5772 L 0.1,3.5624 L 0.1004,3.5618 L 0.1007,3.5612 L 0.101,3.5607 L 0.1642,3.4546 L 0.1646,3.454 L 0.1649,3.4534 L 0.1653,3.4528 L 0.1747,3.438 L 0.1751,3.4374 L 0.1755,3.4368 L 0.1758,3.4362 L 0.2437,3.3356 L 0.2441,3.335 L 0.2445,3.3344 L 0.2449,3.3338 L 0.2555,3.3191 L 0.2559,3.3186 L 0.2563,3.318 L 0.2568,3.3174 L 0.3293,3.2221 L 0.3298,3.2216 L 0.3302,3.221 L 0.3307,3.2204 L 0.3423,3.2061 L 0.3428,3.2055 L 0.3432,3.2049 L 0.3437,3.2044 L 0.421,3.1145 L 0.4215,3.1139 L 0.422,3.1134 L 0.4225,3.1128 L 0.4351,3.0989 L 0.4356,3.0984 L 0.4362,3.0978 L 0.4367,3.0973 L 0.5187,3.0128 L 0.5192,3.0122 L 0.5197,3.0117 L 0.5203,3.0112 L 0.5338,2.998 L 0.5344,2.9975 L 0.5349,2.997 L 0.5355,2.9964 L 0.6222,2.9173 L 0.6228,2.9168 L 0.6233,2.9163 L 0.6239,2.9158 L 0.6383,2.9034 L 0.6389,2.9029 L 0.6394,2.9024 L 0.64,2.9019 L 0.7315,2.8281 L 0.7321,2.8276 L 0.7327,2.8272 L 0.7333,2.8267 L 0.7483,2.8153 L 0.7489,2.8148 L 0.7495,2.8144 L 0.7501,2.814 L 0.8463,2.7454 L 0.8469,2.745 L 0.8475,2.7445 L 0.8482,2.7441 L 0.8636,2.7338 L 0.8642,2.7334 L 0.8649,2.733 L 0.8655,2.7326 L 0.9665,2.6693 L 0.9671,2.6689 L 0.9678,2.6686 L 0.9684,2.6682 L 0.9841,2.659 L 0.9847,2.6586 L 0.9854,2.6582 L 0.986,2.6579 L 1.0918,2.5999 L 1.0925,2.5996 L 1.0931,2.5992 L 1.0937,2.5989 L 1.1095,2.5908 L 1.1102,2.5905 L 1.1108,2.5902 L 1.1114,2.5899 L 1.2222,2.5372 L 1.2227,2.5369 L 1.2233,2.5366 L 1.2239,2.5364 L 1.2382,2.53 L 1.2388,2.5297 L 1.2394,2.5295 L 1.2399,2.5293 L 1.3555,2.4812 L 1.356,2.481 L 1.3565,2.4808 L 1.357,2.4806 L 1.3697,2.4756 L 1.3702,2.4754 L 1.3707,2.4752 L 1.3712,2.475 L 1.4914,2.4311 L 1.4919,2.4309 L 1.4924,2.4307 L 1.4929,2.4306 L 1.5052,2.4263 L 1.5057,2.4262 L 1.5062,2.426 L 1.5067,2.4258 L 1.6314,2.3861 L 1.6323,2.3858 L 1.6447,2.3821 L 1.6457,2.3818 L 1.7755,2.346 L 1.7764,2.3458 L 1.7884,2.3427 L 1.7893,2.3425 L 1.9236,2.3109 L 1.9245,2.3107 L 1.936,2.3082 L 1.9368,2.308 L 2.0757,2.2806 L 2.0765,2.2805 L 2.0875,2.2785 L 2.0884,2.2783 L 2.2317,2.2552 L 2.2326,2.255 L 2.2431,2.2535 L 2.2439,2.2534 L 2.3918,2.2344 L 2.3925,2.2343 L 2.4026,2.2332 L 2.4033,2.2331 L 2.5558,2.2183 L 2.5565,2.2183 L 2.566,2.2175 L 2.5668,2.2174 L 2.583,2.2163 L 2.5923,2.2153 L 2.5966,2.2146 L 2.6148,2.2098 L 2.6317,2.2018 L 2.6469,2.1907 L 2.6597,2.177 L 2.6697,2.1611 L 2.6766,2.1437 L 2.6801,2.1252 L 2.6805,2.1209 L 2.681,2.1115 L 2.681,1.9037 L 2.6805,1.8939 L 2.6801,1.8894 L 2.6762,1.8702 L 2.6687,1.8521 L 2.6578,1.8358 L 2.644,1.8219 L 2.6277,1.811 L 2.6096,1.8035 L 2.5903,1.7997 L 2.5859,1.7993 L 2.5761,1.7988 L 1.7739,1.7988 L 1.7715,1.7987 L 1.769,1.7986 L 1.7666,1.7984 L 1.7093,1.7928 L 1.7045,1.7921 L 1.6997,1.7911 L 1.6949,1.7899 L 1.6434,1.7743 L 1.6387,1.7726 L 1.6343,1.7708 L 1.6298,1.7687 L 1.5823,1.7433 L 1.5781,1.7407 L 1.574,1.738 L 1.5701,1.7351 L 1.5285,1.7009 L 1.5248,1.6976 L 1.5214,1.6942 L 1.5181,1.6906 L 1.4839,1.6489 L 1.481,1.645 L 1.4783,1.6409 L 1.4758,1.6367 L 1.4504,1.5892 L 1.4483,1.5848 L 1.4464,1.5803 L 1.4448,1.5757 L 1.4291,1.5241 L 1.4279,1.5194 L 1.427,1.5146 L 1.4263,1.5097 L 1.4206,1.4524 L 1.4204,1.45 L 1.4203,1.4476 L 1.4203,1.4451 L 1.4203,0.3537 L 1.4203,0.3512 L 1.4204,0.3488 L 1.4206,0.3463 L 1.4263,0.2891 L 1.427,0.2842 L 1.4279,0.2794 L 1.4291,0.2747 L 1.4448,0.2231 L 1.4464,0.2185 L 1.4483,0.214 L 1.4504,0.2096 L 1.4758,0.162 L 1.4783,0.1578 L 1.481,0.1538 L 1.4839,0.1499 L 1.5181,0.1082 L 1.5214,0.1046 L 1.5248,0.1011 L 1.5285,0.0978 L 1.5701,0.0637 L 1.574,0.0607 L 1.5781,0.058 L 1.5823,0.0555 L 1.6298,0.0301 L 1.6343,0.028 L 1.6387,0.0262 L 1.6434,0.0245 L 1.6949,0.0089 L 1.6997,0.0077 L 1.7045,0.0067 L 1.7093,0.006 L 1.7666,0.0004 L 1.769,0.0002 L 1.7715,0.0001 L 1.7739,0.0 L 2.7188,0.0 L 2.7213,0.0001 L 2.7237,0.0002 L 2.7262,0.0004 L 2.7835,0.006 L 2.7883,0.0067 L 2.7931,0.0077 L 2.7979,0.0089 L 2.8494,0.0245 L 2.854,0.0262 L 2.8585,0.028 L 2.863,0.0301 L 2.9105,0.0555 L 2.9147,0.058 L 2.9187,0.0607 L 2.9227,0.0637 L 2.9643,0.0978 L 2.968,0.1011 L 2.9714,0.1046 L 2.9747,0.1082 L 3.0023,0.1418 L 3.0089,0.1491 L 3.012,0.1522 L 3.0271,0.1646 L 3.0444,0.1739 L 3.0632,0.1796 L 3.0827,0.1815 L 3.1022,0.1796 L 3.121,0.1739 L 3.1382,0.1646 L 3.1534,0.1522 L 3.1565,0.1491 L 3.1631,0.1418 L 3.1907,0.1082 L 3.194,0.1046 L 3.1974,0.1011 L 3.201,0.0978 L 3.2427,0.0637 L 3.2466,0.0607 L 3.2507,0.058 L 3.2549,0.0555 L 3.3024,0.0301 L 3.3068,0.028 L 3.3113,0.0262 L 3.316,0.0245 L 3.3675,0.0089 L 3.3723,0.0077 L 3.377,0.0067 L 3.3819,0.006 L 3.4392,0.0004 L 3.4416,0.0002 L 3.4441,0.0001 L 3.4465,0.0 L 4.3914,0.0 L 4.3939,0.0001 L 4.3963,0.0002 L 4.3988,0.0004 L 4.4561,0.006 L 4.4609,0.0067 L 4.4657,0.0077 L 4.4704,0.0089 L 4.522,0.0245 L 4.5266,0.0262 L 4.5311,0.028 L 4.5356,0.0301 L 4.5831,0.0555 L 4.5873,0.058 L 4.5913,0.0607 L 4.5953,0.0637 L 4.6369,0.0978 L 4.6405,0.1011 L 4.644,0.1046 L 4.6473,0.1082 L 4.6815,0.1499 L 4.6844,0.1538 L 4.6871,0.1578 L 4.6896,0.162 L 4.715,0.2096 L 4.7171,0.214 L 4.719,0.2185 L 4.7206,0.2231 L 4.7363,0.2747 L 4.7374,0.2794 L 4.7384,0.2842 L 4.7391,0.2891 L 4.7448,0.3463 L 4.7449,0.3488 L 4.7451,0.3512 L 4.7451,0.3537 L 4.7451,1.4451 L 4.7451,1.4476 L 4.7449,1.45 L 4.7448,1.4524 L 4.7391,1.5097 L 4.7384,1.5146 L 4.7374,1.5194 L 4.7363,1.5241 L 4.7206,1.5757 L 4.719,1.5803 L 4.7171,1.5848 L 4.715,1.5892 L 4.6896,1.6367 L 4.6871,1.6409 L 4.6844,1.645 L 4.6815,1.6489 L 4.6473,1.6906 L 4.644,1.6942 L 4.6405,1.6976 L 4.6369,1.7009 L 4.5953,1.7351 L 4.5913,1.738 L 4.5873,1.7407 L 4.5831,1.7433 L 4.5356,1.7687 L 4.5311,1.7708 L 4.5266,1.7726 L 4.522,1.7743 L 4.4704,1.7899 L 4.4657,1.7911 L 4.4609,1.7921 L 4.4561,1.7928 L 4.3988,1.7984 L 4.3963,1.7986 L 4.3939,1.7987 L 4.3914,1.7988 L 3.5859,1.7988 L 3.5761,1.7993 L 3.5716,1.7997 L 3.5524,1.8035 L 3.5343,1.811 L 3.518,1.8219 L 3.5041,1.8358 L 3.4932,1.8521 L 3.4857,1.8702 L 3.4819,1.8894 L 3.4815,1.8939 L 3.481,1.9037 L 3.481,2.1118 L 3.4814,2.1212 L 3.4818,2.1255 L 3.4853,2.144 L 3.4922,2.1614 L 3.5023,2.1773 L 3.5151,2.191 L 3.5303,2.2021 L 3.5472,2.2101 L 3.5654,2.2148 L 3.5697,2.2155 L 3.579,2.2166 L 3.5906,2.2174 L 3.5914,2.2174 L 3.6009,2.2182 L 3.6016,2.2183 L 3.7551,2.233 L 3.7559,2.2331 L 3.7659,2.2342 L 3.7667,2.2343 L 3.9154,2.2533 L 3.9162,2.2534 L 3.9268,2.2549 L 3.9276,2.255 L 4.0715,2.2782 L 4.0724,2.2783 L 4.0835,2.2803 L 4.0843,2.2805 L 4.2235,2.3078 L 4.2244,2.308 L 4.236,2.3105 L 4.2369,2.3107 L 4.3713,2.3423 L 4.3722,2.3425 L 4.3843,2.3456 L 4.3852,2.3459 L 4.515,2.3817 L 4.5155,2.3818 L 4.5159,2.3819 L 4.5164,2.3821 L 4.5286,2.3857 L 4.529,2.3858 L 4.5295,2.386 L 4.53,2.3861 L 4.6543,2.4259 L 4.6548,2.4261 L 4.6553,2.4263 L 4.6559,2.4264 L 4.6684,2.4308 L 4.6689,2.4309 L 4.6694,2.4311 L 4.6699,2.4313 L 4.7895,2.4752 L 4.79,2.4754 L 4.7905,2.4756 L 4.791,2.4758 L 4.804,2.4809 L 4.8045,2.4811 L 4.805,2.4813 L 4.8055,2.4815 L 4.9202,2.5296 L 4.9208,2.5299 L 4.9214,2.5301 L 4.9219,2.5304 L 4.9364,2.5369 L 4.937,2.5371 L 4.9376,2.5374 L 4.9382,2.5377 L 5.0479,2.5904 L 5.0486,2.5907 L 5.0492,2.591 L 5.0498,2.5913 L 5.0656,2.5995 L 5.0663,2.5998 L 5.0669,2.6002 L 5.0675,2.6005 L 5.1725,2.6585 L 5.1731,2.6588 L 5.1737,2.6592 L 5.1744,2.6596 L 5.1901,2.6688 L 5.1907,2.6692 L 5.1913,2.6696 L 5.1919,2.67 L 5.2922,2.7332 L 5.2928,2.7336 L 5.2934,2.734 L 5.294,2.7345 L 5.3094,2.7448 L 5.31,2.7453 L 5.3107,2.7457 L 5.3113,2.7461 L 5.4068,2.8147 L 5.4074,2.8151 L 5.408,2.8156 L 5.4086,2.816 L 5.4235,2.8274 L 5.4241,2.8279 L 5.4247,2.8284 L 5.4253,2.8288 L 5.5161,2.9027 L 5.5167,2.9032 L 5.5173,2.9037 L 5.5179,2.9041 L 5.5321,2.9165 L 5.5327,2.917 L 5.5333,2.9175 L 5.5338,2.918 L 5.62,2.9972 L 5.6206,2.9977 L 5.6211,2.9982 L 5.6216,2.9987 L 5.6351,3.0119 L 5.6357,3.0124 L 5.6362,3.013 L 5.6367,3.0135 L 5.7182,3.098 L 5.7188,3.0986 L 5.7193,3.0991 L 5.7198,3.0996 L 5.7323,3.1134 L 5.7328,3.114 L 5.7333,3.1146 L 5.7338,3.1151 L 5.8107,3.205 L 5.8111,3.2056 L 5.8116,3.2061 L 5.8121,3.2067 L 5.8236,3.221 L 5.824,3.2215 L 5.8245,3.2221 L 5.8249,3.2227 L 5.8972,3.3179 L 5.8976,3.3185 L 5.8981,3.3191 L 5.8985,3.3197 L 5.9089,3.3342 L 5.9093,3.3348 L 5.9097,3.3354 L 5.9101,3.336 L 5.9778,3.4367 L 5.9782,3.4372 L 5.9785,3.4378 L 5.9789,3.4384 L 5.9882,3.4531 L 5.9886,3.4537 L 5.9889,3.4543 L 5.9893,3.4548 L 6.0523,3.5609 L 6.0527,3.5615 L 6.053,3.5621 L 6.0533,3.5627 L 6.0615,3.5773 L 6.0618,3.5779 L 6.0621,3.5785 L 6.0625,3.5791 L 6.1209,3.6906 L 6.1212,3.6912 L 6.1215,3.6917 L 6.1218,3.6923 L 6.1291,3.7073 L 6.1294,3.7079 L 6.1297,3.7085 L 6.13,3.7091 L 6.1838,3.8266 L 6.184,3.8272 L 6.1843,3.8278 L 6.1846,3.8284 L 6.191,3.8434 L 6.1912,3.844 L 6.1915,3.8446 L 6.1917,3.8452 L 6.2409,3.9694 L 6.2411,3.9699 L 6.2413,3.9705 L 6.2415,3.9711 L 6.2468,3.9854 L 6.247,3.986 L 6.2472,3.9866 L 6.2474,3.9872 L 6.2919,4.118 L 6.2921,4.1185 L 6.2923,4.1191 L 6.2925,4.1196 L 6.2968,4.1333 L 6.2969,4.1338 L 6.2971,4.1344 L 6.2973,4.1349 L 6.3372,4.2724 L 6.3373,4.273 L 6.3374,4.2735 L 6.3376,4.274 L 6.341,4.2869 L 6.3412,4.2874 L 6.3413,4.2879 L 6.3414,4.2884 L 6.3766,4.4325 L 6.3769,4.4335 L 6.3797,4.4461 L 6.3799,4.4471 L 6.4106,4.5985 L 6.4108,4.5995 L 6.4129,4.6113 L 6.4131,4.6122 L 6.4391,4.7703 L 6.4392,4.7712 L 6.4408,4.7823 L 6.4409,4.7831 L 6.4622,4.9479 L 6.4623,4.9487 L 6.4635,4.9591 L 6.4636,4.9598 L 6.4801,5.1313 L 6.4802,5.132 L 6.481,5.1417 L 6.481,5.1425 L 6.4929,5.3206 L 6.4929,5.3213 L 6.4934,5.3303 L 6.4934,5.331 L 6.5005,5.5158 L 6.5005,5.5164 L 6.5007,5.5249 L 6.5008,5.5255 L 6.5031,5.7169 L 6.5032,5.7212 L 6.5032,7.8211 L 6.5036,7.8309 L 6.5041,7.8354 L 6.5079,7.8546 L 6.5154,7.8727 L 6.5263,7.889 L 6.5402,7.9029 L 6.5565,7.9137 L 6.5746,7.9213 L 6.5938,7.9251 L 6.5983,7.9255 L 6.6081,7.926 L 7.5784,7.926 L 7.5882,7.9255 L 7.5927,7.9251 L 7.6119,7.9213 L 7.63,7.9137 L 7.6463,7.9029 L 7.6602,7.889 L 7.671,7.8727 L 7.6785,7.8546 L 7.6824,7.8354 L 7.6828,7.8309 L 7.6833,7.8211 L 7.6833,2.5512 L 7.6834,2.5488 L 7.6835,2.5463 L 7.6837,2.5439 L 7.6893,2.4866 L 7.69,2.4818 L 7.691,2.477 L 7.6922,2.4722 L 7.7078,2.4207 L 7.7095,2.4161 L 7.7113,2.4116 L 7.7134,2.4071 L 7.7388,2.3596 L 7.7413,2.3554 L 7.744,2.3514 L 7.747,2.3474 L 7.7811,2.3058 L 7.7844,2.3021 L 7.7879,2.2987 L 7.7915,2.2954 L 7.8332,2.2612 L 7.8371,2.2583 L 7.8411,2.2556 L 7.8453,2.2531 L 7.8929,2.2277 L 7.8973,2.2256 L 7.9018,2.2237 L 7.9064,2.2221 L 7.958,2.2064 L 7.9627,2.2052 L 7.9675,2.2043 L 7.9723,2.2036 L 8.0296,2.1979 L 8.0321,2.1977 L 8.0345,2.1976 L 8.037,2.1976 L 8.9819,2.1976 L 8.9843,2.1976 L 8.9868,2.1977 L 8.9892,2.1979 L 9.0465,2.2036 L 9.0514,2.2043 L 9.0561,2.2052 L 9.0609,2.2064 L 9.1125,2.2221 L 9.1171,2.2237 L 9.1216,2.2256 L 9.126,2.2277 L 9.1735,2.2531 L 9.1777,2.2556 L 9.1818,2.2583 L 9.1857,2.2612 L 9.2274,2.2954 L 9.231,2.2987 L 9.2344,2.3021 L 9.2377,2.3058 L 9.2719,2.3474 L 9.2748,2.3514 L 9.2775,2.3554 L 9.2801,2.3596 L 9.3055,2.4071 L 9.3076,2.4116 L 9.3094,2.4161 L 9.3111,2.4207 L 9.3267,2.4722 L 9.3279,2.477 L 9.3288,2.4818 L 9.3296,2.4866 L 9.3352,2.5439 L 9.3354,2.5463 L 9.3355,2.5488 L 9.3356,2.5512 L 9.3356,7.8211 L 9.3361,7.8309 L 9.3365,7.8354 L 9.3403,7.8546 L 9.3478,7.8727 L 9.3587,7.889 L 9.3726,7.9029 L 9.3889,7.9137 L 9.407,7.9213 L 9.4262,7.9251 L 9.4307,7.9255 L 9.4405,7.926 L 10.3024,7.926 L 10.3126,7.9255 L 10.317,7.925 L 10.337,7.9209 L 10.3558,7.9127 L 10.3725,7.9009 L 10.3864,7.886 L 10.3971,7.8686 L 10.4039,7.8493 L 10.4067,7.8291 L 10.4054,7.8087 L 10.3999,7.789 L 10.3983,7.7849 L 10.394,7.7756 L 10.3575,7.7048 L 10.3572,7.7042 L 10.3569,7.7035 L 10.3565,7.7029 L 10.3488,7.6867 L 10.3485,7.6861 L 10.3482,7.6854 L 10.3479,7.6848 L 10.3017,7.5812 L 10.3014,7.5805 L 10.3011,7.5799 L 10.3009,7.5793 L 10.2943,7.5634 L 10.2941,7.5628 L 10.2938,7.5621 L 10.2936,7.5615 L 10.2521,7.4528 L 10.2519,7.4523 L 10.2517,7.4517 L 10.2515,7.4512 L 10.2466,7.4375 L 10.2464,7.437 L 10.2463,7.4364 L 10.2461,7.4359 L 10.2086,7.322 L 10.2083,7.321 L 10.2047,7.3093 L 10.2044,7.3084 L 10.1699,7.1885 L 10.1697,7.1877 L 10.1667,7.1765 L 10.1665,7.1757 L 10.1352,7.0506 L 10.135,7.0498 L 10.1326,7.0393 L 10.1324,7.0385 L 10.1045,6.9082 L 10.1043,6.9074 L 10.1023,6.8975 L 10.1022,6.8968 L 10.0775,6.7613 L 10.0774,6.7605 L 10.0758,6.7512 L 10.0757,6.7505 L 10.0543,6.6098 L 10.0542,6.6091 L 10.053,6.6003 L 10.0529,6.5996 L 10.0348,6.4537 L 10.0347,6.453 L 10.0338,6.4447 L 10.0337,6.4441 L 10.0189,6.293 L 10.0189,6.2924 L 10.0182,6.2846 L 10.0181,6.284 L 10.0066,6.1277 L 10.0066,6.1271 L 10.0061,6.1197 L 10.0061,6.1192 L 9.9978,5.9577 L 9.9978,5.9571 L 9.9975,5.9502 L 9.9975,5.9497 L 9.9926,5.7829 L 9.9925,5.7824 L 9.9924,5.7759 L 9.9924,5.7754 L 9.9908,5.604 L 9.9907,5.597 L 9.9908,5.5966 L 9.9924,5.4244 L 9.9924,5.4239 L 9.9925,5.4174 L 9.9925,5.4169 L 9.9975,5.2502 L 9.9975,5.2496 L 9.9978,5.2427 L 9.9978,5.2422 L 10.006,5.0807 L 10.0061,5.0801 L 10.0065,5.0728 L 10.0066,5.0722 L 10.0181,4.9159 L 10.0181,4.9153 L 10.0188,4.9075 L 10.0189,4.9069 L 10.0337,4.7558 L 10.0337,4.7552 L 10.0347,4.7469 L 10.0347,4.7462 L 10.0528,4.6004 L 10.0529,4.5997 L 10.0541,4.5908 L 10.0542,4.5902 L 10.0756,4.4495 L 10.0757,4.4488 L 10.0773,4.4394 L 10.0774,4.4387 L 10.1021,4.3033 L 10.1022,4.3025 L 10.1042,4.2925 L 10.1043,4.2918 L 10.1323,4.1616 L 10.1325,4.1607 L 10.1349,4.1502 L 10.1351,4.1494 L 10.1663,4.0244 L 10.1665,4.0235 L 10.1695,4.0124 L 10.1697,4.0115 L 10.2042,3.8917 L 10.2045,3.8908 L 10.2081,3.8791 L 10.2084,3.8782 L 10.2461,3.7636 L 10.2463,3.763 L 10.2464,3.7625 L 10.2466,3.7619 L 10.2515,3.7483 L 10.2517,3.7477 L 10.2519,3.7472 L 10.2521,3.7467 L 10.2936,3.638 L 10.2938,3.6373 L 10.2941,3.6367 L 10.2943,3.636 L 10.3009,3.6202 L 10.3011,3.6195 L 10.3014,3.6189 L 10.3017,3.6183 L 10.3479,3.5146 L 10.3482,3.514 L 10.3485,3.5133 L 10.3488,3.5127 L 10.3565,3.4965 L 10.3569,3.4959 L 10.3572,3.4953 L 10.3575,3.4946 L 10.4085,3.3959 L 10.4088,3.3953 L 10.4092,3.3946 L 10.4095,3.394 L 10.4186,3.3777 L 10.4189,3.377 L 10.4193,3.3764 L 10.4197,3.3758 L 10.4754,3.282 L 10.4758,3.2813 L 10.4762,3.2807 L 10.4766,3.28 L 10.4869,3.2638 L 10.4873,3.2632 L 10.4877,3.2626 L 10.4882,3.2619 L 10.5487,3.173 L 10.5491,3.1724 L 10.5496,3.1718 L 10.55,3.1711 L 10.5616,3.1552 L 10.562,3.1546 L 10.5625,3.154 L 10.563,3.1534 L 10.6283,3.0693 L 10.6288,3.0687 L 10.6293,3.0681 L 10.6298,3.0675 L 10.6425,3.0521 L 10.643,3.0515 L 10.6435,3.0509 L 10.6441,3.0503 L 10.7141,2.9711 L 10.7146,2.9705 L 10.7152,2.9699 L 10.7157,2.9694 L 10.7295,2.9547 L 10.7301,2.9541 L 10.7307,2.9536 L 10.7312,2.953 L 10.8061,2.8787 L 10.8066,2.8781 L 10.8072,2.8775 L 10.8078,2.877 L 10.8225,2.8633 L 10.8231,2.8627 L 10.8237,2.8622 L 10.8243,2.8617 L 10.904,2.7921 L 10.9046,2.7916 L 10.9052,2.7911 L 10.9058,2.7906 L 10.9212,2.7779 L 10.9218,2.7774 L 10.9225,2.777 L 10.9231,2.7765 L 11.0076,2.7117 L 11.0082,2.7112 L 11.0089,2.7107 L 11.0095,2.7103 L 11.0254,2.6989 L 11.0261,2.6984 L 11.0267,2.698 L 11.0273,2.6975 L 11.1167,2.6375 L 11.1174,2.6371 L 11.118,2.6367 L 11.1187,2.6363 L 11.1349,2.6261 L 11.1355,2.6257 L 11.1362,2.6253 L 11.1368,2.6249 L 11.2311,2.5697 L 11.2317,2.5693 L 11.2324,2.5689 L 11.2331,2.5686 L 11.2498,2.5594 L 11.2504,2.5591 L 11.2511,2.5587 L 11.2518,2.5584 L 11.3517,2.5077 L 11.3524,2.5074 L 11.353,2.5071 L 11.3537,2.5068 L 11.3703,2.4989 L 11.371,2.4986 L 11.3717,2.4983 L 11.3724,2.498 L 11.4789,2.4517 L 11.4795,2.4514 L 11.4801,2.4512 L 11.4808,2.4509 L 11.4967,2.4445 L 11.4973,2.4442 L 11.498,2.444 L 11.4986,2.4437 L 11.6117,2.4017 L 11.6123,2.4015 L 11.6129,2.4013 L 11.6135,2.4011 L 11.6286,2.396 L 11.6292,2.3958 L 11.6298,2.3956 L 11.6304,2.3954 L 11.7502,2.3577 L 11.7507,2.3575 L 11.7513,2.3574 L 11.7519,2.3572 L 11.766,2.3531 L 11.7666,2.353 L 11.7672,2.3528 L 11.7677,2.3526 L 11.8942,2.3194 L 11.8947,2.3192 L 11.8952,2.3191 L 11.8957,2.319 L 11.909,2.3158 L 11.9095,2.3157 L 11.9101,2.3156 L 11.9106,2.3154 L 12.0437,2.2866 L 12.0441,2.2865 L 12.0446,2.2864 L 12.0451,2.2863 L 12.0575,2.2838 L 12.058,2.2837 L 12.0585,2.2836 L 12.059,2.2836 L 12.1986,2.2591 L 12.1995,2.259 L 12.2115,2.2571 L 12.2124,2.257 L 12.3592,2.2368 L 12.36,2.2367 L 12.3711,2.2354 L 12.372,2.2353 L 12.5254,2.2197 L 12.5262,2.2196 L 12.5365,2.2187 L 12.5373,2.2186 L 12.6972,2.2074 L 12.698,2.2074 L 12.7075,2.2069 L 12.7083,2.2068 L 12.8748,2.2001 L 12.8755,2.2001 L 12.8844,2.1998 L 12.8851,2.1998 L 13.0582,2.1976 L 13.0626,2.1976 L 15.5868,2.1976 L 15.5892,2.1976 L 15.5917,2.1977 L 15.5941,2.1979 L 15.6514,2.2036 L 15.6563,2.2043 L 15.661,2.2052 L 15.6658,2.2064 L 15.7173,2.2221 L 15.722,2.2237 L 15.7265,2.2256 L 15.7309,2.2277 L 15.7784,2.2531 L 15.7826,2.2556 L 15.7867,2.2583 L 15.7906,2.2612 L 15.8322,2.2954 L 15.8359,2.2987 L 15.8393,2.3021 L 15.8426,2.3058 L 15.8768,2.3474 L 15.8797,2.3514 L 15.8824,2.3554 L 15.8849,2.3596 L 15.9103,2.4071 L 15.9124,2.4116 L 15.9143,2.4161 L 15.916,2.4207 L 15.9316,2.4722 L 15.9328,2.477 L 15.9337,2.4818 L 15.9345,2.4866 L 15.9401,2.5439 L 15.9403,2.5463 L 15.9404,2.5488 L 15.9405,2.5512 L 15.9405,7.3302 L 15.9409,7.34 L 15.9414,7.3444 L 15.9452,7.3637 L 15.9527,7.3818 L 15.9636,7.3981 L 15.9775,7.4119 L 15.9938,7.4228 L 16.0119,7.4303 L 16.0311,7.4342 L 16.0356,7.4346 L 16.0454,7.4351 L 17.7726,7.4351 L 17.7824,7.4346 L 17.7869,7.4342 L 17.8061,7.4303 L 17.8242,7.4228 L 17.8405,7.4119 L 17.8544,7.3981 L 17.8653,7.3818 L 17.8728,7.3637 L 17.8766,7.3444 L 17.877,7.34 L 17.8775,7.3302 L 17.8775,2.5512 L 17.8776,2.5488 L 17.8777,2.5463 L 17.8779,2.5439 L 17.8835,2.4866 L 17.8842,2.4818 L 17.8852,2.477 L 17.8864,2.4722 L 17.902,2.4207 L 17.9037,2.4161 L 17.9055,2.4116 L 17.9076,2.4071 L 17.933,2.3596 L 17.9356,2.3554 L 17.9383,2.3514 L 17.9412,2.3474 L 17.9754,2.3058 L 17.9787,2.3021 L 17.9821,2.2987 L 17.9857,2.2954 L 18.0274,2.2612 L 18.0313,2.2583 L 18.0354,2.2556 L 18.0396,2.2531 L 18.0871,2.2277 L 18.0915,2.2256 L 18.096,2.2237 L 18.1006,2.2221 L 18.1522,2.2064 L 18.1569,2.2052 L 18.1617,2.2043 L 18.1666,2.2036 L 18.2239,2.1979 L 18.2263,2.1977 L 18.2288,2.1976 L 18.2312,2.1976 L 18.6749,2.1976 L 18.6847,2.1971 L 18.6892,2.1966 L 18.7084,2.1928 L 18.7265,2.1853 L 18.7428,2.1744 L 18.7567,2.1606 L 18.7676,2.1443 L 18.7751,2.1261 L 18.7789,2.1069 L 18.7793,2.1024 L 18.7798,2.0926 L 18.7798,1.9037 L 18.7793,1.8939 L 18.7789,1.8894 L 18.7751,1.8702 L 18.7676,1.8521 L 18.7567,1.8358 L 18.7428,1.8219 L 18.7265,1.811 L 18.7084,1.8035 L 18.6892,1.7997 L 18.6847,1.7993 L 18.6749,1.7988 L 18.2312,1.7988 L 18.2288,1.7987 L 18.2263,1.7986 L 18.2239,1.7984 L 18.1666,1.7928 L 18.1617,1.7921 L 18.1569,1.7911 L 18.1522,1.7899 L 18.1006,1.7743 L 18.096,1.7726 L 18.0915,1.7708 L 18.0871,1.7687 L 18.0396,1.7433 L 18.0354,1.7407 L 18.0313,1.738 L 18.0274,1.7351 L 17.9857,1.7009 L 17.9821,1.6976 L 17.9787,1.6942 L 17.9754,1.6906 L 17.9412,1.6489 L 17.9383,1.645 L 17.9356,1.6409 L 17.933,1.6367 L 17.9076,1.5892 L 17.9055,1.5848 L 17.9037,1.5803 L 17.902,1.5757 L 17.8864,1.5241 L 17.8852,1.5194 L 17.8842,1.5146 L 17.8835,1.5097 L 17.8779,1.4524 L 17.8777,1.45 L 17.8776,1.4476 L 17.8775,1.4451 L 17.8775,0.3537 L 17.8776,0.3512 L 17.8777,0.3488 L 17.8779,0.3463 L 17.8835,0.2891 L 17.8842,0.2842 L 17.8852,0.2794 L 17.8864,0.2747 L 17.902,0.2231 L 17.9037,0.2185 L 17.9055,0.214 L 17.9076,0.2096 L 17.933,0.162 L 17.9356,0.1578 L 17.9383,0.1538 L 17.9412,0.1499 L 17.9754,0.1082 L 17.9787,0.1046 L 17.9821,0.1011 L 17.9857,0.0978 L 18.0274,0.0637 L 18.0313,0.0607 L 18.0354,0.058 L 18.0396,0.0555 L 18.0871,0.0301 L 18.0915,0.028 L 18.096,0.0262 L 18.1006,0.0245 L 18.1522,0.0089 L 18.1569,0.0077 L 18.1617,0.0067 L 18.1666,0.006 L 18.2239,0.0004 L 18.2263,0.0002 L 18.2288,0.0001 L 18.2312,0.0 L 19.1761,0.0 L 19.1786,0.0001 L 19.181,0.0002 L 19.1835,0.0004 L 19.2407,0.006 L 19.2456,0.0067 L 19.2504,0.0077 L 19.2551,0.0089 L 19.3067,0.0245 L 19.3113,0.0262 L 19.3158,0.028 L 19.3202,0.0301 L 19.3678,0.0555 L 19.372,0.058 L 19.376,0.0607 L 19.3799,0.0637 L 19.4216,0.0978 L 19.4252,0.1011 L 19.4287,0.1046 L 19.432,0.1082 L 19.4661,0.1499 L 19.4691,0.1538 L 19.4718,0.1578 L 19.4743,0.162 L 19.4997,0.2096 L 19.5018,0.214 L 19.5036,0.2185 L 19.5053,0.2231 L 19.5209,0.2747 L 19.5221,0.2794 L 19.5231,0.2842 L 19.5238,0.2891 L 19.5294,0.3463 L 19.5296,0.3488 L 19.5297,0.3512 L 19.5298,0.3537 L 19.5298,1.4451 L 19.5297,1.4476 L 19.5296,1.45 L 19.5294,1.4524 L 19.5238,1.5097 L 19.5231,1.5146 L 19.5221,1.5194 L 19.5203,1.5265 L 19.5204,1.5265 L 19.5188,1.5329 L 19.5178,1.5376 L 19.5159,1.5571 L 19.5178,1.5766 L 19.5235,1.5954 L 19.5253,1.5998 L 19.5295,1.6086 L 19.5459,1.6392 L 19.548,1.6436 L 19.5498,1.6481 L 19.5515,1.6528 L 19.57,1.7137 L 19.5712,1.7184 L 19.5721,1.7232 L 19.5728,1.7281 L 19.5794,1.7951 L 19.5796,1.7976 L 19.5797,1.8 L 19.5798,1.8025 L 19.5798,2.1939 L 19.5797,2.1963 L 19.5796,2.1988 L 19.5794,2.2012 L 19.5728,2.2683 L 19.5721,2.2731 L 19.5712,2.2779 L 19.57,2.2826 L 19.5515,2.3436 L 19.5498,2.3482 L 19.548,2.3527 L 19.5459,2.3571 L 19.5295,2.3877 L 19.5253,2.3966 L 19.5235,2.401 L 19.5178,2.4197 L 19.5159,2.4392 L 19.5178,2.4587 L 19.5188,2.4634 L 19.5204,2.4698 L 19.5203,2.4698 L 19.5221,2.477 L 19.5231,2.4818 L 19.5238,2.4866 L 19.5294,2.5439 L 19.5296,2.5463 L 19.5297,2.5488 L 19.5298,2.5512 L 19.5298,5.35 L 19.5317,5.3695 L 19.5374,5.3883 L 19.5467,5.4056 L 19.5591,5.4207 L 19.5742,5.4331 L 19.5915,5.4424 L 19.6103,5.4481 L 19.6298,5.45 L 19.7207,5.45 L 19.7395,5.4482 L 19.7577,5.4429 L 19.7745,5.4343 L 19.7894,5.4227 L 19.8018,5.4084 L 19.8114,5.3921 L 19.8177,5.3743 L 19.8543,5.2283 L 19.8557,5.2236 L 19.9251,5.0295 L 19.927,5.025 L 20.0151,4.8387 L 20.0174,4.8344 L 20.1234,4.6576 L 20.1261,4.6535 L 20.2489,4.488 L 20.252,4.4842 L 20.3904,4.3315 L 20.3938,4.3281 L 20.5465,4.1897 L 20.5503,4.1866 L 20.7159,4.0638 L 20.7199,4.0611 L 20.8967,3.9551 L 20.901,3.9528 L 21.0873,3.8647 L 21.0918,3.8628 L 21.2859,3.7934 L 21.2906,3.792 L 21.4905,3.7419 L 21.4953,3.7409 L 21.6991,3.7107 L 21.704,3.7102 L 21.9098,3.7001 L 21.9148,3.7001 L 22.1206,3.7102 L 22.1255,3.7107 L 22.3293,3.7409 L 22.3341,3.7419 L 22.534,3.792 L 22.5387,3.7934 L 22.7328,3.8628 L 22.7373,3.8647 L 22.9236,3.9528 L 22.9279,3.9551 L 23.1047,4.0611 L 23.1087,4.0638 L 23.2743,4.1866 L 23.2781,4.1897 L 23.4308,4.3281 L 23.4342,4.3315 L 23.5726,4.4842 L 23.5757,4.488 L 23.6985,4.6535 L 23.7012,4.6576 L 23.8072,4.8344 L 23.8095,4.8387 L 23.8976,5.025 L 23.8995,5.0295 L 23.9689,5.2236 L 23.9703,5.2283 L 24.0204,5.4282 L 24.0213,5.433 L 24.0516,5.6368 L 24.0521,5.6417 L 24.0622,5.8475 L 24.0622,5.8524 L 24.0521,6.0583 L 24.0516,6.0632 L 24.0213,6.267 L 24.0204,6.2718 L 23.9703,6.4717 L 23.9689,6.4764 L 23.8995,6.6705 L 23.8976,6.675 L 23.8095,6.8613 L 23.8072,6.8656 L 23.7012,7.0424 L 23.6985,7.0464 L 23.5757,7.212 L 23.5726,7.2158 L 23.4342,7.3685 L 23.4308,7.3719 L 23.2781,7.5103 L 23.2743,7.5134 L 23.1087,7.6362 L 23.1047,7.6389 L 22.9279,7.7449 L 22.9236,7.7472 L 22.7373,7.8353 L 22.7328,7.8372 L 22.5387,7.9066 L 22.534,7.908 L 22.3341,7.9581 L 22.3293,7.959 L 22.1255,7.9893 L 22.1206,7.9898 L 21.9148,7.9999 L 21.9098,7.9999 L 21.704,7.9898 L 21.6991,7.9893 L 21.4953,7.959 L 21.4905,7.9581 L 21.2906,7.908 L 21.2859,7.9066 L 21.0918,7.8372 L 21.0873,7.8353 L 20.901,7.7472 L 20.8967,7.7449 L 20.7199,7.6389 L 20.7159,7.6362 L 20.5503,7.5134 L 20.5465,7.5103 L 20.3938,7.3719 L 20.3904,7.3685 L 20.252,7.2158 L 20.2489,7.212 L 20.1261,7.0464 L 20.1234,7.0424 L 20.0174,6.8656 L 20.0151,6.8613 L 19.927,6.675 L 19.9251,6.6705 L 19.8557,6.4764 L 19.8543,6.4717 L 19.8177,6.3257 L 19.8114,6.3079 L 19.8018,6.2916 L 19.7894,6.2773 L 19.7745,6.2657 L 19.7577,6.2571 L 19.7395,6.2518 L 19.7207,6.25 L 19.6298,6.25 L 19.6103,6.2519 L 19.5915,6.2576 L 19.5742,6.2669 L 19.5591,6.2793 L 19.5467,6.2944 L 19.5374,6.3117 L 19.5317,6.3305 L 19.5298,6.35 L 19.5298,7.8211 L 19.5303,7.8309 L 19.5307,7.8354 L 19.5345,7.8546 L 19.542,7.8727 L 19.5529,7.889 L 19.5668,7.9029 L 19.5831,7.9137 L 19.6012,7.9213 L 19.6204,7.9251 L 19.6249,7.9255 L 19.6347,7.926 L 20.7224,7.926 L 20.7254,7.9261 L 20.729,7.9268 L 20.7297,7.9304 L 20.7298,7.9334 L 20.7298,9.1186 L 20.7297,9.1216 L 20.729,9.1251 L 20.7254,9.1259 L 20.7224,9.126 L 16.0357,9.126 L 16.0263,9.1264 L 16.0219,9.1269 L 16.0034,9.1304 L 15.9859,9.1374 L 15.9699,9.1475 L 15.9562,9.1604 L 15.9452,9.1757 L 15.9372,9.1928 L 15.9325,9.2111 L 15.9319,9.2154 L 15.9309,9.2248 L 15.9302,9.2356 L 15.9302,9.2361 L 15.9301,9.2366 L 15.9301,9.2371 L 15.929,9.2502 L 15.929,9.2507 L 15.929,9.2513 L 15.9289,9.2518 L 15.917,9.3687 L 15.9169,9.3693 L 15.9169,9.3698 L 15.9168,9.3704 L 15.9151,9.384 L 15.915,9.3845 L 15.915,9.385 L 15.9149,9.3856 L 15.8982,9.4994 L 15.8981,9.5 L 15.898,9.5005 L 15.898,9.5011 L 15.8956,9.5151 L 15.8955,9.5157 L 15.8954,9.5163 L 15.8953,9.5168 L 15.8738,9.6275 L 15.8737,9.6281 L 15.8736,9.6287 L 15.8735,9.6293 L 15.8703,9.6437 L 15.8702,9.6443 L 15.8701,9.6449 L 15.8699,9.6455 L 15.8438,9.7531 L 15.8436,9.7537 L 15.8435,9.7543 L 15.8433,9.7548 L 15.8394,9.7696 L 15.8392,9.7702 L 15.839,9.7708 L 15.8389,9.7714 L 15.808,9.8759 L 15.8078,9.8765 L 15.8076,9.8771 L 15.8074,9.8777 L 15.8026,9.8926 L 15.8024,9.8932 L 15.8022,9.8938 L 15.802,9.8944 L 15.7664,9.9959 L 15.7662,9.9965 L 15.7659,9.9971 L 15.7657,9.9977 L 15.76,10.0127 L 15.7598,10.0133 L 15.7595,10.0139 L 15.7593,10.0145 L 15.719,10.1129 L 15.7187,10.1135 L 15.7184,10.1141 L 15.7182,10.1147 L 15.7116,10.1297 L 15.7113,10.1303 L 15.711,10.1309 L 15.7108,10.1315 L 15.6657,10.2269 L 15.6654,10.2275 L 15.6651,10.2281 L 15.6648,10.2287 L 15.6573,10.2435 L 15.657,10.2441 L 15.6567,10.2447 L 15.6564,10.2452 L 15.6066,10.3376 L 15.6063,10.3382 L 15.606,10.3388 L 15.6057,10.3394 L 15.5973,10.3538 L 15.597,10.3544 L 15.5967,10.355 L 15.5963,10.3556 L 15.5418,10.4449 L 15.5414,10.4455 L 15.5411,10.446 L 15.5407,10.4466 L 15.5318,10.4604 L 15.5315,10.4609 L 15.5311,10.4615 L 15.5307,10.462 L 15.4718,10.5481 L 15.4714,10.5486 L 15.471,10.5492 L 15.4706,10.5497 L 15.4611,10.5628 L 15.4607,10.5634 L 15.4604,10.5639 L 15.46,10.5644 L 15.3969,10.6469 L 15.3965,10.6474 L 15.3961,10.6479 L 15.3957,10.6484 L 15.3855,10.6612 L 15.3851,10.6617 L 15.3846,10.6622 L 15.3842,10.6627 L 15.3171,10.7416 L 15.3167,10.7421 L 15.3163,10.7426 L 15.3158,10.7431 L 15.3049,10.7552 L 15.3045,10.7557 L 15.304,10.7562 L 15.3036,10.7567 L 15.2324,10.832 L 15.2319,10.8325 L 15.2315,10.833 L 15.231,10.8334 L 15.2195,10.845 L 15.2191,10.8454 L 15.2186,10.8459 L 15.2181,10.8464 L 15.1429,10.9181 L 15.1424,10.9186 L 15.1419,10.919 L 15.1414,10.9195 L 15.1295,10.9303 L 15.129,10.9307 L 15.1285,10.9312 L 15.128,10.9316 L 15.0486,10.9998 L 15.0482,11.0002 L 15.0477,11.0006 L 15.0472,11.001 L 15.0348,11.0111 L 15.0344,11.0115 L 15.0339,11.0119 L 15.0334,11.0123 L 14.9499,11.077 L 14.9494,11.0773 L 14.9489,11.0777 L 14.9484,11.0781 L 14.9358,11.0873 L 14.9353,11.0877 L 14.9348,11.0881 L 14.9343,11.0884 L 14.8466,11.1495 L 14.8461,11.1499 L 14.8456,11.1502 L 14.8451,11.1506 L 14.8324,11.159 L 14.8319,11.1593 L 14.8314,11.1596 L 14.8309,11.16 L 14.7391,11.2176 L 14.7386,11.2179 L 14.7381,11.2182 L 14.7376,11.2185 L 14.7249,11.226 L 14.7244,11.2263 L 14.7239,11.2266 L 14.7233,11.2269 L 14.6274,11.281 L 14.6269,11.2813 L 14.6264,11.2815 L 14.6259,11.2818 L 14.6133,11.2885 L 14.6128,11.2888 L 14.6122,11.2891 L 14.6117,11.2893 L 14.5116,11.3398 L 14.5111,11.3401 L 14.5106,11.3403 L 14.5101,11.3406 L 14.4977,11.3465 L 14.4972,11.3467 L 14.4967,11.347 L 14.4962,11.3472 L 14.3919,11.3941 L 14.3914,11.3944 L 14.3909,11.3946 L 14.3904,11.3948 L 14.3783,11.3999 L 14.3778,11.4001 L 14.3773,11.4003 L 14.3768,11.4005 L 14.2686,11.4438 L 14.2682,11.444 L 14.2677,11.4442 L 14.2672,11.4444 L 14.2554,11.4489 L 14.2549,11.449 L 14.2544,11.4492 L 14.2539,11.4494 L 14.1423,11.4889 L 14.1413,11.4892 L 14.1293,11.4932 L 14.1283,11.4935 L 14.0125,11.5295 L 14.0116,11.5298 L 13.9998,11.5332 L 13.9989,11.5334 L 13.8795,11.5656 L 13.8786,11.5659 L 13.8672,11.5687 L 13.8663,11.569 L 13.7433,11.5974 L 13.7424,11.5976 L 13.7314,11.5999 L 13.7305,11.6001 L 13.6039,11.6247 L 13.6031,11.6249 L 13.5924,11.6268 L 13.5916,11.6269 L 13.4614,11.6478 L 13.4606,11.6479 L 13.4503,11.6494 L 13.4496,11.6495 L 13.3158,11.6666 L 13.315,11.6667 L 13.3051,11.6678 L 13.3044,11.6679 L 13.167,11.6811 L 13.1663,11.6812 L 13.1568,11.682 L 13.1561,11.682 L 13.0151,11.6915 L 13.0144,11.6916 L 13.0054,11.6921 L 13.0047,11.6921 L 12.8602,11.6978 L 12.8595,11.6978 L 12.8509,11.698 L 12.8502,11.6981 L 12.7024,11.7 L 12.6954,11.7 L 12.6949,11.7 L 12.6237,11.6995 L 12.6193,11.6995 L 12.5468,11.6981 L 12.5425,11.698 L 12.4693,11.6956 L 12.4651,11.6955 L 12.3911,11.6922 L 12.387,11.692 L 12.3123,11.6878 L 12.3082,11.6876 L 12.2327,11.6824 L 12.2288,11.6822 L 12.1525,11.6761 L 12.1486,11.6758 L 12.0717,11.6688 L 12.0679,11.6684 L 11.9901,11.6605 L 11.9864,11.6601 L 11.9079,11.6512 L 11.9043,11.6508 L 11.825,11.641 L 11.8214,11.6405 L 11.7413,11.6298 L 11.7384,11.6294 L 11.6573,11.6178 L 11.6549,11.6175 L 11.5726,11.6051 L 11.5703,11.6048 L 11.4867,11.5917 L 11.4845,11.5913 L 11.3996,11.5774 L 11.3975,11.5771 L 11.3114,11.5625 L 11.3093,11.5621 L 11.2219,11.5467 L 11.2199,11.5464 L 11.1312,11.5302 L 11.1293,11.5298 L 11.0393,11.5129 L 11.0374,11.5126 L 10.9462,11.4949 L 10.9444,11.4945 L 10.8519,11.4761 L 10.8501,11.4757 L 10.7564,11.4565 L 10.7547,11.4562 L 10.663,11.4369 L 10.6606,11.4363 L 10.6583,11.4357 L 10.656,11.435 L 10.6017,11.418 L 10.5971,11.4163 L 10.5927,11.4145 L 10.5884,11.4124 L 10.5416,11.3869 L 10.5375,11.3844 L 10.5335,11.3817 L 10.5296,11.3788 L 10.4886,11.3448 L 10.485,11.3416 L 10.4816,11.3381 L 10.4784,11.3345 L 10.4447,11.2933 L 10.4419,11.2894 L 10.4392,11.2854 L 10.4367,11.2813 L 10.4116,11.2343 L 10.4095,11.2299 L 10.4077,11.2255 L 10.4061,11.2209 L 10.3905,11.17 L 10.3893,11.1653 L 10.3884,11.1606 L 10.3876,11.1558 L 10.3822,11.1029 L 10.3819,11.098 L 10.3819,11.0932 L 10.3821,11.0884 L 10.3873,11.0318 L 10.3875,11.0293 L 10.3879,11.0269 L 10.3883,11.0246 L 10.5334,10.2625 L 10.5339,10.2602 L 10.5345,10.2579 L 10.5351,10.2556 L 10.5506,10.2023 L 10.5521,10.1979 L 10.5538,10.1935 L 10.5558,10.1892 L 10.5793,10.143 L 10.5817,10.1389 L 10.5842,10.1349 L 10.5869,10.1311 L 10.6188,10.0901 L 10.6218,10.0865 L 10.6251,10.0831 L 10.6285,10.0798 L 10.6674,10.0456 L 10.6711,10.0426 L 10.6749,10.0399 L 10.6789,10.0373 L 10.7236,10.011 L 10.7278,10.0088 L 10.732,10.0068 L 10.7364,10.005 L 10.7853,9.9876 L 10.7898,9.9862 L 10.7943,9.9851 L 10.799,9.9841 L 10.8502,9.9762 L 10.8549,9.9757 L 10.8596,9.9754 L 10.8643,9.9753 L 10.9197,9.9773 L 10.9221,9.9774 L 10.9244,9.9776 L 10.9268,9.9779 L 11.0289,9.9912 L 11.0292,9.9913 L 11.1313,10.0043 L 11.1316,10.0044 L 11.2306,10.0167 L 11.2309,10.0168 L 11.327,10.0285 L 11.3273,10.0285 L 11.4202,10.0395 L 11.4206,10.0396 L 11.5105,10.0499 L 11.5108,10.0499 L 11.5976,10.0596 L 11.598,10.0596 L 11.6818,10.0686 L 11.6822,10.0686 L 11.7628,10.0769 L 11.7632,10.0769 L 11.8407,10.0845 L 11.8412,10.0846 L 11.9155,10.0915 L 11.9161,10.0915 L 11.9874,10.0978 L 11.9879,10.0978 L 12.0569,10.1035 L 12.0574,10.1035 L 12.1246,10.1087 L 12.1251,10.1087 L 12.1904,10.1134 L 12.191,10.1134 L 12.2543,10.1175 L 12.2549,10.1176 L 12.3163,10.1212 L 12.3169,10.1213 L 12.3764,10.1244 L 12.3771,10.1245 L 12.4345,10.1271 L 12.4353,10.1271 L 12.4908,10.1293 L 12.4915,10.1293 L 12.545,10.131 L 12.5459,10.131 L 12.5973,10.1322 L 12.5982,10.1322 L 12.6477,10.1329 L 12.6486,10.1329 L 12.6934,10.1332 L 12.6945,10.1332 L 12.6956,10.1332 L 12.6966,10.1331 L 12.8477,10.1307 L 12.8495,10.1307 L 12.8512,10.1306 L 12.8529,10.1305 L 12.9922,10.1234 L 12.9941,10.1233 L 12.996,10.1232 L 12.9979,10.123 L 13.1278,10.1115 L 13.1299,10.1113 L 13.132,10.111 L 13.1341,10.1108 L 13.2545,10.0949 L 13.2567,10.0946 L 13.259,10.0943 L 13.2613,10.0939 L 13.372,10.0741 L 13.3745,10.0736 L 13.377,10.0731 L 13.3795,10.0726 L 13.4805,10.0492 L 13.4832,10.0485 L 13.4859,10.0478 L 13.4886,10.0471 L 13.5798,10.0205 L 13.5827,10.0196 L 13.5856,10.0187 L 13.5885,10.0177 L 13.6699,9.9885 L 13.6731,9.9873 L 13.6762,9.9861 L 13.6793,9.9848 L 13.7512,9.9534 L 13.7545,9.9519 L 13.7578,9.9503 L 13.7611,9.9486 L 13.8238,9.9156 L 13.8273,9.9137 L 13.8307,9.9117 L 13.8341,9.9097 L 13.8883,9.8754 L 13.8918,9.8731 L 13.8953,9.8707 L 13.8987,9.8682 L 13.9463,9.8322 L 13.9496,9.8296 L 13.9528,9.8269 L 13.956,9.8242 L 13.9996,9.7851 L 14.0025,9.7823 L 14.0054,9.7795 L 14.0082,9.7767 L 14.0479,9.7348 L 14.0507,9.7318 L 14.0534,9.7287 L 14.056,9.7255 L 14.0915,9.6814 L 14.094,9.6781 L 14.0964,9.6748 L 14.0988,9.6715 L 14.1306,9.6245 L 14.1328,9.621 L 14.135,9.6176 L 14.137,9.6141 L 14.1655,9.5635 L 14.1674,9.5599 L 14.1692,9.5564 L 14.171,9.5528 L 14.1963,9.4979 L 14.1979,9.4943 L 14.1994,9.4907 L 14.2008,9.4871 L 14.2231,9.4271 L 14.2243,9.4236 L 14.2254,9.4201 L 14.2265,9.4166 L 14.2455,9.3509 L 14.2464,9.3475 L 14.2473,9.3441 L 14.2481,9.3407 L 14.2635,9.2687 L 14.2641,9.2655 L 14.2647,9.2623 L 14.2653,9.259 L 14.2673,9.2452 L 14.2682,9.2357 L 14.2684,9.2314 L 14.2676,9.2124 L 14.2631,9.1939 L 14.2552,9.1765 L 14.2442,9.161 L 14.2305,9.1479 L 14.2144,9.1376 L 14.1968,9.1305 L 14.1781,9.1269 L 14.1738,9.1265 L 14.1643,9.126 L 9.4224,9.126 L 9.4131,9.1264 L 9.4089,9.1268 L 9.3906,9.1303 L 9.3733,9.137 L 9.3576,9.1468 L 9.3439,9.1594 L 9.3328,9.1742 L 9.3246,9.1909 L 9.3197,9.2088 L 9.3189,9.213 L 9.3177,9.2222 L 9.3165,9.2372 L 9.3164,9.2381 L 9.3152,9.2497 L 9.3151,9.2506 L 9.3013,9.3652 L 9.3011,9.3661 L 9.2995,9.3781 L 9.2993,9.379 L 9.2816,9.4911 L 9.2814,9.4921 L 9.2792,9.5043 L 9.2791,9.5053 L 9.2573,9.6149 L 9.2571,9.6159 L 9.2544,9.6284 L 9.2542,9.6293 L 9.2285,9.7366 L 9.2284,9.7371 L 9.2283,9.7376 L 9.2281,9.7381 L 9.2249,9.7503 L 9.2248,9.7508 L 9.2247,9.7513 L 9.2245,9.7518 L 9.1951,9.856 L 9.1949,9.8565 L 9.1948,9.857 L 9.1946,9.8575 L 9.1908,9.8699 L 9.1907,9.8704 L 9.1905,9.8709 L 9.1904,9.8714 L 9.157,9.9731 L 9.1568,9.9736 L 9.1567,9.9741 L 9.1565,9.9746 L 9.1521,9.9871 L 9.1519,9.9876 L 9.1517,9.9881 L 9.1516,9.9886 L 9.1143,10.0878 L 9.1141,10.0883 L 9.1139,10.0888 L 9.1137,10.0893 L 9.1087,10.1018 L 9.1085,10.1023 L 9.1083,10.1028 L 9.1081,10.1033 L 9.0669,10.2001 L 9.0666,10.2006 L 9.0664,10.2011 L 9.0662,10.2016 L 9.0606,10.214 L 9.0604,10.2145 L 9.0601,10.215 L 9.0599,10.2155 L 9.0148,10.3099 L 9.0145,10.3104 L 9.0143,10.3109 L 9.0141,10.3113 L 9.0081,10.3231 L 9.0079,10.3236 L 9.0077,10.324 L 9.0074,10.3245 L 8.9588,10.416 L 8.9586,10.4164 L 8.9584,10.4169 L 8.9581,10.4173 L 8.9518,10.4286 L 8.9515,10.4291 L 8.9513,10.4296 L 8.951,10.43 L 8.8995,10.5179 L 8.8993,10.5184 L 8.899,10.5188 L 8.8987,10.5193 L 8.8917,10.5307 L 8.8914,10.5311 L 8.8912,10.5316 L 8.8909,10.532 L 8.8365,10.6164 L 8.8362,10.6168 L 8.8359,10.6173 L 8.8356,10.6178 L 8.8279,10.6291 L 8.8276,10.6296 L 8.8273,10.63 L 8.827,10.6305 L 8.7697,10.7113 L 8.7694,10.7117 L 8.7691,10.7122 L 8.7687,10.7126 L 8.7604,10.7239 L 8.76,10.7244 L 8.7597,10.7248 L 8.7593,10.7253 L 8.6992,10.8025 L 8.6989,10.803 L 8.6985,10.8034 L 8.6981,10.8039 L 8.6891,10.815 L 8.6887,10.8154 L 8.6883,10.8159 L 8.688,10.8163 L 8.625,10.89 L 8.6246,10.8905 L 8.6242,10.8909 L 8.6238,10.8913 L 8.6141,10.9022 L 8.6137,10.9026 L 8.6133,10.903 L 8.6129,10.9035 L 8.547,10.9737 L 8.5466,10.9741 L 8.5462,10.9745 L 8.5458,10.9749 L 8.5354,10.9854 L 8.535,10.9859 L 8.5346,10.9863 L 8.5342,10.9867 L 8.4654,11.0534 L 8.465,11.0538 L 8.4645,11.0542 L 8.4641,11.0546 L 8.4532,11.0647 L 8.4528,11.0651 L 8.4523,11.0655 L 8.4519,11.0659 L 8.3802,11.129 L 8.3797,11.1294 L 8.3793,11.1298 L 8.3788,11.1302 L 8.3674,11.1398 L 8.367,11.1401 L 8.3665,11.1405 L 8.366,11.1409 L 8.2914,11.2006 L 8.291,11.2009 L 8.2905,11.2013 L 8.29,11.2017 L 8.2782,11.2107 L 8.2777,11.211 L 8.2773,11.2114 L 8.2768,11.2117 L 8.1992,11.2679 L 8.1988,11.2682 L 8.1983,11.2686 L 8.1978,11.2689 L 8.1856,11.2773 L 8.1852,11.2776 L 8.1847,11.278 L 8.1842,11.2783 L 8.1037,11.331 L 8.1032,11.3313 L 8.1027,11.3316 L 8.1022,11.3319 L 8.0894,11.3399 L 8.0889,11.3402 L 8.0884,11.3405 L 8.0879,11.3408 L 8.0049,11.3896 L 8.0044,11.3899 L 8.0039,11.3902 L 8.0033,11.3905 L 7.9898,11.398 L 7.9893,11.3983 L 7.9887,11.3986 L 7.9882,11.3989 L 7.9031,11.4435 L 7.9025,11.4437 L 7.902,11.444 L 7.9014,11.4443 L 7.8875,11.4511 L 7.887,11.4514 L 7.8864,11.4517 L 7.8859,11.4519 L 7.7986,11.4922 L 7.798,11.4925 L 7.7975,11.4927 L 7.7969,11.493 L 7.7828,11.4991 L 7.7822,11.4994 L 7.7816,11.4996 L 7.7811,11.4998 L 7.6916,11.5359 L 7.6911,11.5361 L 7.6905,11.5363 L 7.6899,11.5366 L 7.6756,11.5419 L 7.675,11.5421 L 7.6744,11.5423 L 7.6739,11.5426 L 7.5822,11.5744 L 7.5817,11.5746 L 7.5811,11.5748 L 7.5805,11.575 L 7.5662,11.5796 L 7.5656,11.5797 L 7.565,11.5799 L 7.5644,11.5801 L 7.4706,11.6077 L 7.47,11.6079 L 7.4695,11.608 L 7.4689,11.6082 L 7.4546,11.612 L 7.454,11.6122 L 7.4534,11.6123 L 7.4528,11.6125 L 7.3568,11.6358 L 7.3562,11.636 L 7.3557,11.6361 L 7.3551,11.6362 L 7.3409,11.6393 L 7.3404,11.6394 L 7.3398,11.6396 L 7.3392,11.6397 L 7.241,11.6588 L 7.2404,11.6589 L 7.2399,11.659 L 7.2393,11.6591 L 7.2254,11.6615 L 7.2248,11.6616 L 7.2243,11.6617 L 7.2237,11.6618 L 7.1232,11.6766 L 7.1227,11.6767 L 7.1221,11.6768 L 7.1216,11.6769 L 7.108,11.6786 L 7.1074,11.6786 L 7.1069,11.6787 L 7.1063,11.6788 L 7.0036,11.6894 L 7.0031,11.6895 L 7.0025,11.6895 L 7.002,11.6896 L 6.9888,11.6906 L 6.9883,11.6907 L 6.9877,11.6907 L 6.9872,11.6908 L 6.8822,11.6971 L 6.8817,11.6972 L 6.8812,11.6972 L 6.8807,11.6972 L 6.8679,11.6977 L 6.8674,11.6978 L 6.8669,11.6978 L 6.8664,11.6978 L 6.7589,11.6999 L 6.7583,11.6999 L 6.7502,11.7 L 6.7496,11.7 L 6.7236,11.6999 L 6.7203,11.6998 L 6.6934,11.6995 L 6.6902,11.6994 L 6.6631,11.6988 L 6.6599,11.6987 L 6.6326,11.6978 L 6.6295,11.6977 L 6.6018,11.6965 L 6.5988,11.6964 L 6.5709,11.695 L 6.568,11.6948 L 6.5398,11.6932 L 6.5369,11.693 L 6.5085,11.6911 L 6.5057,11.6909 L 6.477,11.6887 L 6.4742,11.6885 L 6.4453,11.6861 L 6.4426,11.6859 L 6.4134,11.6832 L 6.4107,11.6829 L 6.3811,11.68 L 6.3802,11.6799 L 6.3513,11.6769 L 6.3511,11.6769 L 6.3228,11.6741 L 6.3226,11.6741 L 6.2945,11.6713 L 6.2942,11.6713 L 6.2662,11.6687 L 6.2659,11.6687 L 6.2379,11.6661 L 6.2377,11.6661 L 6.2098,11.6636 L 6.2096,11.6636 L 6.1818,11.6612 L 6.1815,11.6611 L 6.1539,11.6588 L 6.1536,11.6588 L 6.126,11.6566 L 6.1258,11.6565 L 6.0983,11.6544 L 6.098,11.6544 L 6.0706,11.6523 L 6.0703,11.6523 L 6.0461,11.6505 L 6.0436,11.6503 L 6.041,11.65 L 6.0385,11.6496 L 5.9799,11.6393 L 5.975,11.6381 L 5.9701,11.6368 L 5.9653,11.6351 L 5.9136,11.6146 L 5.9089,11.6125 L 5.9045,11.6102 L 5.9001,11.6076 L 5.8535,11.5771 L 5.8494,11.5741 L 5.8455,11.5709 L 5.8417,11.5676 L 5.8023,11.5283 L 5.7989,11.5245 L 5.7957,11.5206 L 5.7927,11.5165 L 5.7619,11.4701 L 5.7594,11.4657 L 5.757,11.4612 L 5.7549,11.4566 L 5.7342,11.4049 L 5.7325,11.4002 L 5.7311,11.3953 L 5.73,11.3904 L 5.7201,11.3356 L 5.7194,11.3305 L 5.7191,11.3255 L 5.7189,11.3205 L 5.7204,11.261 L 5.7205,11.2584 L 5.7207,11.2559 L 5.721,11.2534 L 5.8299,10.3939 L 5.8303,10.3915 L 5.8307,10.3892 L 5.8311,10.3869 L 5.8433,10.3326 L 5.8446,10.328 L 5.8461,10.3235 L 5.8477,10.3191 L 5.8685,10.2714 L 5.8706,10.2671 L 5.8729,10.263 L 5.8754,10.259 L 5.9048,10.216 L 5.9077,10.2122 L 5.9107,10.2086 L 5.9139,10.2051 L 5.9509,10.1685 L 5.9544,10.1653 L 5.958,10.1623 L 5.9619,10.1595 L 6.0051,10.1305 L 6.0092,10.128 L 6.0133,10.1258 L 6.0176,10.1237 L 6.0655,10.1034 L 6.0699,10.1018 L 6.0744,10.1004 L 6.079,10.0991 L 6.1299,10.0882 L 6.1346,10.0874 L 6.1393,10.0869 L 6.144,10.0866 L 6.1996,10.0854 L 6.202,10.0854 L 6.2044,10.0854 L 6.2067,10.0855 L 6.2313,10.0874 L 6.2327,10.0875 L 6.2607,10.0896 L 6.262,10.0897 L 6.2897,10.092 L 6.2911,10.0921 L 6.3184,10.0944 L 6.3199,10.0945 L 6.3468,10.097 L 6.3483,10.0971 L 6.3749,10.0996 L 6.3765,10.0997 L 6.4027,10.1023 L 6.4043,10.1025 L 6.4303,10.1052 L 6.4319,10.1053 L 6.4575,10.1081 L 6.4591,10.1083 L 6.4844,10.1111 L 6.4861,10.1113 L 6.511,10.1142 L 6.5127,10.1144 L 6.5372,10.1174 L 6.5373,10.1174 L 6.559,10.1201 L 6.5598,10.1202 L 6.5798,10.1224 L 6.5806,10.1225 L 6.5999,10.1245 L 6.6008,10.1246 L 6.6194,10.1264 L 6.6203,10.1265 L 6.6381,10.128 L 6.6391,10.1281 L 6.6565,10.1294 L 6.657,10.1295 L 6.6575,10.1295 L 6.658,10.1295 L 6.6739,10.1306 L 6.6745,10.1306 L 6.675,10.1307 L 6.6755,10.1307 L 6.6907,10.1315 L 6.6912,10.1316 L 6.6918,10.1316 L 6.6924,10.1316 L 6.7067,10.1323 L 6.7073,10.1323 L 6.7079,10.1323 L 6.7085,10.1323 L 6.722,10.1328 L 6.7226,10.1328 L 6.7232,10.1328 L 6.7239,10.1328 L 6.7365,10.1331 L 6.7372,10.1331 L 6.7378,10.1331 L 6.7385,10.1331 L 6.7441,10.1331 L 6.746,10.1331 L 6.748,10.1331 L 6.7499,10.1331 L 6.8176,10.1309 L 6.8209,10.1307 L 6.8243,10.1305 L 6.8276,10.1302 L 6.8845,10.1246 L 6.888,10.1242 L 6.8915,10.1237 L 6.8949,10.1232 L 6.9474,10.1142 L 6.951,10.1135 L 6.9546,10.1128 L 6.9582,10.1119 L 7.0067,10.0999 L 7.0104,10.0989 L 7.0141,10.0979 L 7.0177,10.0967 L 7.063,10.0818 L 7.0666,10.0805 L 7.0703,10.0791 L 7.0739,10.0777 L 7.1165,10.0598 L 7.1201,10.0582 L 7.1237,10.0565 L 7.1273,10.0548 L 7.168,10.0338 L 7.1714,10.0319 L 7.1749,10.0299 L 7.1783,10.0279 L 7.2177,10.0034 L 7.221,10.0013 L 7.2242,9.9992 L 7.2274,9.9969 L 7.266,9.9685 L 7.2691,9.9662 L 7.272,9.9638 L 7.275,9.9614 L 7.3133,9.9285 L 7.316,9.9261 L 7.3187,9.9236 L 7.3214,9.9211 L 7.3596,9.8831 L 7.362,9.8806 L 7.3644,9.878 L 7.3667,9.8755 L 7.4043,9.8325 L 7.4065,9.8298 L 7.4087,9.8271 L 7.4109,9.8244 L 7.4461,9.7779 L 7.4483,9.775 L 7.4503,9.7721 L 7.4523,9.7692 L 7.4847,9.7194 L 7.4866,9.7165 L 7.4884,9.7135 L 7.4901,9.7105 L 7.5202,9.6565 L 7.5218,9.6535 L 7.5233,9.6505 L 7.5248,9.6475 L 7.5526,9.5887 L 7.5539,9.5857 L 7.5552,9.5828 L 7.5564,9.5798 L 7.5817,9.5158 L 7.5828,9.5129 L 7.5839,9.51 L 7.5849,9.5071 L 7.6076,9.4375 L 7.6084,9.4348 L 7.6093,9.432 L 7.61,9.4292 L 7.6299,9.3538 L 7.6306,9.3511 L 7.6312,9.3485 L 7.6318,9.3458 L 7.6486,9.2644 L 7.6491,9.2619 L 7.6495,9.2594 L 7.65,9.2569 L 7.6516,9.2459 L 7.6526,9.2364 L 7.6529,9.2321 L 7.6522,9.213 L 7.6478,9.1944 L 7.64,9.1769 L 7.629,9.1613 L 7.6152,9.148 L 7.5991,9.1377 L 7.5814,9.1305 L 7.5626,9.1269 L 7.5583,9.1265 L 7.5487,9.126 L -1.5426,9.126 L -1.5456,9.1259 L -1.5492,9.1251 L -1.5499,9.1216 Z M 22.8815,5.061 L 22.8753,5.0534 L 22.7995,4.9698 L 22.7925,4.9628 L 22.7089,4.887 L 22.7013,4.8808 L 22.6107,4.8136 L 22.6025,4.8081 L 22.5058,4.7501 L 22.4971,4.7455 L 22.3951,4.6972 L 22.386,4.6935 L 22.2798,4.6555 L 22.2704,4.6526 L 22.1609,4.6252 L 22.1513,4.6233 L 22.0397,4.6067 L 22.0299,4.6058 L 21.9172,4.6002 L 21.9074,4.6002 L 21.7947,4.6058 L 21.7849,4.6067 L 21.6733,4.6233 L 21.6637,4.6252 L 21.5542,4.6526 L 21.5448,4.6555 L 21.4386,4.6935 L 21.4295,4.6972 L 21.3275,4.7455 L 21.3188,4.7501 L 21.2221,4.8081 L 21.2139,4.8136 L 21.1233,4.8808 L 21.1157,4.887 L 21.0321,4.9628 L 21.0251,4.9698 L 20.9493,5.0534 L 20.9431,5.061 L 20.8759,5.1516 L 20.8704,5.1597 L 20.8124,5.2565 L 20.8078,5.2652 L 20.7596,5.3672 L 20.7558,5.3763 L 20.7178,5.4825 L 20.7149,5.4919 L 20.6875,5.6014 L 20.6856,5.611 L 20.669,5.7226 L 20.6681,5.7324 L 20.6625,5.8451 L 20.6625,5.8549 L 20.6681,5.9676 L 20.669,5.9774 L 20.6856,6.089 L 20.6875,6.0986 L 20.7149,6.2081 L 20.7178,6.2175 L 20.7558,6.3237 L 20.7596,6.3328 L 20.8078,6.4348 L 20.8124,6.4435 L 20.8704,6.5402 L 20.8759,6.5484 L 20.9431,6.639 L 20.9493,6.6466 L 21.0251,6.7302 L 21.0321,6.7372 L 21.1157,6.813 L 21.1233,6.8192 L 21.2139,6.8864 L 21.2221,6.8919 L 21.3188,6.9499 L 21.3275,6.9545 L 21.4295,7.0027 L 21.4386,7.0065 L 21.5448,7.0445 L 21.5542,7.0474 L 21.6637,7.0748 L 21.6733,7.0767 L 21.7849,7.0933 L 21.7947,7.0942 L 21.9074,7.0998 L 21.9172,7.0998 L 22.0299,7.0942 L 22.0397,7.0933 L 22.1513,7.0767 L 22.1609,7.0748 L 22.2704,7.0474 L 22.2798,7.0445 L 22.386,7.0065 L 22.3951,7.0027 L 22.4971,6.9545 L 22.5058,6.9499 L 22.6025,6.8919 L 22.6107,6.8864 L 22.7013,6.8192 L 22.7089,6.813 L 22.7925,6.7372 L 22.7995,6.7302 L 22.8753,6.6466 L 22.8815,6.639 L 22.9487,6.5484 L 22.9542,6.5402 L 23.0122,6.4435 L 23.0168,6.4348 L 23.065,6.3328 L 23.0688,6.3237 L 23.1068,6.2175 L 23.1097,6.2081 L 23.1371,6.0986 L 23.139,6.089 L 23.1556,5.9774 L 23.1565,5.9676 L 23.1621,5.8549 L 23.1621,5.8451 L 23.1565,5.7324 L 23.1556,5.7226 L 23.139,5.611 L 23.1371,5.6014 L 23.1097,5.4919 L 23.1068,5.4825 L 23.0688,5.3763 L 23.065,5.3672 L 23.0168,5.2652 L 23.0122,5.2565 L 22.9542,5.1597 L 22.9487,5.1516 L 22.8815,5.061 Z M 12.0429,3.9426 L 12.0396,3.9446 L 12.0363,3.9467 L 12.0331,3.9489 L 12.0092,3.9655 L 12.006,3.9678 L 12.0029,3.9702 L 11.9999,3.9726 L 11.9775,3.9909 L 11.9746,3.9934 L 11.9717,3.996 L 11.9688,3.9986 L 11.9475,4.019 L 11.9448,4.0217 L 11.9421,4.0245 L 11.9395,4.0273 L 11.9189,4.0503 L 11.9165,4.0532 L 11.9141,4.0561 L 11.9117,4.059 L 11.8915,4.0853 L 11.8894,4.0882 L 11.8873,4.0911 L 11.8853,4.0941 L 11.8654,4.1243 L 11.8635,4.1272 L 11.8617,4.1301 L 11.86,4.1331 L 11.8405,4.1677 L 11.839,4.1705 L 11.8374,4.1734 L 11.836,4.1764 L 11.817,4.2157 L 11.8157,4.2185 L 11.8145,4.2213 L 11.8133,4.2242 L 11.7951,4.2687 L 11.7941,4.2714 L 11.7931,4.2741 L 11.7921,4.2768 L 11.7747,4.3278 L 11.7739,4.3301 L 11.7732,4.3325 L 11.7725,4.3349 L 11.7553,4.3947 L 11.7547,4.3966 L 11.7542,4.3986 L 11.7537,4.4005 L 11.7369,4.4694 L 11.7364,4.4712 L 11.736,4.4729 L 11.7357,4.4747 L 11.7198,4.5515 L 11.7195,4.5531 L 11.7192,4.5546 L 11.7189,4.5562 L 11.7042,4.6407 L 11.7039,4.6421 L 11.7037,4.6435 L 11.7035,4.645 L 11.6902,4.737 L 11.69,4.7383 L 11.6898,4.7395 L 11.6897,4.7408 L 11.6779,4.8401 L 11.6777,4.8413 L 11.6776,4.8424 L 11.6775,4.8436 L 11.6674,4.9501 L 11.6673,4.9511 L 11.6672,4.9522 L 11.6671,4.9532 L 11.6587,5.0667 L 11.6586,5.0677 L 11.6586,5.0686 L 11.6585,5.0696 L 11.6519,5.19 L 11.6518,5.1908 L 11.6518,5.1917 L 11.6518,5.1926 L 11.647,5.3198 L 11.647,5.3206 L 11.6469,5.3214 L 11.6469,5.3221 L 11.644,5.456 L 11.644,5.4568 L 11.644,5.4575 L 11.644,5.4582 L 11.643,5.5987 L 11.643,5.5994 L 11.643,5.6001 L 11.643,5.6008 L 11.644,5.7412 L 11.644,5.7419 L 11.644,5.7427 L 11.644,5.7434 L 11.6469,5.8773 L 11.6469,5.8781 L 11.647,5.8789 L 11.647,5.8797 L 11.6518,6.0069 L 11.6518,6.0077 L 11.6518,6.0086 L 11.6519,6.0095 L 11.6585,6.1299 L 11.6586,6.1308 L 11.6586,6.1318 L 11.6587,6.1327 L 11.6671,6.2462 L 11.6672,6.2473 L 11.6673,6.2483 L 11.6674,6.2494 L 11.6775,6.3559 L 11.6776,6.357 L 11.6777,6.3582 L 11.6779,6.3593 L 11.6897,6.4586 L 11.6898,6.4599 L 11.69,6.4612 L 11.6902,6.4625 L 11.7035,6.5545 L 11.7037,6.5559 L 11.7039,6.5573 L 11.7042,6.5587 L 11.7189,6.6433 L 11.7192,6.6448 L 11.7195,6.6464 L 11.7198,6.6479 L 11.7357,6.7248 L 11.736,6.7265 L 11.7364,6.7283 L 11.7369,6.73 L 11.7537,6.7989 L 11.7542,6.8009 L 11.7547,6.8028 L 11.7553,6.8048 L 11.7725,6.8646 L 11.7732,6.867 L 11.7739,6.8693 L 11.7747,6.8716 L 11.7921,6.9226 L 11.7931,6.9253 L 11.7941,6.928 L 11.7951,6.9307 L 11.8133,6.9753 L 11.8145,6.9781 L 11.8157,6.9809 L 11.817,6.9837 L 11.836,7.0231 L 11.8374,7.026 L 11.839,7.0289 L 11.8405,7.0318 L 11.86,7.0663 L 11.8617,7.0693 L 11.8635,7.0722 L 11.8654,7.0752 L 11.8853,7.1053 L 11.8873,7.1083 L 11.8894,7.1112 L 11.8915,7.1141 L 11.9117,7.1405 L 11.9141,7.1434 L 11.9165,7.1463 L 11.9189,7.1491 L 11.9395,7.1721 L 11.9421,7.175 L 11.9448,7.1777 L 11.9475,7.1804 L 11.9688,7.2008 L 11.9717,7.2035 L 11.9746,7.206 L 11.9775,7.2086 L 11.9999,7.2269 L 12.0029,7.2293 L 12.006,7.2316 L 12.0092,7.2339 L 12.0331,7.2506 L 12.0363,7.2527 L 12.0396,7.2548 L 12.0429,7.2568 L 12.069,7.2722 L 12.0723,7.274 L 12.0757,7.2758 L 12.079,7.2775 L 12.1099,7.2927 L 12.1128,7.294 L 12.1158,7.2954 L 12.1188,7.2967 L 12.1581,7.3128 L 12.1605,7.3138 L 12.1629,7.3147 L 12.1654,7.3156 L 12.2127,7.3323 L 12.215,7.333 L 12.2173,7.3338 L 12.2195,7.3345 L 12.2731,7.3505 L 12.2752,7.3511 L 12.2773,7.3517 L 12.2794,7.3523 L 12.3391,7.3674 L 12.341,7.3678 L 12.343,7.3683 L 12.3449,7.3687 L 12.4107,7.3826 L 12.4125,7.383 L 12.4143,7.3833 L 12.416,7.3836 L 12.4878,7.3961 L 12.4895,7.3964 L 12.4911,7.3966 L 12.4927,7.3969 L 12.5704,7.4077 L 12.5719,7.4079 L 12.5734,7.4081 L 12.5749,7.4083 L 12.6583,7.4174 L 12.6596,7.4175 L 12.661,7.4177 L 12.6624,7.4178 L 12.7514,7.425 L 12.7527,7.4251 L 12.754,7.4252 L 12.7552,7.4253 L 12.8498,7.4305 L 12.8509,7.4306 L 12.8521,7.4306 L 12.8533,7.4307 L 12.9533,7.4339 L 12.9543,7.4339 L 12.9554,7.4339 L 12.9565,7.434 L 13.0643,7.4351 L 13.0648,7.4351 L 13.0653,7.4351 L 13.0658,7.4351 L 14.1833,7.4351 L 14.1931,7.4346 L 14.1975,7.4342 L 14.2168,7.4303 L 14.2349,7.4228 L 14.2512,7.4119 L 14.265,7.3981 L 14.2759,7.3818 L 14.2834,7.3637 L 14.2873,7.3444 L 14.2877,7.34 L 14.2882,7.3302 L 14.2882,3.8693 L 14.2877,3.8595 L 14.2873,3.855 L 14.2834,3.8358 L 14.2759,3.8177 L 14.265,3.8014 L 14.2512,3.7875 L 14.2349,3.7766 L 14.2168,3.7691 L 14.1975,3.7653 L 14.1931,3.7649 L 14.1833,3.7644 L 13.0658,3.7644 L 13.0653,3.7644 L 13.0648,3.7644 L 13.0643,3.7644 L 12.9565,3.7655 L 12.9554,3.7655 L 12.9543,3.7655 L 12.9533,3.7656 L 12.8533,3.7688 L 12.8521,3.7688 L 12.8509,3.7688 L 12.8498,3.7689 L 12.7552,3.7742 L 12.754,3.7742 L 12.7527,3.7743 L 12.7514,3.7744 L 12.6624,3.7817 L 12.661,3.7818 L 12.6596,3.7819 L 12.6583,3.782 L 12.5749,3.7912 L 12.5734,3.7913 L 12.5719,3.7915 L 12.5704,3.7917 L 12.4927,3.8026 L 12.4911,3.8028 L 12.4895,3.8031 L 12.4878,3.8033 L 12.416,3.8158 L 12.4143,3.8161 L 12.4125,3.8165 L 12.4107,3.8168 L 12.3449,3.8307 L 12.343,3.8312 L 12.341,3.8316 L 12.3391,3.8321 L 12.2794,3.8472 L 12.2773,3.8477 L 12.2752,3.8483 L 12.2731,3.8489 L 12.2195,3.865 L 12.2173,3.8657 L 12.215,3.8664 L 12.2127,3.8672 L 12.1654,3.8838 L 12.1629,3.8847 L 12.1605,3.8857 L 12.1581,3.8866 L 12.1188,3.9028 L 12.1158,3.9041 L 12.1128,3.9054 L 12.1099,3.9068 L 12.079,3.9219 L 12.0757,3.9236 L 12.0723,3.9254 L 12.069,3.9273 L 12.0429,3.9426 Z M 1.3032,7.3444 L 1.307,7.3637 L 1.3145,7.3818 L 1.3254,7.3981 L 1.3393,7.4119 L 1.3556,7.4228 L 1.3737,7.4303 L 1.3929,7.4342 L 1.3974,7.4346 L 1.4072,7.4351 L 4.7582,7.4351 L 4.768,7.4346 L 4.7725,7.4342 L 4.7917,7.4303 L 4.8098,7.4228 L 4.8261,7.4119 L 4.84,7.3981 L 4.8508,7.3818 L 4.8584,7.3637 L 4.8622,7.3444 L 4.8626,7.34 L 4.8631,7.3302 L 4.8631,5.7244 L 4.8631,5.7235 L 4.8618,5.5862 L 4.8618,5.5852 L 4.8618,5.5842 L 4.8617,5.5832 L 4.858,5.4548 L 4.8579,5.4537 L 4.8579,5.4526 L 4.8578,5.4515 L 4.8516,5.3291 L 4.8516,5.3279 L 4.8515,5.3268 L 4.8514,5.3256 L 4.8428,5.2092 L 4.8427,5.208 L 4.8426,5.2067 L 4.8425,5.2055 L 4.8316,5.0952 L 4.8314,5.0938 L 4.8313,5.0925 L 4.8311,5.0911 L 4.8179,4.987 L 4.8177,4.9856 L 4.8175,4.9841 L 4.8173,4.9827 L 4.802,4.8848 L 4.8018,4.8833 L 4.8015,4.8817 L 4.8012,4.8802 L 4.784,4.7887 L 4.7836,4.787 L 4.7833,4.7853 L 4.7829,4.7836 L 4.7638,4.6987 L 4.7634,4.6969 L 4.7629,4.695 L 4.7625,4.6932 L 4.7417,4.6148 L 4.7412,4.6128 L 4.7406,4.6109 L 4.74,4.6089 L 4.7178,4.5371 L 4.7172,4.535 L 4.7165,4.5329 L 4.7157,4.5308 L 4.6927,4.4665 L 4.6918,4.4641 L 4.6908,4.4616 L 4.6899,4.4592 L 4.6661,4.4024 L 4.6649,4.3997 L 4.6637,4.3971 L 4.6625,4.3944 L 4.6374,4.3433 L 4.636,4.3405 L 4.6346,4.3378 L 4.6331,4.3351 L 4.6066,4.2884 L 4.6049,4.2856 L 4.6033,4.2829 L 4.6016,4.2802 L 4.5736,4.2376 L 4.5717,4.2349 L 4.5698,4.2321 L 4.5678,4.2295 L 4.5384,4.1905 L 4.5363,4.1879 L 4.5342,4.1852 L 4.532,4.1826 L 4.5009,4.1469 L 4.4986,4.1443 L 4.4963,4.1418 L 4.4939,4.1393 L 4.461,4.1064 L 4.4585,4.104 L 4.456,4.1016 L 4.4534,4.0993 L 4.4184,4.0688 L 4.4157,4.0666 L 4.4131,4.0644 L 4.4103,4.0623 L 4.3728,4.0339 L 4.37,4.0319 L 4.3672,4.0299 L 4.3644,4.028 L 4.3239,4.0015 L 4.3211,3.9997 L 4.3182,3.998 L 4.3153,3.9963 L 4.2714,3.9716 L 4.2686,3.9701 L 4.2657,3.9686 L 4.2628,3.9671 L 4.2139,3.9437 L 4.2113,3.9425 L 4.2087,3.9413 L 4.2061,3.9402 L 4.15,3.9172 L 4.1477,3.9163 L 4.1455,3.9154 L 4.1432,3.9145 L 4.0801,3.8922 L 4.0779,3.8914 L 4.0758,3.8907 L 4.0736,3.89 L 4.0046,3.869 L 4.0025,3.8684 L 4.0005,3.8679 L 3.9985,3.8673 L 3.9235,3.8479 L 3.9216,3.8474 L 3.9197,3.847 L 3.9178,3.8465 L 3.8368,3.8289 L 3.835,3.8285 L 3.8332,3.8282 L 3.8315,3.8279 L 3.7446,3.8122 L 3.7429,3.8119 L 3.7413,3.8116 L 3.7396,3.8114 L 3.6469,3.7979 L 3.6453,3.7976 L 3.6438,3.7974 L 3.6423,3.7973 L 3.5438,3.786 L 3.5423,3.7858 L 3.5409,3.7857 L 3.5395,3.7856 L 3.4353,3.7766 L 3.434,3.7765 L 3.4326,3.7764 L 3.4313,3.7764 L 3.3215,3.7699 L 3.3203,3.7698 L 3.319,3.7698 L 3.3178,3.7697 L 3.2024,3.7658 L 3.2013,3.7658 L 3.2001,3.7657 L 3.199,3.7657 L 3.0782,3.7644 L 3.0771,3.7644 L 3.076,3.7644 L 3.0749,3.7644 L 2.9542,3.7657 L 2.9531,3.7657 L 2.9519,3.7658 L 2.9508,3.7658 L 2.8356,3.7697 L 2.8343,3.7698 L 2.8331,3.7698 L 2.8319,3.7699 L 2.7223,3.7763 L 2.721,3.7764 L 2.7196,3.7765 L 2.7183,3.7766 L 2.6145,3.7855 L 2.613,3.7857 L 2.6116,3.7858 L 2.6102,3.786 L 2.5121,3.7972 L 2.5106,3.7974 L 2.509,3.7976 L 2.5075,3.7978 L 2.4154,3.8113 L 2.4137,3.8116 L 2.412,3.8119 L 2.4104,3.8122 L 2.3242,3.8278 L 2.3224,3.8281 L 2.3206,3.8285 L 2.3188,3.8288 L 2.2387,3.8464 L 2.2368,3.8468 L 2.2348,3.8473 L 2.2329,3.8478 L 2.1589,3.8671 L 2.1568,3.8677 L 2.1548,3.8682 L 2.1527,3.8688 L 2.0848,3.8897 L 2.0826,3.8904 L 2.0804,3.8911 L 2.0782,3.8919 L 2.0164,3.914 L 2.0141,3.9149 L 2.0118,3.9158 L 2.0094,3.9167 L 1.9547,3.9395 L 1.9521,3.9406 L 1.9494,3.9418 L 1.9468,3.9431 L 1.899,3.9663 L 1.8961,3.9677 L 1.8933,3.9693 L 1.8904,3.9708 L 1.8474,3.9953 L 1.8445,3.997 L 1.8416,3.9988 L 1.8388,4.0006 L 1.799,4.0269 L 1.7962,4.0288 L 1.7935,4.0308 L 1.7907,4.0328 L 1.7537,4.0611 L 1.751,4.0632 L 1.7484,4.0654 L 1.7457,4.0677 L 1.7111,4.0981 L 1.7086,4.1004 L 1.7061,4.1028 L 1.7036,4.1052 L 1.671,4.1382 L 1.6687,4.1406 L 1.6663,4.1432 L 1.664,4.1457 L 1.6332,4.1815 L 1.631,4.1841 L 1.6289,4.1867 L 1.6268,4.1894 L 1.5975,4.2285 L 1.5955,4.2312 L 1.5937,4.2339 L 1.5918,4.2366 L 1.5639,4.2795 L 1.5622,4.2822 L 1.5605,4.2849 L 1.5589,4.2876 L 1.5323,4.3346 L 1.5309,4.3373 L 1.5295,4.34 L 1.5281,4.3427 L 1.503,4.3942 L 1.5017,4.3968 L 1.5005,4.3994 L 1.4994,4.4021 L 1.4755,4.4592 L 1.4746,4.4616 L 1.4736,4.464 L 1.4727,4.4664 L 1.4496,4.5308 L 1.4489,4.5329 L 1.4482,4.535 L 1.4475,4.5371 L 1.4253,4.6089 L 1.4248,4.6109 L 1.4242,4.6128 L 1.4237,4.6148 L 1.4029,4.6932 L 1.4024,4.695 L 1.402,4.6969 L 1.4016,4.6987 L 1.3825,4.7836 L 1.3821,4.7853 L 1.3817,4.787 L 1.3814,4.7887 L 1.3641,4.8802 L 1.3639,4.8817 L 1.3636,4.8833 L 1.3633,4.8848 L 1.348,4.9827 L 1.3478,4.9841 L 1.3476,4.9856 L 1.3474,4.987 L 1.3343,5.0911 L 1.3341,5.0925 L 1.334,5.0938 L 1.3338,5.0952 L 1.3229,5.2055 L 1.3228,5.2067 L 1.3227,5.208 L 1.3226,5.2092 L 1.314,5.3256 L 1.3139,5.3268 L 1.3138,5.3279 L 1.3137,5.3291 L 1.3075,5.4515 L 1.3075,5.4526 L 1.3074,5.4537 L 1.3074,5.4548 L 1.3036,5.5832 L 1.3036,5.5842 L 1.3036,5.5852 L 1.3036,5.5862 L 1.3023,5.7225 L 1.3023,5.7235 L 1.3023,7.3302 L 1.3028,7.34 L 1.3032,7.3444 Z M -1.6906,5.1597 L -1.6961,5.1516 L -1.7633,5.061 L -1.7695,5.0534 L -1.8453,4.9698 L -1.8523,4.9628 L -1.9359,4.887 L -1.9435,4.8808 L -2.0341,4.8136 L -2.0423,4.8081 L -2.139,4.7501 L -2.1477,4.7455 L -2.2497,4.6972 L -2.2588,4.6935 L -2.365,4.6555 L -2.3744,4.6526 L -2.4839,4.6252 L -2.4935,4.6233 L -2.6051,4.6067 L -2.6149,4.6058 L -2.7276,4.6002 L -2.7374,4.6002 L -2.8501,4.6058 L -2.8599,4.6067 L -2.9715,4.6233 L -2.9811,4.6252 L -3.0906,4.6526 L -3.1,4.6555 L -3.2062,4.6935 L -3.2153,4.6972 L -3.3173,4.7455 L -3.326,4.7501 L -3.4227,4.8081 L -3.4309,4.8136 L -3.5215,4.8808 L -3.5291,4.887 L -3.6127,4.9628 L -3.6197,4.9698 L -3.6955,5.0534 L -3.7017,5.061 L -3.7689,5.1516 L -3.7744,5.1597 L -3.8324,5.2565 L -3.837,5.2652 L -3.8852,5.3672 L -3.889,5.3763 L -3.927,5.4825 L -3.9299,5.4919 L -3.9573,5.6014 L -3.9592,5.611 L -3.9758,5.7226 L -3.9767,5.7324 L -3.9823,5.8451 L -3.9823,5.8549 L -3.9767,5.9676 L -3.9758,5.9774 L -3.9592,6.089 L -3.9573,6.0986 L -3.9299,6.2081 L -3.927,6.2175 L -3.889,6.3237 L -3.8852,6.3328 L -3.837,6.4348 L -3.8324,6.4435 L -3.7744,6.5402 L -3.7689,6.5484 L -3.7017,6.639 L -3.6955,6.6466 L -3.6197,6.7302 L -3.6127,6.7372 L -3.5291,6.813 L -3.5215,6.8192 L -3.4309,6.8864 L -3.4227,6.8919 L -3.326,6.9499 L -3.3173,6.9545 L -3.2153,7.0027 L -3.2062,7.0065 L -3.1,7.0445 L -3.0906,7.0474 L -2.9811,7.0748 L -2.9715,7.0767 L -2.8599,7.0933 L -2.8501,7.0942 L -2.7374,7.0998 L -2.7276,7.0998 L -2.6149,7.0942 L -2.6051,7.0933 L -2.4935,7.0767 L -2.4839,7.0748 L -2.3744,7.0474 L -2.365,7.0445 L -2.2588,7.0065 L -2.2497,7.0027 L -2.1477,6.9545 L -2.139,6.9499 L -2.0423,6.8919 L -2.0341,6.8864 L -1.9435,6.8192 L -1.9359,6.813 L -1.8523,6.7372 L -1.8453,6.7302 L -1.7695,6.6466 L -1.7633,6.639 L -1.6961,6.5484 L -1.6906,6.5402 L -1.6326,6.4435 L -1.628,6.4348 L -1.5798,6.3328 L -1.576,6.3237 L -1.538,6.2175 L -1.5351,6.2081 L -1.5077,6.0986 L -1.5058,6.089 L -1.4892,5.9774 L -1.4883,5.9676 L -1.4827,5.8549 L -1.4827,5.8451 L -1.4883,5.7324 L -1.4892,5.7226 L -1.5058,5.611 L -1.5077,5.6014 L -1.5351,5.4919 L -1.538,5.4825 L -1.576,5.3763 L -1.5798,5.3672 L -1.628,5.2652 L -1.6326,5.2565 L -1.6906,5.1597 Z" fill="#111" fill-rule="evenodd"/></svg>